<?xml version="1.0" encoding="UTF-8"?>
<svg version="1.1" xmlns="http://www.w3.org/2000/svg" width="666" height="615">
<path d="M0 0 C12.11524118 10.43046545 11.44966082 35.12009185 12.78559875 50.07974243 C13.11800207 54.60725012 13.18121839 59.12189941 13.203125 63.66015625 C13.21013931 64.63995453 13.21715363 65.61975281 13.22438049 66.62924194 C13.24178219 69.77370865 13.24823283 72.91798691 13.25 76.0625 C13.25067474 77.13791046 13.25134949 78.21332092 13.25204468 79.32131958 C13.23599827 95.41316934 12.80297071 111.11469208 10 127 C9.82307617 128.02416016 9.64615234 129.04832031 9.46386719 130.10351562 C8.16371035 137.44637033 6.65156338 144.7286319 5 152 C4.78504883 152.95438965 4.57009766 153.9087793 4.34863281 154.89208984 C-5.91919205 199.50110773 -27.15656992 240.07407372 -59 273 C-59.74507813 273.79664063 -60.49015625 274.59328125 -61.2578125 275.4140625 C-67.0663757 281.47983145 -73.51407671 286.59882079 -80.20458984 291.64453125 C-81.35542599 292.51337029 -82.5020123 293.38788469 -83.64306641 294.26953125 C-94.34096944 302.52135728 -106.03110233 308.79165061 -118 315 C-119.1451709 315.60908203 -119.1451709 315.60908203 -120.31347656 316.23046875 C-162.51207282 338.55857476 -214.2407493 347.30380737 -261.36987305 351.0637207 C-262.56652588 351.16128662 -263.76317871 351.25885254 -264.99609375 351.359375 C-266.03950928 351.43639648 -267.0829248 351.51341797 -268.15795898 351.59277344 C-271.97067397 352.13908463 -274.91356025 352.74266161 -277.49462891 355.72973633 C-277.90116699 356.42349365 -278.30770508 357.11725098 -278.7265625 357.83203125 C-279.19513672 358.61900391 -279.66371094 359.40597656 -280.14648438 360.21679688 C-280.63439453 361.07337891 -281.12230469 361.92996094 -281.625 362.8125 C-282.40713867 364.15731445 -282.40713867 364.15731445 -283.20507812 365.52929688 C-284.82546595 368.34097345 -286.4173513 371.16693047 -288 374 C-288.47276367 374.84095215 -288.94552734 375.6819043 -289.43261719 376.54833984 C-310.10459822 413.66227019 -323.51662167 454.15483288 -330.3527832 496.00244141 C-330.5405835 497.13214355 -330.72838379 498.2618457 -330.921875 499.42578125 C-331.08268555 500.43036377 -331.24349609 501.43494629 -331.40917969 502.4699707 C-332 505 -332 505 -334 508 C-336.10375977 508.38818359 -336.10375977 508.38818359 -338.69140625 508.3984375 C-339.63693359 508.40230469 -340.58246094 508.40617187 -341.55664062 508.41015625 C-343.04454102 508.39275391 -343.04454102 508.39275391 -344.5625 508.375 C-345.52736328 508.38660156 -346.49222656 508.39820313 -347.48632812 508.41015625 C-353.68518214 508.38504273 -359.37655837 507.78299017 -365 505 C-369.05729524 500.32796306 -368.62246495 494.13315108 -368.21582031 488.22802734 C-364.08214514 445.5539101 -347.98319977 402.91625236 -328.13964844 365.171875 C-326.70820354 362.44391147 -325.29625603 359.70608237 -323.8828125 356.96875 C-321.74058734 352.83207193 -319.59784095 348.6956972 -317.44140625 344.56640625 C-316.77153687 343.28165405 -316.77153687 343.28165405 -316.08813477 341.97094727 C-315 340 -315 340 -314 339 C-313.29938995 331.97365571 -314.57490677 326.06070428 -316.75 319.4375 C-326.32137249 287.454347 -327.71188622 250.78019749 -321 218 C-320.82839355 217.15469727 -320.65678711 216.30939453 -320.47998047 215.43847656 C-314.14856798 185.46186947 -300.84289653 158.33175746 -281 135 C-280.01416285 133.82695742 -279.02849394 132.65377344 -278.04296875 131.48046875 C-269.41822813 121.26032157 -260.51314342 112.31885457 -250 104 C-249.03449219 103.21753906 -248.06898438 102.43507813 -247.07421875 101.62890625 C-227.08875697 85.75735147 -204.26880123 73.33901412 -181 63 C-180.278125 62.67854004 -179.55625 62.35708008 -178.8125 62.02587891 C-157.16450285 52.54997798 -134.12891911 46.17550257 -111.6159668 39.10708618 C-76.60091938 28.11225297 -42.51403338 15.78778688 -8.97583008 0.84106445 C-5.50450416 -0.63659745 -3.5376486 -1.45667884 0 0 Z M-36.3671875 54.1484375 C-37.71411138 54.65635616 -39.06120784 55.16381735 -40.40844727 55.67089844 C-41.13170197 55.94736206 -41.85495667 56.22382568 -42.60012817 56.50866699 C-59.38545807 62.90097674 -76.41704775 68.41239003 -93.5625 73.75 C-95.92712296 74.48807294 -98.29170658 75.22627191 -100.65625 75.96459961 C-104.06631352 77.02879076 -107.47650248 78.09257237 -110.88705444 79.15519714 C-154.12338085 92.6300524 -197.8612002 108.63534413 -231.703125 139.890625 C-233.75935351 141.77899812 -235.86286408 143.57980583 -238 145.375 C-265.41763129 169.48930222 -281.90549122 207.57941273 -284.6875 243.5625 C-285.4179237 258.69270528 -285.46410677 273.91447129 -284 289 C-280.01015201 285.48117573 -277.65686306 281.3458147 -275 276.8125 C-266.25956153 262.24510255 -256.3301596 248.83308565 -245.47363281 235.78222656 C-244.12024266 234.1454227 -242.78599715 232.49570447 -241.4609375 230.8359375 C-237.50045715 225.89554449 -233.43073354 221.28805367 -228.8828125 216.8828125 C-227.05815709 215.05815709 -225.40677797 213.1644283 -223.75 211.1875 C-219.42821065 206.16991237 -214.49079775 201.83676501 -209.57177734 197.42333984 C-208.04892997 196.04430906 -206.54685588 194.64626317 -205.05078125 193.23828125 C-197.71242564 186.34951355 -190.02106288 180.07561194 -182 174 C-181.28424805 173.4544043 -180.56849609 172.90880859 -179.83105469 172.34667969 C-168.27228258 163.56478977 -156.38873103 155.55894537 -144 148 C-142.68995285 147.19034895 -141.38004914 146.38046576 -140.0703125 145.5703125 C-108.83859417 126.39852828 -108.83859417 126.39852828 -98 125 C-97.91626012 130.16794708 -98.47715524 133.97773031 -101.875 138 C-105.60492777 141.84341442 -109.72355266 145.18471954 -113.91015625 148.515625 C-117.33876385 151.27238156 -120.67211218 154.12335889 -124 157 C-128.25824024 160.6761995 -132.55511807 164.28375077 -136.9375 167.8125 C-140.59626323 170.78123333 -143.98159143 173.84952803 -147.24414062 177.24511719 C-148.8779885 178.87805636 -150.56022651 180.35499657 -152.328125 181.83984375 C-158.21837017 186.96026801 -163.6753671 192.5262786 -169.18188477 198.05151367 C-171.05829475 199.93328274 -172.93998969 201.80964738 -174.82226562 203.68554688 C-180.76062377 209.62026662 -186.59694217 215.56646683 -192 222 C-192.97236088 223.11857814 -193.94629385 224.23579184 -194.921875 225.3515625 C-201.40808907 232.8404381 -207.64820568 240.481404 -213.70166016 248.32373047 C-214.93150897 249.91157213 -216.1743721 251.48930872 -217.41796875 253.06640625 C-228.30245017 266.96942248 -238.24657115 281.45112452 -247.375 296.5625 C-248.03588623 297.65143555 -248.69677246 298.74037109 -249.37768555 299.86230469 C-249.98265869 300.8784082 -250.58763184 301.89451172 -251.2109375 302.94140625 C-251.75024902 303.84576416 -252.28956055 304.75012207 -252.84521484 305.68188477 C-254.22294667 308.01590576 -254.22294667 308.01590576 -254 311 C-246.87533774 311.27837508 -240.19522487 310.23325242 -233.1875 309 C-231.93573975 308.78069824 -230.68397949 308.56139648 -229.39428711 308.33544922 C-205.95873619 304.14498286 -182.41053611 299.12817372 -160 291 C-159.17081055 290.70158203 -158.34162109 290.40316406 -157.48730469 290.09570312 C-132.4512965 280.94067269 -109.55434379 268.1736939 -90.46582031 249.43066406 C-89.06746972 248.06585152 -87.63981529 246.73125628 -86.2109375 245.3984375 C-69.47232578 229.43163496 -57.81295833 209.74609425 -48 189 C-47.69320312 188.35981934 -47.38640625 187.71963867 -47.0703125 187.06005859 C-32.61850569 156.65104843 -25.71552894 120.65493133 -25.90234375 87.08203125 C-25.9037587 86.09877365 -25.90517365 85.11551605 -25.90663147 84.10246277 C-25.91216537 81.00577567 -25.92470486 77.90916472 -25.9375 74.8125 C-25.94252356 72.69466251 -25.94708496 70.57682388 -25.95117188 68.45898438 C-25.96211302 63.30596088 -25.97933079 58.15299329 -26 53 C-30.16140462 51.74004961 -32.28826703 52.57307876 -36.3671875 54.1484375 Z " fill="#19463A" transform="translate(368,1)"/>
<path d="M0 0 C1.6080249 -0.01925285 1.6080249 -0.01925285 3.24853516 -0.03889465 C5.00302979 -0.04997505 5.00302979 -0.04997505 6.79296875 -0.0612793 C7.99099121 -0.06935104 9.18901367 -0.07742279 10.42333984 -0.08573914 C12.96889794 -0.09960561 15.51447483 -0.11031622 18.06005859 -0.11816406 C21.93623817 -0.13530248 25.81154861 -0.17915845 29.6875 -0.22338867 C32.16014997 -0.23352166 34.63280721 -0.24203586 37.10546875 -0.2487793 C38.83567261 -0.27504143 38.83567261 -0.27504143 40.60083008 -0.30183411 C50.74741927 -0.27478014 57.87381356 2.40017199 65.3203125 9.3137207 C69.51895169 14.02607574 70.96019337 20.00998832 71 26.2277832 C70.38984937 35.84053367 68.34296766 41.90557463 61.98046875 49.17700195 C62.87378906 49.57145508 62.87378906 49.57145508 63.78515625 49.97387695 C66.08558583 51.2346106 67.40291282 52.44811495 69.10546875 54.42700195 C69.60304688 54.9890332 70.100625 55.55106445 70.61328125 56.13012695 C75.39686391 63.29183356 74.94173854 72.89683668 73.98046875 81.17700195 C71.96866625 88.56920649 67.38314657 94.0577164 60.98046875 98.17700195 C52.38111866 102.12687292 43.57947753 102.32723314 34.2734375 102.30981445 C32.5917321 102.31124954 32.5917321 102.31124954 30.87605286 102.31271362 C28.51510563 102.31339237 26.15415651 102.3115594 23.79321289 102.30737305 C20.1635322 102.30199538 16.53397385 102.30734123 12.90429688 102.3137207 C10.61067681 102.31306036 8.31705682 102.31178011 6.0234375 102.30981445 C4.93185837 102.31183868 3.84027924 102.31386292 2.71562195 102.31594849 C1.21319695 102.31122025 1.21319695 102.31122025 -0.31958008 102.30639648 C-1.20527176 102.30560089 -2.09096344 102.3048053 -3.00349426 102.3039856 C-5.01953125 102.17700195 -5.01953125 102.17700195 -6.01953125 101.17700195 C-6.12020159 98.07729431 -6.15567425 94.99982524 -6.14892578 91.8996582 C-6.1506781 90.92576141 -6.15243042 89.95186462 -6.15423584 88.94845581 C-6.15865624 85.71212001 -6.1557157 82.47583836 -6.15234375 79.23950195 C-6.15301674 77.00130198 -6.15398671 74.76310207 -6.15524292 72.52490234 C-6.15672015 67.82722276 -6.15456454 63.12956215 -6.14990234 58.43188477 C-6.14420505 52.39539581 -6.14748392 46.35895131 -6.15347481 40.32246399 C-6.15707975 35.69868634 -6.15594214 31.07491932 -6.15334702 26.45114136 C-6.15267756 24.22468053 -6.15350681 21.99821875 -6.15582657 19.77175903 C-6.15835199 16.66592841 -6.15451405 13.56017086 -6.14892578 10.4543457 C-6.15095001 9.52443817 -6.15297424 8.59453064 -6.15505981 7.63644409 C-6.12967916 0.0636717 -6.12967916 0.0636717 0 0 Z M17.98046875 18.17700195 C17.98046875 26.09700195 17.98046875 34.01700195 17.98046875 42.17700195 C21.01234375 42.21825195 24.04421875 42.25950195 27.16796875 42.30200195 C28.58758911 42.32931396 28.58758911 42.32931396 30.03588867 42.35717773 C35.7568972 42.39482793 39.76600838 42.03236064 44.29296875 38.23950195 C46.82711795 33.64049045 46.88989607 29.30987141 45.98046875 24.17700195 C43.45476242 20.76388529 41.98133571 19.51062427 37.98046875 18.17700195 C36.42625146 18.0959351 34.86879848 18.06943297 33.3125 18.0793457 C32.10557495 18.08309204 32.10557495 18.08309204 30.87426758 18.08691406 C29.85743896 18.09601807 28.84061035 18.10512207 27.79296875 18.11450195 C24.55484375 18.13512695 21.31671875 18.15575195 17.98046875 18.17700195 Z M17.98046875 59.17700195 C17.98046875 66.76700195 17.98046875 74.35700195 17.98046875 82.17700195 C21.87671981 82.25798639 25.77128505 82.31750002 29.66796875 82.36450195 C31.3221582 82.40220703 31.3221582 82.40220703 33.00976562 82.44067383 C34.60981445 82.45517578 34.60981445 82.45517578 36.2421875 82.4699707 C37.22147217 82.48568115 38.20075684 82.5013916 39.2097168 82.51757812 C43.46233771 81.99485311 46.08681512 80.25554944 48.79296875 76.98950195 C50.36373509 73.2692659 50.58509512 70.1594743 49.98046875 66.17700195 C48.3435969 62.59147314 47.29074292 61.3838514 43.98046875 59.17700195 C41.1689216 58.90051641 41.1689216 58.90051641 38 58.98168945 C36.83662109 58.98813477 35.67324219 58.99458008 34.47460938 59.0012207 C33.25966797 59.01797852 32.04472656 59.03473633 30.79296875 59.05200195 C28.9531543 59.06553711 28.9531543 59.06553711 27.07617188 59.0793457 C24.0441879 59.10294091 21.01230402 59.13881229 17.98046875 59.17700195 Z " fill="#19463A" transform="translate(131.01953125,372.822998046875)"/>
<path d="M0 0 C0.81210937 -0.020625 1.62421875 -0.04125 2.4609375 -0.0625 C7.2143312 -0.09346673 10.53409396 -0.01259105 14.25 3.25 C16.31489578 5.8638596 18.09559475 8.62395321 19.875 11.4375 C20.93772634 13.07491744 22.00155053 14.71162281 23.06640625 16.34765625 C23.5989502 17.17152832 24.13149414 17.99540039 24.68017578 18.84423828 C26.99789439 22.39615107 29.39844699 25.88813137 31.8125 29.375 C32.71225523 30.67837461 33.61199479 31.98176005 34.51171875 33.28515625 C34.95821777 33.9311377 35.4047168 34.57711914 35.86474609 35.24267578 C37.31587652 37.34545942 38.76208419 39.45155689 40.20703125 41.55859375 C40.69550537 42.27063965 41.18397949 42.98268555 41.68725586 43.71630859 C42.61163323 45.06402537 43.53565382 46.41198695 44.45922852 47.76025391 C45.09429321 48.68523682 45.09429321 48.68523682 45.7421875 49.62890625 C46.10683105 50.1607251 46.47147461 50.69254395 46.84716797 51.24047852 C48.95621648 54.26163729 51.10454619 57.25462718 53.25 60.25 C53.26030746 59.51306412 53.27061493 58.77612823 53.28123474 58.01686096 C53.37904643 51.08578924 53.48153716 44.15480098 53.58933926 37.22387791 C53.64460027 33.66027032 53.69802518 30.09665457 53.74731445 26.53295898 C53.80400532 22.43984755 53.86857318 18.3468939 53.93359375 14.25390625 C53.95866249 12.32581871 53.95866249 12.32581871 53.98423767 10.35877991 C54.00418289 9.17763107 54.02412811 7.99648224 54.04467773 6.77954102 C54.06022202 5.73363297 54.0757663 4.68772491 54.09178162 3.61012268 C54.25 1.25 54.25 1.25 55.25 0.25 C56.72652664 0.15119203 58.20767236 0.11920755 59.6875 0.1171875 C60.58210937 0.11589844 61.47671875 0.11460937 62.3984375 0.11328125 C63.33945312 0.11714844 64.28046875 0.12101562 65.25 0.125 C66.66152344 0.11919922 66.66152344 0.11919922 68.1015625 0.11328125 C69.44347656 0.11521484 69.44347656 0.11521484 70.8125 0.1171875 C71.63878906 0.11831543 72.46507812 0.11944336 73.31640625 0.12060547 C75.25 0.25 75.25 0.25 76.25 1.25 C76.34536242 4.41612663 76.37550636 7.56040628 76.36352539 10.72680664 C76.36367142 11.72181686 76.36381744 12.71682709 76.3639679 13.74198914 C76.36326831 17.04806662 76.35547379 20.35408854 76.34765625 23.66015625 C76.34579223 25.94559193 76.34436825 28.23102801 76.34336853 30.51646423 C76.33954207 36.54498387 76.3297107 42.57347959 76.31866455 48.60198975 C76.30845317 54.74832841 76.3038715 60.89467093 76.29882812 67.04101562 C76.28808854 79.11068762 76.2710106 91.18034182 76.25 103.25 C72.83746788 103.35365083 69.42534175 103.41682368 66.01171875 103.47265625 C65.04520386 103.5025061 64.07868896 103.53235596 63.08288574 103.56311035 C55.90642265 103.65132653 55.90642265 103.65132653 52.56933594 101.61108398 C50.74908945 99.28740899 49.55069483 96.90073851 48.25 94.25 C47.13336778 92.49432182 45.96360701 90.78206052 44.78686523 89.06616211 C43.46983139 87.14345761 42.18574733 85.20175841 40.90625 83.25390625 C38.32247116 79.34119116 35.66741061 75.48095444 33 71.625 C28.55970926 65.20537844 24.21360382 58.72564678 19.890625 52.2265625 C19.24883301 51.26274658 18.60704102 50.29893066 17.94580078 49.3059082 C16.38000102 46.95429273 14.81474515 44.60231728 13.25 42.25 C13.2345388 43.37419594 13.2345388 43.37419594 13.21876526 44.52110291 C13.12095475 51.56990454 13.01846424 58.61861874 12.91066074 65.66727352 C12.85539903 69.2914158 12.801974 72.9155661 12.75268555 76.53979492 C12.70508968 80.03467099 12.6527489 83.5294462 12.59705925 87.02420235 C12.56663587 89.01233823 12.54118018 91.00054809 12.51576233 92.98875427 C12.49581711 94.18992386 12.47587189 95.39109344 12.45532227 96.62866211 C12.43977798 97.69233505 12.4242337 98.756008 12.40821838 99.85191345 C12.25 102.25 12.25 102.25 11.25 103.25 C9.7612814 103.33669432 8.268555 103.35703494 6.77734375 103.34765625 C5.87822266 103.34443359 4.97910156 103.34121094 4.05273438 103.33789062 C2.63444336 103.32532227 2.63444336 103.32532227 1.1875 103.3125 C0.23810547 103.30798828 -0.71128906 103.30347656 -1.68945312 103.29882812 C-4.04303065 103.2870011 -6.39648477 103.27052025 -8.75 103.25 C-9.88611938 100.97776124 -9.87568845 99.74234589 -9.87698364 97.21983337 C-9.87980347 96.3771138 -9.88262329 95.53439423 -9.88552856 94.6661377 C-9.88350433 93.73982544 -9.8814801 92.81351318 -9.87939453 91.85913086 C-9.88114685 90.88508804 -9.88289917 89.91104523 -9.88470459 88.90748596 C-9.88911852 85.67658729 -9.88618694 82.44574301 -9.8828125 79.21484375 C-9.88348562 76.97807301 -9.88445571 74.74130235 -9.88571167 72.50453186 C-9.88718798 67.81282862 -9.88503603 63.12114439 -9.88037109 58.42944336 C-9.87467057 52.40083016 -9.8779553 46.37226144 -9.88394356 40.34364986 C-9.88754817 35.72416343 -9.8864111 31.10468763 -9.88381577 26.48520088 C-9.88314639 24.26153114 -9.88397528 22.03786045 -9.88629532 19.81419182 C-9.88882057 16.71325985 -9.8849832 13.61240109 -9.87939453 10.51147461 C-9.88141876 9.58313812 -9.88344299 8.65480164 -9.88552856 7.69833374 C-9.85656158 -0.92963901 -7.90867168 0.04927521 0 0 Z " fill="#1B473B" transform="translate(480.75,371.75)"/>
<path d="M0 0 C0.83337891 0.00563965 1.66675781 0.0112793 2.52539062 0.01708984 C16.38429308 0.28814894 28.64547002 4.72754793 38.90625 14.2734375 C51.78183576 28.51296243 53.52318195 44.239304 52.92480469 62.57275391 C52.1398851 74.87494329 45.88099526 86.72287694 37.0625 95.1875 C25.6262217 104.77865577 11.89109647 109.05602657 -2.9375 108.06640625 C-18.115049 106.33751206 -30.77981415 100.69961308 -40.6875 88.6484375 C-50.23170229 74.37985508 -53.16769826 57.21412251 -50.03515625 40.47265625 C-46.72349263 27.14362208 -40.57056827 16.34645167 -29.25 8.3125 C-19.71217611 2.72624417 -11.00187591 -0.07832906 0 0 Z M-20.25 30.3125 C-26.63925657 39.45084323 -27.42082796 51.6381655 -25.78515625 62.359375 C-24.13746473 70.04210234 -21.50939706 76.94854437 -15.1875 81.94140625 C-7.31182003 87.02295711 0.99995035 87.48408505 10.203125 85.88671875 C16.91217969 83.73401026 21.69372175 78.61635611 25.0625 72.5625 C29.93552483 61.57718972 30.15320432 48.16091728 26.125 36.875 C22.80281469 29.76954316 18.7659004 24.76886016 11.375 21.8125 C-0.79923292 18.07042021 -11.70255369 20.66028172 -20.25 30.3125 Z " fill="#1B473B" transform="translate(270.25,506.6875)"/>
<path d="M0 0 C7.89167606 5.74069576 12.47998616 12.71928674 15.125 22.1875 C15.125 24.8275 15.125 27.4675 15.125 30.1875 C8.195 30.1875 1.265 30.1875 -5.875 30.1875 C-10.75 20.5625 -10.75 20.5625 -11.875 17.1875 C-14.29883077 16.01796584 -14.29883077 16.01796584 -16.875 15.1875 C-17.535 14.8575 -18.195 14.5275 -18.875 14.1875 C-26.8425712 13.54967606 -34.314826 13.12770643 -40.875 18.1875 C-47.64971215 24.1923585 -49.69121848 33.0354759 -50.26171875 41.8359375 C-50.6406625 52.36425797 -50.05719493 62.8568595 -43.625 71.6875 C-36.62838884 78.0480556 -30.88216551 78.63080636 -21.4609375 78.62109375 C-16.84031605 78.06239116 -13.38992428 76.91201331 -10.265625 73.35546875 C-9.88921875 72.70191406 -9.5128125 72.04835938 -9.125 71.375 C-8.73828125 70.72917969 -8.3515625 70.08335937 -7.953125 69.41796875 C-6.67841975 66.7808068 -5.80125572 63.96626716 -4.875 61.1875 C-10.815 61.1875 -16.755 61.1875 -22.875 61.1875 C-24.36119895 58.21510209 -24.00677009 55.49130422 -24 52.1875 C-24.00257813 50.929375 -24.00515625 49.67125 -24.0078125 48.375 C-23.875 45.1875 -23.875 45.1875 -22.875 43.1875 C-17.19669922 43.16285295 -11.51842931 43.14466538 -5.84008789 43.13256836 C-3.90681415 43.12752744 -1.97354424 43.12069481 -0.0402832 43.11206055 C2.73226872 43.09998435 5.50477041 43.09426943 8.27734375 43.08984375 C9.58202858 43.08210182 9.58202858 43.08210182 10.91307068 43.07420349 C12.98405814 43.07400815 15.05494324 43.12541832 17.125 43.1875 C18.89095555 44.95345555 18.3815267 47.34903985 18.4375 49.75 C18.30248508 63.43151153 14.28762143 78.69019285 5 89.0625 C-4.69118623 97.81237896 -17.01925917 100.71071807 -29.734375 100.43359375 C-43.41807555 99.36136348 -54.54232645 94.52124176 -63.94140625 84.46875 C-76.03459573 70.20122948 -76.99957461 53.11786841 -75.875 35.1875 C-74.30884493 22.79819086 -68.0634113 10.86452979 -58.40234375 2.9375 C-40.97242883 -9.13143645 -18.36110543 -11.3201526 0 0 Z " fill="#1A463A" transform="translate(647.875,376.8125)"/>
<path d="M0 0 C4.90913941 4.40364387 8.56856767 10.31072376 9.97265625 16.76953125 C9.97265625 19.07953125 9.97265625 21.38953125 9.97265625 23.76953125 C2.38265625 23.76953125 -5.20734375 23.76953125 -13.02734375 23.76953125 C-14.67734375 20.79953125 -16.32734375 17.82953125 -18.02734375 14.76953125 C-23.56728876 11.11316754 -29.58297951 11.05025078 -36.02734375 11.76953125 C-40.16262363 13.24641692 -43.03104012 14.77692398 -45.02734375 18.76953125 C-45.69411253 22.22703074 -45.69411253 22.22703074 -45.02734375 25.76953125 C-41.44095972 30.22737309 -38.49240894 31.5805617 -32.96484375 32.76953125 C-31.54553583 33.09489033 -30.12626689 33.42041952 -28.70703125 33.74609375 C-27.14740098 34.08845161 -25.58749159 34.42953977 -24.02734375 34.76953125 C2.17458245 40.53094906 2.17458245 40.53094906 9.8203125 51.62890625 C14.30432269 59.95852518 13.60958879 69.25235184 11.00390625 78.05859375 C7.99011825 85.98120311 2.35529783 90.88210904 -5.02734375 94.76953125 C-20.78937852 101.62163803 -36.97121139 101.3648501 -53.02734375 95.76953125 C-61.00874135 92.00177652 -66.43351889 85.90989654 -69.90234375 77.83203125 C-71.02734375 73.76953125 -71.02734375 73.76953125 -71.02734375 64.76953125 C-63.43734375 64.76953125 -55.84734375 64.76953125 -48.02734375 64.76953125 C-46.70734375 68.06953125 -45.38734375 71.36953125 -44.02734375 74.76953125 C-38.74854994 79.58929951 -33.37895439 79.21080375 -26.4296875 79.203125 C-22.72672961 78.73122107 -20.27865267 77.54854934 -17.02734375 75.76953125 C-16.36734375 75.76953125 -15.70734375 75.76953125 -15.02734375 75.76953125 C-13.53598439 72.78681254 -12.79636377 70.07385152 -12.58984375 66.76953125 C-12.54988281 66.13015625 -12.50992188 65.49078125 -12.46875 64.83203125 C-13.38217544 61.45938349 -15.37434196 59.9552021 -18.02734375 57.76953125 C-21.11776597 56.49006315 -21.11776597 56.49006315 -24.58984375 55.76953125 C-25.22607666 55.61419922 -25.86230957 55.45886719 -26.51782227 55.29882812 C-28.68398759 54.77219515 -30.8550985 54.27046445 -33.02734375 53.76953125 C-35.63152786 53.15654482 -38.23373234 52.53672863 -40.83374023 51.90625 C-42.54433106 51.49229242 -44.25732321 51.08809334 -45.97290039 50.6953125 C-56.41775584 48.18896772 -64.04672899 43.93306379 -69.96484375 34.76953125 C-72.86626943 26.59779437 -72.11507613 17.05441942 -68.58984375 9.26953125 C-63.77422175 0.89845001 -57.04797506 -3.51680376 -47.97265625 -6.44921875 C-31.50514344 -10.81725928 -14.26700369 -10.22770682 0 0 Z " fill="#1C473B" transform="translate(195.02734375,515.23046875)"/>
<path d="M0 0 C23.1 0 46.2 0 70 0 C71.50929383 3.01858766 71.22510073 6.12900954 71.25 9.4375 C71.270625 10.11876953 71.29125 10.80003906 71.3125 11.50195312 C71.35182595 16.52092784 71.35182595 16.52092784 69.7532196 18.69770813 C67.54476078 20.33815178 66.35338778 20.36406924 63.62036133 20.34057617 C62.73967484 20.34034958 61.85898834 20.34012299 60.95161438 20.33988953 C60.00465195 20.32440567 59.05768951 20.30892181 58.08203125 20.29296875 C57.10965012 20.28872391 56.13726898 20.28447906 55.13542175 20.28010559 C52.02750034 20.26330315 48.92022566 20.22564779 45.8125 20.1875 C43.70638957 20.1724552 41.60026898 20.15876644 39.49414062 20.14648438 C34.32897704 20.11594537 29.16521302 20.05722641 24 20 C24 27.59 24 35.18 24 43 C38.19 43 52.38 43 67 43 C67 49.27 67 55.54 67 62 C64.82217319 64.17782681 59.74896922 63.26089916 56.71484375 63.31640625 C55.78402481 63.33718735 54.85320587 63.35796844 53.8941803 63.37937927 C50.90869818 63.44497931 47.92312516 63.50380802 44.9375 63.5625 C42.91861024 63.6056753 40.8997298 63.64928925 38.88085938 63.69335938 C33.92066703 63.80067129 28.96038291 63.90190888 24 64 C24.00785522 65.66554932 24.00785522 65.66554932 24.01586914 67.36474609 C24.03393985 71.47590329 24.04543962 75.58705696 24.05493164 79.69824219 C24.05996711 81.47917267 24.06679581 83.260099 24.07543945 85.04101562 C24.08753942 87.59766665 24.09323609 90.15426312 24.09765625 92.7109375 C24.10281754 93.50994476 24.10797882 94.30895203 24.11329651 95.13217163 C24.11387171 100.77225659 24.11387171 100.77225659 23 103 C19.35418313 103.02887512 15.70839537 103.04675585 12.0625 103.0625 C10.50112305 103.07506836 10.50112305 103.07506836 8.90820312 103.08789062 C7.91884766 103.09111328 6.92949219 103.09433594 5.91015625 103.09765625 C4.53549194 103.10551147 4.53549194 103.10551147 3.13305664 103.11352539 C1 103 1 103 0 102 C-0.09536242 98.83387337 -0.12550636 95.68959372 -0.11352539 92.52319336 C-0.11374443 91.03067802 -0.11374443 91.03067802 -0.1139679 89.50801086 C-0.11326831 86.20193338 -0.10547379 82.89591146 -0.09765625 79.58984375 C-0.09579223 77.30440807 -0.09436825 75.01897199 -0.09336853 72.73353577 C-0.08954207 66.70501613 -0.0797107 60.67652041 -0.06866455 54.64801025 C-0.05665925 47.42188766 -0.0520488 40.19575709 -0.04621124 32.96962738 C-0.03649901 21.97973493 -0.01734334 10.98989501 0 0 Z " fill="#1B473B" transform="translate(340,510)"/>
<path d="M0 0 C26.73 0 53.46 0 81 0 C81 6.27 81 12.54 81 19 C76.61905075 19.62584989 73.02207629 20.12436072 68.72265625 20.09765625 C67.79775391 20.09443359 66.87285156 20.09121094 65.91992188 20.08789062 C64.97697266 20.07951172 64.03402344 20.07113281 63.0625 20.0625 C62.09248047 20.05798828 61.12246094 20.05347656 60.12304688 20.04882812 C57.7486324 20.0371315 55.37434979 20.02074086 53 20 C53.00222061 20.98083557 53.00444122 21.96167114 53.00672913 22.972229 C53.02699506 32.21271983 53.04198882 41.45320614 53.05181217 50.69371414 C53.0570322 55.44441911 53.06411394 60.19510614 53.07543945 64.94580078 C53.08629951 69.52990648 53.09228347 74.11399492 53.09487724 78.69811249 C53.09672585 80.44761171 53.10033568 82.19710998 53.10573006 83.94660187 C53.11298183 86.39573716 53.11398919 88.84480102 53.11352539 91.29394531 C53.11712067 92.01827255 53.12071594 92.74259979 53.12442017 93.48887634 C53.11761982 96.80438355 53.02906662 99.8300046 52 103 C48.35418313 103.02887512 44.70839537 103.04675585 41.0625 103.0625 C39.50112305 103.07506836 39.50112305 103.07506836 37.90820312 103.08789062 C36.42416992 103.09272461 36.42416992 103.09272461 34.91015625 103.09765625 C33.53549194 103.10551147 33.53549194 103.10551147 32.13305664 103.11352539 C30 103 30 103 29 102 C28.87497358 99.44500691 28.81395823 96.91569358 28.79467773 94.35913086 C28.78477814 93.55919205 28.77487854 92.75925323 28.76467896 91.93507385 C28.73297082 89.27836108 28.70826992 86.6216304 28.68359375 83.96484375 C28.66303225 82.12780785 28.642036 80.29077676 28.62062073 78.45375061 C28.56531696 73.60895682 28.51594445 68.76411975 28.46777344 63.91925049 C28.41761889 58.97933075 28.36190134 54.03947417 28.30664062 49.09960938 C28.19895752 39.39979144 28.09804905 29.69992011 28 20 C14.14 19.505 14.14 19.505 0 19 C0 12.73 0 6.46 0 0 Z " fill="#19463A" transform="translate(420,510)"/>
<path d="M0 0 C1.92358398 -0.35644531 1.92358398 -0.35644531 4.24609375 -0.328125 C5.50196289 -0.32039063 5.50196289 -0.32039063 6.78320312 -0.3125 C7.65912109 -0.291875 8.53503906 -0.27125 9.4375 -0.25 C10.30955078 -0.24484375 11.18160156 -0.2396875 12.08007812 -0.234375 C15.68849138 -0.1899979 18.55064777 -0.14978408 22 1 C22 27.73 22 54.46 22 82 C35.86 82 49.72 82 64 82 C64 88.6 64 95.2 64 102 C63 103 63 103 60.45005798 103.12025452 C58.74795921 103.1169236 58.74795921 103.1169236 57.01147461 103.11352539 C55.73022202 103.11344986 54.44896942 103.11337433 53.12889099 103.11329651 C51.72004152 103.10818909 50.31119244 103.10297309 48.90234375 103.09765625 C47.46887766 103.09579202 46.03541093 103.09436814 44.60194397 103.09336853 C40.82240043 103.08954372 37.0428951 103.07971377 33.2633667 103.06866455 C29.40930702 103.05844963 25.55524118 103.05387074 21.70117188 103.04882812 C14.13409713 103.03809146 6.56705391 103.02101549 -1 103 C-1.90031931 100.29904208 -2.1271604 98.74767314 -2.13371277 95.97692871 C-2.13797775 95.16096725 -2.14224274 94.3450058 -2.14663696 93.50431824 C-2.14618378 92.61279556 -2.14573059 91.72127289 -2.14526367 90.80273438 C-2.14862228 89.86101883 -2.1519809 88.91930328 -2.15544128 87.9490509 C-2.1649543 84.83060392 -2.16689444 81.71221059 -2.16796875 78.59375 C-2.1711806 76.43046038 -2.17454462 74.26717099 -2.17805481 72.10388184 C-2.18404661 67.56778459 -2.18589461 63.0317064 -2.18530273 58.49560547 C-2.185201 52.67456886 -2.19886484 46.85365392 -2.21607494 41.03264618 C-2.22717528 36.56491531 -2.22922256 32.09721407 -2.22869301 27.62947083 C-2.22987565 25.48280924 -2.23431324 23.33614696 -2.24202538 21.1894989 C-2.2517875 18.19200017 -2.2489624 15.19476836 -2.24291992 12.19726562 C-2.24853943 11.30574295 -2.25415894 10.41422028 -2.25994873 9.49568176 C-2.25575424 8.67972031 -2.25155975 7.86375885 -2.24723816 7.02307129 C-2.24778293 6.31442177 -2.24832769 5.60577225 -2.24888897 4.8756485 C-2 3 -2 3 0 0 Z " fill="#1D493D" transform="translate(269,372)"/>
<path d="M0 0 C0.89009766 -0.00128906 1.78019531 -0.00257813 2.69726562 -0.00390625 C3.63376953 -0.00003906 4.57027344 0.00382812 5.53515625 0.0078125 C6.46779297 0.00394531 7.40042969 0.00007813 8.36132812 -0.00390625 C9.25271484 -0.00261719 10.14410156 -0.00132812 11.0625 0 C11.88355225 0.00112793 12.70460449 0.00225586 13.55053711 0.00341797 C15.59765625 0.1328125 15.59765625 0.1328125 17.59765625 1.1328125 C17.59765625 27.8628125 17.59765625 54.5928125 17.59765625 82.1328125 C31.78765625 82.1328125 45.97765625 82.1328125 60.59765625 82.1328125 C60.59765625 88.7328125 60.59765625 95.3328125 60.59765625 102.1328125 C58.79503103 103.93543772 56.05388615 103.26049953 53.625 103.26220703 C52.3469751 103.26535919 51.0689502 103.26851135 49.75219727 103.27175903 C48.34651658 103.26996925 46.9408362 103.2679183 45.53515625 103.265625 C44.10408512 103.26629808 42.6730141 103.26726814 41.24194336 103.26852417 C38.23908401 103.27000094 35.23625435 103.26784726 32.23339844 103.26318359 C28.37613054 103.25748631 24.51893221 103.26076542 20.66166687 103.26675606 C17.70552034 103.27036224 14.74939042 103.26922282 11.79324341 103.26662827 C10.37061556 103.26595915 8.94798622 103.26678687 7.52536011 103.26910782 C5.54034451 103.27163524 3.55532366 103.26710292 1.5703125 103.26220703 C-0.12726196 103.26101364 -0.12726196 103.26101364 -1.85913086 103.25979614 C-4.40234375 103.1328125 -4.40234375 103.1328125 -5.40234375 102.1328125 C-5.50302792 99.00257766 -5.53848535 95.8943633 -5.53173828 92.76367188 C-5.5334906 91.78002151 -5.53524292 90.79637115 -5.53704834 89.78291321 C-5.5414688 86.51411197 -5.53852818 83.24536434 -5.53515625 79.9765625 C-5.53582923 77.71594228 -5.53679921 75.45532212 -5.53805542 73.19470215 C-5.53953266 68.44994418 -5.53737701 63.70520501 -5.53271484 58.96044922 C-5.52701755 52.86342626 -5.53029641 46.76644731 -5.53628731 40.66942596 C-5.53989223 35.99932521 -5.53875465 31.32923497 -5.53615952 26.65913391 C-5.53549005 24.41034439 -5.53631933 22.16155393 -5.53863907 19.9127655 C-5.54116446 16.77580212 -5.5373266 13.63891109 -5.53173828 10.50195312 C-5.53376251 9.56269485 -5.53578674 8.62343658 -5.53787231 7.65571594 C-5.5124929 0.00758327 -5.5124929 0.00758327 0 0 Z " fill="#174438" transform="translate(352.40234375,371.8671875)"/>
<path d="M0 0 C1.03042419 0.0241095 1.03042419 0.0241095 2.08166504 0.04870605 C3.75675505 0.09023721 5.43126633 0.15411696 7.10546875 0.22265625 C7.12858996 12.98299495 7.1463827 25.7433287 7.15728092 38.50368404 C7.16251024 44.4281634 7.16960876 50.35262847 7.1809082 56.27709961 C7.19173536 61.98938196 7.19774522 67.70165053 7.20034599 73.41394234 C7.20220055 75.59853902 7.20582175 77.7831349 7.21119881 79.96772575 C7.21840696 83.01617974 7.21945979 86.06457604 7.21899414 89.11303711 C7.22258942 90.02581421 7.22618469 90.93859131 7.22988892 91.87902832 C7.21952091 98.10860409 7.21952091 98.10860409 6.10546875 99.22265625 C4.61675015 99.30935057 3.12402375 99.32969119 1.6328125 99.3203125 C0.73369141 99.31708984 -0.16542969 99.31386719 -1.09179688 99.31054688 C-2.51008789 99.29797852 -2.51008789 99.29797852 -3.95703125 99.28515625 C-4.90642578 99.28064453 -5.85582031 99.27613281 -6.83398438 99.27148438 C-9.1875619 99.25965735 -11.54101602 99.2431765 -13.89453125 99.22265625 C-15.34410581 96.32350714 -15.01386049 93.80837325 -15.00805664 90.56982422 C-15.00820267 89.88678223 -15.00834869 89.20374023 -15.00849915 88.5 C-15.00780148 86.23824915 -15.0000159 83.97658025 -14.9921875 81.71484375 C-14.9903228 80.14828537 -14.98889914 78.58172641 -14.98789978 77.01516724 C-14.98407868 72.88875727 -14.97425185 68.76238241 -14.9631958 64.63598633 C-14.95297295 60.42659988 -14.94840028 56.21720778 -14.94335938 52.0078125 C-14.93262923 43.74607763 -14.91555767 35.4843713 -14.89453125 27.22265625 C-15.72597656 27.65578125 -16.55742188 28.08890625 -17.4140625 28.53515625 C-18.50074219 29.09203125 -19.58742188 29.64890625 -20.70703125 30.22265625 C-21.78597656 30.77953125 -22.86492188 31.33640625 -23.9765625 31.91015625 C-26.89453125 33.22265625 -26.89453125 33.22265625 -29.89453125 33.22265625 C-31.41094263 17.30033678 -31.41094263 17.30033678 -28.08984375 12.75 C-25.45238347 10.96781837 -22.7500094 9.62594129 -19.89453125 8.22265625 C-17.99360845 6.75003594 -16.09790411 5.27065881 -14.20703125 3.78515625 C-9.26923493 0.46982718 -5.9189162 -0.18547456 0 0 Z " fill="#1D493D" transform="translate(641.89453125,513.77734375)"/>
<path d="M0 0 C1.33708008 -0.00193359 1.33708008 -0.00193359 2.70117188 -0.00390625 C3.63380859 -0.00003906 4.56644531 0.00382812 5.52734375 0.0078125 C6.46384766 0.00394531 7.40035156 0.00007813 8.36523438 -0.00390625 C9.70038086 -0.00197266 9.70038086 -0.00197266 11.0625 0 C11.88242432 0.00112793 12.70234863 0.00225586 13.54711914 0.00341797 C15.46484375 0.1328125 15.46484375 0.1328125 16.46484375 1.1328125 C16.56020617 4.29893913 16.59035011 7.44321878 16.57836914 10.60961914 C16.57851517 11.60462936 16.57866119 12.59963959 16.57881165 13.62480164 C16.57811206 16.93087912 16.57031754 20.23690104 16.5625 23.54296875 C16.56063598 25.82840443 16.559212 28.11384051 16.55821228 30.39927673 C16.55438582 36.42779637 16.54455445 42.45629209 16.5335083 48.48480225 C16.52329692 54.63114091 16.51871525 60.77748343 16.51367188 66.92382812 C16.50293229 78.99350012 16.48585435 91.06315432 16.46484375 103.1328125 C12.81902688 103.16168762 9.17323912 103.17956835 5.52734375 103.1953125 C3.9659668 103.20788086 3.9659668 103.20788086 2.37304688 103.22070312 C1.38369141 103.22392578 0.39433594 103.22714844 -0.625 103.23046875 C-1.99966431 103.23832397 -1.99966431 103.23832397 -3.40209961 103.24633789 C-5.53515625 103.1328125 -5.53515625 103.1328125 -6.53515625 102.1328125 C-6.63050583 98.99721364 -6.66066504 95.88367637 -6.64868164 92.74780273 C-6.64882767 91.76254608 -6.64897369 90.77728943 -6.64912415 89.76217651 C-6.64842457 86.48856443 -6.6406301 83.21500846 -6.6328125 79.94140625 C-6.63094848 77.67839082 -6.6295245 75.41537499 -6.62852478 73.15235901 C-6.62469835 67.18302302 -6.614867 61.21371118 -6.6038208 55.24438477 C-6.59360937 49.15836921 -6.58902774 43.07234977 -6.58398438 36.98632812 C-6.57324484 25.03514561 -6.55616693 13.08398106 -6.53515625 1.1328125 C-4.15076916 -0.05938104 -2.65859623 0.00365228 0 0 Z " fill="#17463A" transform="translate(432.53515625,371.8671875)"/>
<path d="M0 0 C6.27 0 12.54 0 19 0 C22.91838007 8.26489668 25.77803367 16.84541613 28.6875 25.5 C29.43292939 27.71249021 30.17960625 29.92452557 30.92988586 32.13537598 C31.39359179 33.50213874 31.8544555 34.86986979 32.31217957 36.23864746 C33.21331776 39.36851102 33.21331776 39.36851102 35 42 C35.41886475 40.7632251 35.83772949 39.5264502 36.26928711 38.25219727 C37.81872875 33.67973509 39.37202588 29.10859066 40.92651367 24.5378418 C41.59977396 22.55643074 42.27197698 20.57466012 42.94311523 18.5925293 C43.90593589 15.74954373 44.87250601 12.90785752 45.83984375 10.06640625 C46.14091537 9.17474258 46.441987 8.28307892 46.75218201 7.36439514 C47.032397 6.54361984 47.312612 5.72284454 47.60131836 4.87719727 C47.97105019 3.78798729 47.97105019 3.78798729 48.34825134 2.67677307 C49 1 49 1 50 0 C51.41570123 -0.08651611 52.835595 -0.10704904 54.25390625 -0.09765625 C55.53491211 -0.09282227 55.53491211 -0.09282227 56.84179688 -0.08789062 C57.73962891 -0.07951172 58.63746094 -0.07113281 59.5625 -0.0625 C60.46419922 -0.05798828 61.36589844 -0.05347656 62.29492188 -0.04882812 C64.53001314 -0.03700225 66.76497437 -0.0205222 69 0 C67.42645844 9.14946681 63.84561842 17.54085769 60.4375 26.125 C59.80450063 27.7325951 59.17209883 29.34042562 58.5402832 30.94848633 C57.28449606 34.14250237 56.02537753 37.33517303 54.76367188 40.52685547 C53.19748514 44.4927592 51.64950153 48.46530927 50.109375 52.44140625 C49.69373291 53.51310059 49.27809082 54.58479492 48.84985352 55.68896484 C48.09128905 57.6458413 47.3339099 59.60317776 46.57788086 61.56103516 C46.08106812 62.83599854 46.08106812 62.83599854 45.57421875 64.13671875 C45.29151123 64.86592529 45.00880371 65.59513184 44.7175293 66.34643555 C44 68 44 68 43 69 C40.13732433 69.07325168 37.299281 69.09238205 34.4375 69.0625 C33.63119141 69.05798828 32.82488281 69.05347656 31.99414062 69.04882812 C29.99606244 69.03700518 27.99802217 69.01906914 26 69 C22.68664173 61.1399258 19.49570661 53.24326211 16.42578125 45.28515625 C16.01587448 44.22638779 15.60596771 43.16761932 15.18363953 42.07676697 C13.89181441 38.73923495 12.60207842 35.40090067 11.3125 32.0625 C10.0117655 28.69927886 8.71059964 25.33622501 7.40922546 21.97325134 C6.6040801 19.8921844 5.79938236 17.8109442 4.99519348 15.72950745 C4.44903633 14.31664711 4.44903633 14.31664711 3.8918457 12.87524414 C3.57383499 12.05206192 3.25582428 11.2288797 2.92817688 10.38075256 C2.27426623 8.70348664 1.5890772 7.03824944 0.88175964 5.38279724 C0 3 0 3 0 0 Z " fill="#1C463B" transform="translate(534,544)"/>
<path d="M0 0 C1.40958984 -0.00193359 1.40958984 -0.00193359 2.84765625 -0.00390625 C3.83636719 -0.00003906 4.82507813 0.00382812 5.84375 0.0078125 C7.32681641 0.00201172 7.32681641 0.00201172 8.83984375 -0.00390625 C9.77957031 -0.00261719 10.71929687 -0.00132812 11.6875 0 C12.55568359 0.00112793 13.42386719 0.00225586 14.31835938 0.00341797 C16.34375 0.1328125 16.34375 0.1328125 17.34375 1.1328125 C17.44443417 4.26304734 17.4798916 7.3712617 17.47314453 10.50195312 C17.47489685 11.48560349 17.47664917 12.46925385 17.47845459 13.48271179 C17.48287505 16.75151303 17.47993443 20.02026066 17.4765625 23.2890625 C17.47723548 25.54968272 17.47820546 27.81030288 17.47946167 30.07092285 C17.48093891 34.81568082 17.47878326 39.56041999 17.47412109 44.30517578 C17.4684238 50.40219874 17.47170266 56.49917769 17.47769356 62.59619904 C17.48129848 67.26629979 17.4801609 71.93639003 17.47756577 76.60649109 C17.4768963 78.85528061 17.47772558 81.10407107 17.48004532 83.3528595 C17.48257071 86.48982288 17.47873285 89.62671391 17.47314453 92.76367188 C17.47516876 93.70293015 17.47719299 94.64218842 17.47927856 95.60990906 C17.45801225 102.01855025 17.45801225 102.01855025 16.34375 103.1328125 C14.79419441 103.23180773 13.24021327 103.26360774 11.6875 103.265625 C10.27791016 103.26755859 10.27791016 103.26755859 8.83984375 103.26953125 C7.35677734 103.26373047 7.35677734 103.26373047 5.84375 103.2578125 C4.85503906 103.26167969 3.86632812 103.26554687 2.84765625 103.26953125 C1.90792969 103.26824219 0.96820313 103.26695312 0 103.265625 C-0.86818359 103.26449707 -1.73636719 103.26336914 -2.63085938 103.26220703 C-4.65625 103.1328125 -4.65625 103.1328125 -5.65625 102.1328125 C-5.75693417 99.00257766 -5.7923916 95.8943633 -5.78564453 92.76367188 C-5.78739685 91.78002151 -5.78914917 90.79637115 -5.79095459 89.78291321 C-5.79537505 86.51411197 -5.79243443 83.24536434 -5.7890625 79.9765625 C-5.78973548 77.71594228 -5.79070546 75.45532212 -5.79196167 73.19470215 C-5.79343891 68.44994418 -5.79128326 63.70520501 -5.78662109 58.96044922 C-5.7809238 52.86342626 -5.78420266 46.76644731 -5.79019356 40.66942596 C-5.79379848 35.99932521 -5.7926609 31.32923497 -5.79006577 26.65913391 C-5.7893963 24.41034439 -5.79022558 22.16155393 -5.79254532 19.9127655 C-5.79507071 16.77580212 -5.79123285 13.63891109 -5.78564453 10.50195312 C-5.78766876 9.56269485 -5.78969299 8.62343658 -5.79177856 7.65571594 C-5.76639884 0.00749161 -5.76639884 0.00749161 0 0 Z " fill="#17463A" transform="translate(227.65625,371.8671875)"/>
<path d="M0 0 C1.33708008 -0.00193359 1.33708008 -0.00193359 2.70117188 -0.00390625 C3.63380859 -0.00003906 4.56644531 0.00382812 5.52734375 0.0078125 C6.46384766 0.00394531 7.40035156 0.00007813 8.36523438 -0.00390625 C9.70038086 -0.00197266 9.70038086 -0.00197266 11.0625 0 C11.88242432 0.00112793 12.70234863 0.00225586 13.54711914 0.00341797 C15.46484375 0.1328125 15.46484375 0.1328125 16.46484375 1.1328125 C16.56020617 4.29893913 16.59035011 7.44321878 16.57836914 10.60961914 C16.57851517 11.60462936 16.57866119 12.59963959 16.57881165 13.62480164 C16.57811206 16.93087912 16.57031754 20.23690104 16.5625 23.54296875 C16.56063598 25.82840443 16.559212 28.11384051 16.55821228 30.39927673 C16.55438582 36.42779637 16.54455445 42.45629209 16.5335083 48.48480225 C16.52329692 54.63114091 16.51871525 60.77748343 16.51367188 66.92382812 C16.50293229 78.99350012 16.48585435 91.06315432 16.46484375 103.1328125 C12.81902688 103.16168762 9.17323912 103.17956835 5.52734375 103.1953125 C3.9659668 103.20788086 3.9659668 103.20788086 2.37304688 103.22070312 C1.38369141 103.22392578 0.39433594 103.22714844 -0.625 103.23046875 C-1.99966431 103.23832397 -1.99966431 103.23832397 -3.40209961 103.24633789 C-5.53515625 103.1328125 -5.53515625 103.1328125 -6.53515625 102.1328125 C-6.63050583 98.99721364 -6.66066504 95.88367637 -6.64868164 92.74780273 C-6.64882767 91.76254608 -6.64897369 90.77728943 -6.64912415 89.76217651 C-6.64842457 86.48856443 -6.6406301 83.21500846 -6.6328125 79.94140625 C-6.63094848 77.67839082 -6.6295245 75.41537499 -6.62852478 73.15235901 C-6.62469835 67.18302302 -6.614867 61.21371118 -6.6038208 55.24438477 C-6.59360937 49.15836921 -6.58902774 43.07234977 -6.58398438 36.98632812 C-6.57324484 25.03514561 -6.55616693 13.08398106 -6.53515625 1.1328125 C-4.15076916 -0.05938104 -2.65859623 0.00365228 0 0 Z M-4.53515625 3.1328125 C-4.53515625 35.4728125 -4.53515625 67.8128125 -4.53515625 101.1328125 C1.73484375 101.1328125 8.00484375 101.1328125 14.46484375 101.1328125 C14.46484375 68.7928125 14.46484375 36.4528125 14.46484375 3.1328125 C8.19484375 3.1328125 1.92484375 3.1328125 -4.53515625 3.1328125 Z " fill="#224034" transform="translate(432.53515625,371.8671875)"/>
<path d="M0 0 C0.89009766 -0.00128906 1.78019531 -0.00257813 2.69726562 -0.00390625 C3.63376953 -0.00003906 4.57027344 0.00382812 5.53515625 0.0078125 C6.46779297 0.00394531 7.40042969 0.00007813 8.36132812 -0.00390625 C9.25271484 -0.00261719 10.14410156 -0.00132812 11.0625 0 C11.88355225 0.00112793 12.70460449 0.00225586 13.55053711 0.00341797 C15.59765625 0.1328125 15.59765625 0.1328125 17.59765625 1.1328125 C17.59765625 27.8628125 17.59765625 54.5928125 17.59765625 82.1328125 C17.26765625 82.1328125 16.93765625 82.1328125 16.59765625 82.1328125 C16.26765625 56.0628125 15.93765625 29.9928125 15.59765625 3.1328125 C9.32765625 3.1328125 3.05765625 3.1328125 -3.40234375 3.1328125 C-3.40234375 35.8028125 -3.40234375 68.4728125 -3.40234375 102.1328125 C17.38765625 102.1328125 38.17765625 102.1328125 59.59765625 102.1328125 C59.59765625 102.4628125 59.59765625 102.7928125 59.59765625 103.1328125 C51.27036678 103.15593934 42.94309062 103.17372933 34.61577702 103.18462467 C30.74945507 103.18985276 26.88315504 103.19694904 23.0168457 103.20825195 C19.28862224 103.2190835 15.56041991 103.2250899 11.83218193 103.22768974 C10.40675969 103.22954351 8.98133866 103.23316321 7.55592537 103.23854256 C5.56602217 103.24575643 3.57609791 103.24622058 1.58618164 103.24633789 C0.45144913 103.2485585 -0.68328339 103.25077911 -1.85240173 103.25306702 C-4.40234375 103.1328125 -4.40234375 103.1328125 -5.40234375 102.1328125 C-5.50302792 99.00257766 -5.53848535 95.8943633 -5.53173828 92.76367188 C-5.5334906 91.78002151 -5.53524292 90.79637115 -5.53704834 89.78291321 C-5.5414688 86.51411197 -5.53852818 83.24536434 -5.53515625 79.9765625 C-5.53582923 77.71594228 -5.53679921 75.45532212 -5.53805542 73.19470215 C-5.53953266 68.44994418 -5.53737701 63.70520501 -5.53271484 58.96044922 C-5.52701755 52.86342626 -5.53029641 46.76644731 -5.53628731 40.66942596 C-5.53989223 35.99932521 -5.53875465 31.32923497 -5.53615952 26.65913391 C-5.53549005 24.41034439 -5.53631933 22.16155393 -5.53863907 19.9127655 C-5.54116446 16.77580212 -5.5373266 13.63891109 -5.53173828 10.50195312 C-5.53376251 9.56269485 -5.53578674 8.62343658 -5.53787231 7.65571594 C-5.5124929 0.00758327 -5.5124929 0.00758327 0 0 Z " fill="#4C695E" transform="translate(352.40234375,371.8671875)"/>
<path d="M0 0 C1.63707413 -0.00956978 1.63707413 -0.00956978 3.30722046 -0.01933289 C5.08994858 -0.02100212 5.08994858 -0.02100212 6.90869141 -0.02270508 C8.12094391 -0.02603348 9.33319641 -0.02936188 10.58218384 -0.03279114 C13.15292988 -0.03786594 15.72368254 -0.04019929 18.29443359 -0.04003906 C22.23627553 -0.04222304 26.17783665 -0.06036634 30.11962891 -0.0793457 C32.61181544 -0.08227995 35.10400332 -0.08426454 37.59619141 -0.08520508 C38.78062836 -0.09239059 39.96506531 -0.09957611 41.18539429 -0.10697937 C42.8319249 -0.10236443 42.8319249 -0.10236443 44.51171875 -0.09765625 C45.4791098 -0.09908127 46.44650085 -0.10050629 47.44320679 -0.10197449 C49.88525391 0.14526367 49.88525391 0.14526367 52.88525391 2.14526367 C51.23525391 2.47526367 49.58525391 2.80526367 47.88525391 3.14526367 C47.88525391 2.81526367 47.88525391 2.48526367 47.88525391 2.14526367 C31.05525391 2.14526367 14.22525391 2.14526367 -3.11474609 2.14526367 C-3.44474609 34.48526367 -3.77474609 66.82526367 -4.11474609 100.14526367 C12.38525391 100.14526367 28.88525391 100.14526367 45.88525391 100.14526367 C45.88525391 100.80526367 45.88525391 101.46526367 45.88525391 102.14526367 C38.6403884 102.17053106 31.39553417 102.18809547 24.15063477 102.20019531 C21.68383357 102.20523723 19.21703538 102.21207058 16.75024414 102.22070312 C13.21320862 102.23277492 9.67621245 102.23849323 6.13916016 102.24291992 C5.0287587 102.24808121 3.91835724 102.25324249 2.77430725 102.25856018 C1.24283302 102.25867348 1.24283302 102.25867348 -0.31958008 102.25878906 C-1.67526344 102.26211998 -1.67526344 102.26211998 -3.05833435 102.26551819 C-5.11474609 102.14526367 -5.11474609 102.14526367 -6.11474609 101.14526367 C-6.21541643 98.04555603 -6.2508891 94.96808696 -6.24414062 91.86791992 C-6.24589294 90.89402313 -6.24764526 89.92012634 -6.24945068 88.91671753 C-6.25387108 85.68038173 -6.25093055 82.44410008 -6.24755859 79.20776367 C-6.24823158 76.96956369 -6.24920156 74.73136379 -6.25045776 72.49316406 C-6.25193499 67.79548448 -6.24977938 63.09782387 -6.24511719 58.40014648 C-6.23941989 52.36365753 -6.24269876 46.32721303 -6.24868965 40.29072571 C-6.25229459 35.66694806 -6.25115699 31.04318104 -6.24856186 26.41940308 C-6.2478924 24.19294225 -6.24872165 21.96648047 -6.25104141 19.74002075 C-6.25356684 16.63419012 -6.24972889 13.52843257 -6.24414062 10.42260742 C-6.24616486 9.49269989 -6.24818909 8.56279236 -6.25027466 7.60470581 C-6.22486932 0.02456818 -6.22486932 0.02456818 0 0 Z " fill="#465A4F" transform="translate(131.11474609375,372.854736328125)"/>
<path d="M0 0 C0.99 0 1.98 0 3 0 C3 23.43 3 46.86 3 71 C23.46 71 43.92 71 65 71 C65 71.99 65 72.98 65 74 C43.88 74 22.76 74 1 74 C-0.16035505 70.51893486 -0.12002704 67.8152767 -0.11352539 64.1418457 C-0.11367142 63.44890411 -0.11381744 62.75596252 -0.1139679 62.04202271 C-0.11327163 59.75324363 -0.1054926 57.4645461 -0.09765625 55.17578125 C-0.09579106 53.58823186 -0.09436763 52.00068189 -0.09336853 50.41313171 C-0.08955134 46.2357728 -0.07972786 42.05844869 -0.06866455 37.88110352 C-0.05843328 33.61800609 -0.05386723 29.35490304 -0.04882812 25.09179688 C-0.03810489 16.72784862 -0.02103803 8.36392864 0 0 Z " fill="#52695F" transform="translate(267,401)"/>
<path d="M0 0 C1.73573296 3.47146591 1.07553625 7.49722902 1.02172852 11.31494141 C1.01212097 12.28083694 1.00251343 13.24673248 0.99261475 14.24189758 C0.9595456 17.44519155 0.91924343 20.64835248 0.87890625 23.8515625 C0.85461287 26.06830369 0.83076893 28.28504985 0.80735779 30.50180054 C0.74443905 36.34458054 0.6753945 42.18727293 0.60510254 48.02996826 C0.53448937 53.98868815 0.46963045 59.9474703 0.40429688 65.90625 C0.27518413 77.60423692 0.13907268 89.30212725 0 101 C6.6 101 13.2 101 20 101 C19.98839844 98.62941406 19.97679687 96.25882812 19.96484375 93.81640625 C19.85315296 63.20247421 20.38237132 32.60687734 21 2 C19.68 2 18.36 2 17 2 C17.33 1.34 17.66 0.68 18 0 C19.32 0.33 20.64 0.66 22 1 C22.0231209 14.15149024 22.04091379 27.30297569 22.05181217 40.45448208 C22.05704156 46.56056369 22.0641402 52.66663144 22.07543945 58.77270508 C22.08626637 64.66005147 22.09227642 70.54738449 22.09487724 76.43474007 C22.09673185 78.68632277 22.10035313 80.93790469 22.10573006 83.18948174 C22.11293789 86.33133427 22.11399105 89.47313083 22.11352539 92.61499023 C22.11712067 93.55581955 22.12071594 94.49664886 22.12442017 95.46598816 C22.11405216 101.88594784 22.11405216 101.88594784 21 103 C19.45044441 103.09899523 17.89646327 103.13079524 16.34375 103.1328125 C14.93416016 103.13474609 14.93416016 103.13474609 13.49609375 103.13671875 C12.01302734 103.13091797 12.01302734 103.13091797 10.5 103.125 C9.51128906 103.12886719 8.52257812 103.13273437 7.50390625 103.13671875 C6.56417969 103.13542969 5.62445313 103.13414062 4.65625 103.1328125 C3.78806641 103.13168457 2.91988281 103.13055664 2.02539062 103.12939453 C0 103 0 103 -1 102 C-1.10068417 98.86976516 -1.1361416 95.7615508 -1.12939453 92.63085938 C-1.13114685 91.64720901 -1.13289917 90.66355865 -1.13470459 89.65010071 C-1.13912505 86.38129947 -1.13618443 83.11255184 -1.1328125 79.84375 C-1.13348548 77.58312978 -1.13445546 75.32250962 -1.13571167 73.06188965 C-1.13718891 68.31713168 -1.13503326 63.57239251 -1.13037109 58.82763672 C-1.1246738 52.73061376 -1.12795266 46.63363481 -1.13394356 40.53661346 C-1.13754848 35.86651271 -1.1364109 31.19642247 -1.13381577 26.52632141 C-1.1331463 24.27753189 -1.13397558 22.02874143 -1.13629532 19.779953 C-1.13882071 16.64298962 -1.13498285 13.50609859 -1.12939453 10.36914062 C-1.13141876 9.42988235 -1.13344299 8.49062408 -1.13552856 7.52290344 C-1.11426225 1.11426225 -1.11426225 1.11426225 0 0 Z " fill="#3B554A" transform="translate(223,372)"/>
<path d="M0 0 C23.1 0 46.2 0 70 0 C70 5.28 70 10.56 70 16 C69.34 16.33 68.68 16.66 68 17 C68 12.05 68 7.1 68 2 C66.04143066 2.00523682 64.08286133 2.01047363 62.06494141 2.01586914 C55.60289137 2.03197665 49.14084607 2.0434768 42.67878151 2.05181217 C38.7598013 2.05703678 34.84084274 2.0641268 30.921875 2.07543945 C27.14177614 2.08628329 23.36169814 2.09228002 19.58158493 2.09487724 C18.13745164 2.09672878 16.69331953 2.10034424 15.2491951 2.10573006 C13.23075723 2.1129602 11.21229847 2.11340823 9.19384766 2.11352539 C7.46843246 2.11685631 7.46843246 2.11685631 5.7081604 2.12025452 C3 2 3 2 1 1 C1 34.33 1 67.66 1 102 C0.67 102 0.34 102 0 102 C0 68.34 0 34.68 0 0 Z " fill="#3C574B" transform="translate(340,510)"/>
<path d="M0 0 C26.73 0 53.46 0 81 0 C81 6.27 81 12.54 81 19 C80.34 19 79.68 19 79 19 C79 13.39 79 7.78 79 2 C53.59 2 28.18 2 2 2 C2 7.28 2 12.56 2 18 C8.6 18 15.2 18 22 18 C22 18.33 22 18.66 22 19 C14.74 19 7.48 19 0 19 C0 12.73 0 6.46 0 0 Z " fill="#1B392C" transform="translate(420,510)"/>
<path d="M0 0 C0.89460937 -0.00128906 1.78921875 -0.00257813 2.7109375 -0.00390625 C3.65195312 -0.00003906 4.59296875 0.00382812 5.5625 0.0078125 C6.97402344 0.00201172 6.97402344 0.00201172 8.4140625 -0.00390625 C9.75597656 -0.00197266 9.75597656 -0.00197266 11.125 0 C11.95128906 0.00112793 12.77757812 0.00225586 13.62890625 0.00341797 C15.5625 0.1328125 15.5625 0.1328125 16.5625 1.1328125 C16.65786242 4.29893913 16.68800636 7.44321878 16.67602539 10.60961914 C16.67617142 11.60462936 16.67631744 12.59963959 16.6764679 13.62480164 C16.67576831 16.93087912 16.66797379 20.23690104 16.66015625 23.54296875 C16.65829223 25.82840443 16.65686825 28.11384051 16.65586853 30.39927673 C16.65204207 36.42779637 16.6422107 42.45629209 16.63116455 48.48480225 C16.62095317 54.63114091 16.6163715 60.77748343 16.61132812 66.92382812 C16.60058854 78.99350181 16.58299071 91.06315143 16.5625 103.1328125 C9.6325 103.1328125 2.7025 103.1328125 -4.4375 103.1328125 C-4.4375 102.8028125 -4.4375 102.4728125 -4.4375 102.1328125 C2.1625 102.1328125 8.7625 102.1328125 15.5625 102.1328125 C15.2325 69.4628125 14.9025 36.7928125 14.5625 3.1328125 C8.9525 3.1328125 3.3425 3.1328125 -2.4375 3.1328125 C-3.0975 2.8028125 -3.7575 2.4728125 -4.4375 2.1328125 C-4.4375 22.2628125 -4.4375 42.3928125 -4.4375 63.1328125 C-5.0975 62.8028125 -5.7575 62.4728125 -6.4375 62.1328125 C-6.3301466 54.19658009 -6.21754389 46.26044725 -6.09816074 38.32438755 C-6.04289835 34.6397106 -5.98947321 30.95502577 -5.94018555 27.27026367 C-5.89259068 23.71703409 -5.84024993 20.16390375 -5.78455925 16.61079216 C-5.7641135 15.25238439 -5.74540415 13.89394938 -5.72842598 12.53549385 C-5.70443123 10.63891545 -5.67379668 8.74242451 -5.64282227 6.84594727 C-5.62727798 5.76450943 -5.6117337 4.68307159 -5.59571838 3.56886292 C-5.3262438 -0.58017243 -3.72536787 0.00508533 0 0 Z " fill="#4E675A" transform="translate(540.4375,371.8671875)"/>
<path d="M0 0 C4.29 0 8.58 0 13 0 C13 32.34 13 64.68 13 98 C6.4 98 -0.2 98 -7 98 C-7 97.67 -7 97.34 -7 97 C-1.06 97 4.88 97 11 97 C10.67 65.65 10.34 34.3 10 2 C6.37 2 2.74 2 -1 2 C-0.67 1.34 -0.34 0.68 0 0 Z " fill="#44574D" transform="translate(636,514)"/>
<path d="M0 0 C1.83884766 0.14888672 1.83884766 0.14888672 3.71484375 0.30078125 C7.0625 0.6875 7.0625 0.6875 11.0625 1.6875 C11.0625 20.4975 11.0625 39.3075 11.0625 58.6875 C10.7325 58.6875 10.4025 58.6875 10.0625 58.6875 C10.0625 40.2075 10.0625 21.7275 10.0625 2.6875 C3.7925 2.6875 -2.4775 2.6875 -8.9375 2.6875 C-8.9375 35.0275 -8.9375 67.3675 -8.9375 100.6875 C-9.2675 100.6875 -9.5975 100.6875 -9.9375 100.6875 C-10.00689468 87.81407914 -10.0602576 74.94070249 -10.09293652 62.06713295 C-10.10861775 56.08993568 -10.12990083 50.11286601 -10.16381836 44.13574219 C-10.19632417 38.37157302 -10.21433448 32.60752688 -10.22213173 26.84327316 C-10.22769105 24.63994789 -10.23854645 22.43662962 -10.25469017 20.23335648 C-10.27634769 17.15623471 -10.27947182 14.07962664 -10.27807617 11.00244141 C-10.288862 10.08390884 -10.29964783 9.16537628 -10.3107605 8.2190094 C-10.30663651 7.38325882 -10.30251251 6.54750824 -10.29826355 5.68643188 C-10.30102893 4.95821543 -10.30379431 4.22999897 -10.30664349 3.47971535 C-9.25201307 -1.64058311 -3.92300698 -0.34166797 0 0 Z " fill="#002617" transform="translate(232.9375,372.3125)"/>
<path d="M0 0 C13.53 0 27.06 0 41 0 C41 6.27 41 12.54 41 19 C40.34 18.34 39.68 17.68 39 17 C39 12.05 39 7.1 39 2 C25.8 2 12.6 2 -1 2 C-0.67 1.34 -0.34 0.68 0 0 Z " fill="#0B3326" transform="translate(292,455)"/>
<path d="M0 0 C13.2 0 26.4 0 40 0 C40 0.33 40 0.66 40 1 C21.19 1.495 21.19 1.495 2 2 C2 6.62 2 11.24 2 16 C7.61 16.33 13.22 16.66 19 17 C18.67 17.99 18.34 18.98 18 20 C18 19.34 18 18.68 18 18 C12.06 18 6.12 18 0 18 C-1.48619895 15.02760209 -1.13177009 12.30380422 -1.125 9 C-1.12757813 7.741875 -1.13015625 6.48375 -1.1328125 5.1875 C-1 2 -1 2 0 0 Z " fill="#63796E" transform="translate(625,420)"/>
<path d="M0 0 C0.33 0 0.66 0 1 0 C1.33 16.5 1.66 33 2 50 C-0.01089898 45.97820203 -1.12462331 43.23634535 -1.12939453 38.81982422 C-1.13254669 37.98240692 -1.13569885 37.14498962 -1.13894653 36.28219604 C-1.13591019 34.93207932 -1.13591019 34.93207932 -1.1328125 33.5546875 C-1.13376923 32.62907013 -1.13472595 31.70345276 -1.13571167 30.74978638 C-1.13639197 28.79461601 -1.13454811 26.83944337 -1.13037109 24.88427734 C-1.12500862 21.87983172 -1.13032737 18.87553478 -1.13671875 15.87109375 C-1.13605818 13.973958 -1.13477746 12.07682235 -1.1328125 10.1796875 C-1.13483673 9.27556122 -1.13686096 8.37143494 -1.13894653 7.43991089 C-1.1149579 1.1149579 -1.1149579 1.1149579 0 0 Z " fill="#214335" transform="translate(45,241)"/>
<path d="M0 0 C2.89640118 -0.08120751 5.79050912 -0.14059421 8.6875 -0.1875 C9.50412109 -0.21263672 10.32074219 -0.23777344 11.16210938 -0.26367188 C15.92864679 -0.32156504 19.165916 -0.17510081 23 3 C24.3125 5.6875 24.3125 5.6875 25 8 C22.5 6.625 22.5 6.625 20 5 C20 4.34 20 3.68 20 3 C14.06 3 8.12 3 2 3 C2 4.98 2 6.96 2 9 C0.12379578 5.83390538 -0.09662822 3.64167599 0 0 Z " fill="#435D51" transform="translate(472,372)"/>
<path d="M0 0 C-1.51968265 3.86828312 -3.79802729 5.43842183 -7 8 C-8.83730745 9.99075291 -10.59913392 12.03201079 -12.3515625 14.09765625 C-13.83728192 15.81221871 -15.37451089 17.41884241 -17 19 C-17.66 18.67 -18.32 18.34 -19 18 C-15.375 11.125 -15.375 11.125 -12 10 C-11.30902516 8.67910031 -10.64499766 7.34394949 -10 6 C-8.37890625 4.296875 -8.37890625 4.296875 -6.5625 2.75 C-5.66724609 1.96882812 -5.66724609 1.96882812 -4.75390625 1.171875 C-3 0 -3 0 0 0 Z " fill="#284B3E" transform="translate(156,203)"/>
<path d="M0 0 C1.12067871 0.01047363 2.24135742 0.02094727 3.39599609 0.03173828 C5.21357422 0.04140625 5.21357422 0.04140625 7.06787109 0.05126953 C8.33888672 0.06802734 9.60990234 0.08478516 10.91943359 0.10205078 C12.19818359 0.11107422 13.47693359 0.12009766 14.79443359 0.12939453 C17.96128526 0.15302775 21.12776783 0.18597449 24.29443359 0.22705078 C24.29443359 1.21705078 24.29443359 2.20705078 24.29443359 3.22705078 C15.71443359 3.22705078 7.13443359 3.22705078 -1.70556641 3.22705078 C-1.70556641 5.20705078 -1.70556641 7.18705078 -1.70556641 9.22705078 C-2.03556641 9.22705078 -2.36556641 9.22705078 -2.70556641 9.22705078 C-3.36556641 6.91705078 -4.02556641 4.60705078 -4.70556641 2.22705078 C-2.70556641 0.22705078 -2.70556641 0.22705078 0 0 Z " fill="#355047" transform="translate(474.70556640625,526.77294921875)"/>
<path d="M0 0 C1.43353914 2.86707829 0.29490637 4.75132822 -0.49755859 7.71289062 C-1.34034478 11.5492468 -1.33800657 15.33593721 -1.3125 19.25 C-1.31121094 20.07540283 -1.30992187 20.90080566 -1.30859375 21.7512207 C-1.20383927 28.46270903 -0.13979167 34.61883556 2 41 C1.01 41.495 1.01 41.495 0 42 C0 40.35 0 38.7 0 37 C-0.66 37 -1.32 37 -2 37 C-3.73595923 30.38165545 -4.21847246 24.12047897 -4.25 17.3125 C-4.25902344 16.50514404 -4.26804687 15.69778809 -4.27734375 14.8659668 C-4.25279147 9.88441214 -3.74394509 5.68531727 -2 1 C-1.34 0.67 -0.68 0.34 0 0 Z " fill="#536C60" transform="translate(599,404)"/>
<path d="M0 0 C0.33 0 0.66 0 1 0 C1.02553673 6.63451304 1.04294467 13.26901321 1.05493164 19.90356445 C1.0599335 22.15649896 1.0667371 24.40943026 1.07543945 26.66235352 C1.0876879 29.91683751 1.09326994 33.17127826 1.09765625 36.42578125 C1.10281754 37.41894852 1.10797882 38.41211578 1.11329651 39.43537903 C1.11381359 46.00858228 0.70377799 52.46500419 0 59 C-0.33 59 -0.66 59 -1 59 C-1.33 53.72 -1.66 48.44 -2 43 C-1.67 43 -1.34 43 -1 43 C-0.67 28.81 -0.34 14.62 0 0 Z " fill="#4E685C" transform="translate(380,54)"/>
<path d="M0 0 C0.33 0 0.66 0 1 0 C1.0809723 2.43816585 1.14046972 4.87364384 1.1875 7.3125 C1.21263672 8.00279297 1.23777344 8.69308594 1.26367188 9.40429688 C1.30559544 12.29702262 1.33188199 14.45623245 -0.19921875 16.96484375 C-2.58907983 18.33862506 -4.25594344 18.33166835 -7 18.25 C-7.86625 18.23453125 -8.7325 18.2190625 -9.625 18.203125 C-12 18 -12 18 -15 17 C-17.39254576 16.77439324 -19.78928123 16.59151405 -22.1875 16.4375 C-23.45980469 16.35371094 -24.73210937 16.26992188 -26.04296875 16.18359375 C-27.01878906 16.12300781 -27.99460937 16.06242188 -29 16 C-29 15.67 -29 15.34 -29 15 C-19.76 14.67 -10.52 14.34 -1 14 C-0.67 9.38 -0.34 4.76 0 0 Z " fill="#425F54" transform="translate(410,512)"/>
<path d="M0 0 C6.6 0 13.2 0 20 0 C19.67 0.99 19.34 1.98 19 3 C16.20826945 3.02690104 13.41679652 3.04679053 10.625 3.0625 C9.43390625 3.07506836 9.43390625 3.07506836 8.21875 3.08789062 C2.2265625 3.11328125 2.2265625 3.11328125 0 2 C0 1.34 0 0.68 0 0 Z " fill="#4E665B" transform="translate(536,372)"/>
<path d="M0 0 C0.66 0 1.32 0 2 0 C1.41034721 4.6636175 -0.61259333 8.33672572 -2.875 12.375 C-5.53294025 17.16513408 -7.91683486 21.92965466 -10 27 C-10.66 26.01 -11.32 25.02 -12 24 C-11.34 24 -10.68 24 -10 24 C-9.90847656 22.98808594 -9.81695312 21.97617187 -9.72265625 20.93359375 C-8.94191098 16.68380732 -7.56091387 13.80742992 -5.4375 10.0625 C-4.79683594 8.91910156 -4.15617187 7.77570313 -3.49609375 6.59765625 C-3.00238281 5.74042969 -2.50867188 4.88320313 -2 4 C-1.34 4 -0.68 4 0 4 C0 2.68 0 1.36 0 0 Z " fill="#3A5649" transform="translate(76,376)"/>
<path d="M0 0 C0.66 0 1.32 0 2 0 C2.33 8.91 2.66 17.82 3 27 C-0.09416181 22.87445092 -0.37238817 22.34329024 -0.29296875 17.578125 C-0.28330078 16.55332031 -0.27363281 15.52851563 -0.26367188 14.47265625 C-0.23853516 13.40917969 -0.21339844 12.34570312 -0.1875 11.25 C-0.17396484 10.17105469 -0.16042969 9.09210938 -0.14648438 7.98046875 C-0.11116584 5.3198058 -0.06184199 2.66015704 0 0 Z " fill="#284437" transform="translate(572,412)"/>
<path d="M0 0 C1.09964408 3.35716883 0.88421538 5.75499861 0.22265625 9.203125 C-0.05288086 10.67265625 -0.05288086 10.67265625 -0.33398438 12.171875 C-0.53314453 13.18765625 -0.73230469 14.2034375 -0.9375 15.25 C-1.13279297 16.28125 -1.32808594 17.3125 -1.52929688 18.375 C-2.01203382 20.91819952 -2.50252017 23.45965046 -3 26 C-3.99 26.33 -4.98 26.66 -6 27 C-5.37547911 20.79786153 -4.0842258 15.00570586 -2.4375 9 C-2.20353516 8.12988281 -1.96957031 7.25976562 -1.72851562 6.36328125 C-1.15709256 4.24085272 -0.58085043 2.11986406 0 0 Z " fill="#425D50" transform="translate(10,440)"/>
<path d="M0 0 C0.66 0.33 1.32 0.66 2 1 C0.63125844 7.95776959 -1.4533129 14.38603107 -4 21 C-4.66 21 -5.32 21 -6 21 C-6.33 21.99 -6.66 22.98 -7 24 C-6.40531984 18.33171945 -4.90757199 13.39677846 -2.9375 8.0625 C-2.65583984 7.28326172 -2.37417969 6.50402344 -2.08398438 5.70117188 C-1.39532294 3.79859875 -0.69850097 1.89898275 0 0 Z " fill="#3E5A4E" transform="translate(18,416)"/>
<path d="M0 0 C0.66 0 1.32 0 2 0 C0.44308186 4.8561018 -2.35517009 8.33318342 -5.5 12.25 C-6.24830078 13.20519531 -6.24830078 13.20519531 -7.01171875 14.1796875 C-10.73010362 18.86505181 -10.73010362 18.86505181 -13 20 C-12.40312566 16.65750371 -11.26396123 14.53563658 -9 12 C-8.34 12 -7.68 12 -7 12 C-6.89558594 11.42765625 -6.79117187 10.8553125 -6.68359375 10.265625 C-5.88840501 7.63014232 -4.72098509 5.93968692 -3.0625 3.75 C-2.53785156 3.04359375 -2.01320313 2.3371875 -1.47265625 1.609375 C-0.98667969 1.07828125 -0.50070312 0.5471875 0 0 Z " fill="#3F594C" transform="translate(332,242)"/>
<path d="M0 0 C2.84303439 2.84303439 2.90504775 6.12886982 3 10 C2.67 11.32 2.34 12.64 2 14 C-5.26 14 -12.52 14 -20 14 C-20 13.67 -20 13.34 -20 13 C-10.1 12.505 -10.1 12.505 0 12 C0 8.04 0 4.08 0 0 Z " fill="#4B685D" transform="translate(470,599)"/>
<path d="M0 0 C0.99 0.33 1.98 0.66 3 1 C2.60167969 1.42667969 2.20335937 1.85335937 1.79296875 2.29296875 C-3.28853131 8.2893861 -4.67200013 14.35817618 -6 22 C-6.33 22 -6.66 22 -7 22 C-7.19491452 20.54263913 -7.38069358 19.08405407 -7.5625 17.625 C-7.66691406 16.81289063 -7.77132812 16.00078125 -7.87890625 15.1640625 C-8 13 -8 13 -7 11 C-6.71382812 10.39285156 -6.42765625 9.78570313 -6.1328125 9.16015625 C-5.80023438 8.46792969 -5.46765625 7.77570312 -5.125 7.0625 C-4.63386719 6.02802734 -4.63386719 6.02802734 -4.1328125 4.97265625 C-2.97303151 2.95303762 -1.7141651 1.56233905 0 0 Z " fill="#415D51" transform="translate(251,533)"/>
<path d="M0 0 C0.77923828 0.01804687 1.55847656 0.03609375 2.36132812 0.0546875 C4.26226131 0.10133617 6.16255169 0.17306171 8.0625 0.25 C8.3925 1.24 8.7225 2.23 9.0625 3.25 C8.0003125 3.20359375 6.938125 3.1571875 5.84375 3.109375 C-2.13934611 2.86691982 -8.0536308 2.70664633 -14.9375 7.25 C-15.9275 7.745 -15.9275 7.745 -16.9375 8.25 C-16.875 6.5 -16.875 6.5 -15.9375 4.25 C-10.48779387 0.38979149 -6.57826948 -0.29311912 0 0 Z " fill="#536B60" transform="translate(621.9375,387.75)"/>
<path d="M0 0 C0.33 0 0.66 0 1 0 C1 6.27 1 12.54 1 19 C0.67 18.34 0.34 17.68 0 17 C-0.66 17 -1.32 17 -2 17 C-2.05383848 14.54137599 -2.09359038 12.0839245 -2.125 9.625 C-2.14175781 8.92632813 -2.15851563 8.22765625 -2.17578125 7.5078125 C-2.19344267 5.67102514 -2.10303261 3.83398037 -2 2 C-1.34 1.34 -0.68 0.68 0 0 Z " fill="#2F4D3F" transform="translate(126,529)"/>
<path d="M0 0 C0.8971875 0.309375 0.8971875 0.309375 1.8125 0.625 C-4.17879757 5.00887627 -9.61883078 6.99420338 -17.1875 6.625 C-17.1875 5.965 -17.1875 5.305 -17.1875 4.625 C-16.35605469 4.43164062 -15.52460938 4.23828125 -14.66796875 4.0390625 C-13.58128906 3.77867187 -12.49460938 3.51828125 -11.375 3.25 C-10.29605469 2.99476563 -9.21710938 2.73953125 -8.10546875 2.4765625 C-4.97452239 1.56284589 -3.21609911 -0.55133128 0 0 Z " fill="#284539" transform="translate(194.1875,467.375)"/>
<path d="M0 0 C0.66 0.99 1.32 1.98 2 3 C0.57282151 4.67551353 -0.86708482 6.34019309 -2.3125 8 C-3.51326172 9.3921875 -3.51326172 9.3921875 -4.73828125 10.8125 C-7 13 -7 13 -10 13 C-8.48446596 9.52224821 -6.4226544 7.0442016 -3.875 4.25 C-3.15054688 3.45078125 -2.42609375 2.6515625 -1.6796875 1.828125 C-0.84824219 0.92320313 -0.84824219 0.92320313 0 0 Z " fill="#3F5B4F" transform="translate(99,122)"/>
<path d="M0 0 C1.67542976 0.28604898 3.34385343 0.61781233 5 1 C4.13955078 1.29003906 4.13955078 1.29003906 3.26171875 1.5859375 C0.07472633 3.5784958 -1.37274584 6.43811464 -3.1875 9.625 C-4.43329188 11.7683951 -5.70020232 13.88820057 -7 16 C-7.33 16 -7.66 16 -8 16 C-8.44937662 11.45721094 -7.25024803 9.36250641 -4.5625 5.75 C-3.92441406 4.87859375 -3.28632812 4.0071875 -2.62890625 3.109375 C-1 1 -1 1 0 0 Z " fill="#415D52" transform="translate(92,351)"/>
<path d="M0 0 C0.33 0.66 0.66 1.32 1 2 C-0.02675488 4.7301677 -1.11356512 7.34703772 -2.3125 10 C-2.63412109 10.73734375 -2.95574219 11.4746875 -3.28710938 12.234375 C-5.72829433 17.72829433 -5.72829433 17.72829433 -8 20 C-8.33 19.01 -8.66 18.02 -9 17 C-8.67 16.34 -8.34 15.68 -8 15 C-7.34 15 -6.68 15 -6 15 C-5.87625 13.9275 -5.7525 12.855 -5.625 11.75 C-5.10356064 8.62136385 -4.59911746 6.66519576 -3 4 C-2.34 4 -1.68 4 -1 4 C-1.33 3.01 -1.66 2.02 -2 1 C-1.34 0.67 -0.68 0.34 0 0 Z " fill="#415C4F" transform="translate(359,193)"/>
<path d="M0 0 C2.89549088 0.89622337 5.07872153 2.18027021 7.625 3.8125 C8.95108822 4.49346422 10.28186601 5.16580586 11.625 5.8125 C10.635 6.8025 9.645 7.7925 8.625 8.8125 C7.985625 8.214375 7.34625 7.61625 6.6875 7 C2.87959354 4.28006681 -0.91454137 3.09524627 -5.375 1.8125 C-2.375 -0.1875 -2.375 -0.1875 0 0 Z " fill="#2D4D41" transform="translate(281.375,526.1875)"/>
<path d="M0 0 C0.99 0.33 1.98 0.66 3 1 C1.05463044 4.69620217 -0.25715094 6.25333711 -4 8 C-4.33 8.99 -4.66 9.98 -5 11 C-5.99 11 -6.98 11 -8 11 C-6.63629701 8.00779732 -5.05091917 5.70973471 -2.875 3.25 C-2.33617187 2.63640625 -1.79734375 2.0228125 -1.2421875 1.390625 C-0.62730469 0.70226562 -0.62730469 0.70226562 0 0 Z " fill="#365448" transform="translate(132,224)"/>
<path d="M0 0 C0.33 0 0.66 0 1 0 C1.86438774 5.61852028 -0.36764976 8.68268373 -3.39453125 13.14453125 C-5 15 -5 15 -8 16 C-6.57250019 12.20950293 -4.83763458 8.72877544 -2.875 5.1875 C-2.33617187 4.21167969 -1.79734375 3.23585937 -1.2421875 2.23046875 C-0.83226562 1.49441406 -0.42234375 0.75835937 0 0 Z " fill="#3B574B" transform="translate(313,202)"/>
<path d="M0 0 C1.72960338 2.60383927 2.02558219 3.7880333 1.64453125 6.9453125 C1.36996094 7.99460938 1.09539063 9.04390625 0.8125 10.125 C0.55082031 11.17945313 0.28914063 12.23390625 0.01953125 13.3203125 C-1 16 -1 16 -4 18 C-3.41632611 11.69632197 -1.95928381 6.01339937 0 0 Z " fill="#3A564A" transform="translate(53,196)"/>
<path d="M0 0 C0.66 0.33 1.32 0.66 2 1 C1.67 1.66 1.34 2.32 1 3 C0.34 3 -0.32 3 -1 3 C-1.226875 3.639375 -1.45375 4.27875 -1.6875 4.9375 C-3 7 -3 7 -5.4375 7.6875 C-6.283125 7.790625 -7.12875 7.89375 -8 8 C-8.99 8.33 -9.98 8.66 -11 9 C-11.66 8.34 -12.32 7.68 -13 7 C-10.88002166 5.80266012 -8.75486324 4.61701287 -6.625 3.4375 C-6.02171875 3.09525391 -5.4184375 2.75300781 -4.796875 2.40039062 C-3.23021759 1.53872905 -1.61709138 0.76281817 0 0 Z " fill="#3A574B" transform="translate(245,274)"/>
<path d="M0 0 C0.66 0.33 1.32 0.66 2 1 C0.90653119 2.34212062 -0.2001575 3.67347975 -1.3125 5 C-2.23482422 6.11375 -2.23482422 6.11375 -3.17578125 7.25 C-5 9 -5 9 -8 9 C-8 8.01 -8 7.02 -8 6 C-6.25 4.39453125 -6.25 4.39453125 -4 2.8125 C-3.2575 2.28269531 -2.515 1.75289062 -1.75 1.20703125 C-1.1725 0.80871094 -0.595 0.41039062 0 0 Z " fill="#3A594D" transform="translate(139,512)"/>
<path d="M0 0 C0.99 0.33 1.98 0.66 3 1 C3.02694851 2.95825873 3.04637218 4.91662226 3.0625 6.875 C3.07410156 7.96554687 3.08570313 9.05609375 3.09765625 10.1796875 C3 13 3 13 2 15 C1.34 15 0.68 15 0 15 C0 15.66 0 16.32 0 17 C-1.32 16.67 -2.64 16.34 -4 16 C-3.525625 15.566875 -3.05125 15.13375 -2.5625 14.6875 C0.2348088 11.6664065 0.11334674 8.72769873 0.0625 4.8125 C0.05347656 3.91144531 0.04445312 3.01039063 0.03515625 2.08203125 C0.02355469 1.39496094 0.01195312 0.70789063 0 0 Z " fill="#446257" transform="translate(180,437)"/>
<path d="M0 0 C3.35376875 5.97845733 2.08347497 12.49915021 1 19 C0.34 18.67 -0.32 18.34 -1 18 C-1.09706112 11.88514973 -0.77040851 6.06696699 0 0 Z " fill="#315043" transform="translate(377,109)"/>
<path d="M0 0 C2.2962941 3.44444116 2.40265495 5.29377752 2.6875 9.375 C2.77386719 10.49648438 2.86023438 11.61796875 2.94921875 12.7734375 C2.99554818 15.71713814 2.70849575 18.15536291 2 21 C-0.71486934 17.02389214 -0.22440753 12.86098023 -0.125 8.25 C-0.11597656 7.45722656 -0.10695312 6.66445313 -0.09765625 5.84765625 C-0.07417012 3.89830719 -0.03830137 1.94911425 0 0 Z " fill="#4A6054" transform="translate(205,569)"/>
<path d="M0 0 C3.39948814 0.69142132 6.49819384 1.3831545 9.6875 2.75 C10.0175 3.74 10.3475 4.73 10.6875 5.75 C2.2725 3.77 2.2725 3.77 -6.3125 1.75 C-3.3125 -0.25 -3.3125 -0.25 0 0 Z " fill="#395649" transform="translate(168.3125,567.25)"/>
<path d="M0 0 C1.86978516 0.11794922 1.86978516 0.11794922 3.77734375 0.23828125 C7.0625 0.6875 7.0625 0.6875 10.0625 2.6875 C4.1225 2.6875 -1.8175 2.6875 -7.9375 2.6875 C-8.2675 2.0275 -8.5975 1.3675 -8.9375 0.6875 C-5.93056994 -0.81596503 -3.32624937 -0.22998835 0 0 Z " fill="#123528" transform="translate(232.9375,372.3125)"/>
<path d="M0 0 C0.33 0.66 0.66 1.32 1 2 C0.09239638 4.59732225 -0.87067892 7.09450975 -1.9375 9.625 C-2.22818359 10.33140625 -2.51886719 11.0378125 -2.81835938 11.765625 C-3.53867488 13.51327573 -4.26845694 15.25701915 -5 17 C-5.66 16.01 -6.32 15.02 -7 14 C-6.34 14 -5.68 14 -5 14 C-4.87625 12.783125 -4.7525 11.56625 -4.625 10.3125 C-4.20016812 6.93777914 -3.57389274 4.05520355 -2 1 C-1.34 0.67 -0.68 0.34 0 0 Z " fill="#435C50" transform="translate(588,582)"/>
<path d="M0 0 C4.84659077 0.59104765 8.60748167 1.97944157 13 4 C13 4.66 13 5.32 13 6 C13.99 6.33 14.98 6.66 16 7 C9.68368172 6.59683075 5.35006016 4.28767869 0 1 C0 0.67 0 0.34 0 0 Z " fill="#3D594C" transform="translate(593,468)"/>
<path d="M0 0 C1.32435978 3.97307934 0.18129186 6.80974568 -0.9375 10.6875 C-1.13279297 11.38939453 -1.32808594 12.09128906 -1.52929688 12.81445312 C-2.01199136 14.54508944 -2.50500846 16.27284066 -3 18 C-4.79570284 15.33874255 -5.03345719 14.21888938 -4.5390625 10.984375 C-4.23742188 9.91703125 -3.93578125 8.8496875 -3.625 7.75 C-3.32851563 6.67234375 -3.03203125 5.5946875 -2.7265625 4.484375 C-2.48679688 3.66453125 -2.24703125 2.8446875 -2 2 C-1.34 2 -0.68 2 0 2 C0 1.34 0 0.68 0 0 Z " fill="#395548" transform="translate(45,455)"/>
<path d="M0 0 C1.00271664 3.15139514 1.05537349 3.8542803 -0.1875 7.125 C-1.99400788 9.99049526 -2.86809018 10.9200311 -6 12 C-5.54300722 6.97307937 -3.00758252 3.85103739 0 0 Z " fill="#2F4E42" transform="translate(304,218)"/>
<path d="M0 0 C0.68359375 1.640625 0.68359375 1.640625 1 4 C-0.21484375 6.796875 -0.21484375 6.796875 -1.9375 9.75 C-2.50339844 10.73484375 -3.06929688 11.7196875 -3.65234375 12.734375 C-4.09707031 13.48203125 -4.54179688 14.2296875 -5 15 C-5.33 15 -5.66 15 -6 15 C-5.61471495 8.83543922 -3.52913975 5.01372252 0 0 Z " fill="#3D594C" transform="translate(105,174)"/>
<path d="M0 0 C1.90747183 2.86120775 3.00353706 5.35254993 4.1875 8.5625 C4.55230469 9.53316406 4.91710937 10.50382813 5.29296875 11.50390625 C6 14 6 14 5 16 C4.34 15.67 3.68 15.34 3 15 C2.47719738 13.006815 1.96062865 11.01111634 1.51171875 9 C1.04977835 6.88633227 1.04977835 6.88633227 -0.1875 4.6875 C-1 3 -1 3 0 0 Z " fill="#456054" transform="translate(555,550)"/>
<path d="M0 0 C1.84790538 3.31016094 2.74541487 6.57173491 3.625 10.25 C3.88539063 11.32765625 4.14578125 12.4053125 4.4140625 13.515625 C4.60742188 14.33546875 4.80078125 15.1553125 5 16 C4.34 16.33 3.68 16.66 3 17 C3 15.35 3 13.7 3 12 C2.34 12 1.68 12 1 12 C0.63762737 10.37681021 0.28534843 8.7513642 -0.0625 7.125 C-0.25972656 6.22007812 -0.45695313 5.31515625 -0.66015625 4.3828125 C-1 2 -1 2 0 0 Z " fill="#3D594C" transform="translate(596,429)"/>
<path d="M0 0 C1.10546875 1.67578125 1.10546875 1.67578125 2 4 C1.42578125 6.54296875 1.42578125 6.54296875 0.3125 9.1875 C-0.21923828 10.50814453 -0.21923828 10.50814453 -0.76171875 11.85546875 C-2 14 -2 14 -5 15 C-1.92482916 4.44191344 -1.92482916 4.44191344 0 0 Z " fill="#3F5B4E" transform="translate(24,400)"/>
<path d="M0 0 C-1.2824977 2.86095641 -2.45343989 5.11365918 -5 7 C-7.6875 7.1875 -7.6875 7.1875 -10 7 C-4.65789474 0 -4.65789474 0 0 0 Z " fill="#38574B" transform="translate(156,203)"/>
<path d="M0 0 C0.66 1.32 1.32 2.64 2 4 C1.34 4.66 0.68 5.32 0 6 C-0.57510868 8.32173505 -0.9509944 10.64438348 -1.33984375 13.00390625 C-1.55769531 13.66261719 -1.77554688 14.32132813 -2 15 C-2.99 15.33 -3.98 15.66 -5 16 C-4.54548816 14.26982492 -4.08621143 12.54090123 -3.625 10.8125 C-3.36976563 9.84957031 -3.11453125 8.88664063 -2.8515625 7.89453125 C-2.05233704 5.17789793 -1.0968638 2.60862825 0 0 Z " fill="#526B5F" transform="translate(582,548)"/>
<path d="M0 0 C1.35304209 4.05912626 0.15216503 5.77149591 -1.4375 9.6875 C-1.91058594 10.86699219 -2.38367188 12.04648437 -2.87109375 13.26171875 C-3.24363281 14.16535156 -3.61617187 15.06898438 -4 16 C-4.66 14.68 -5.32 13.36 -6 12 C-5.34 12 -4.68 12 -4 12 C-3.87625 10.741875 -3.7525 9.48375 -3.625 8.1875 C-3.28511178 4.73196973 -2.56683697 2.56683697 0 0 Z " fill="#486256" transform="translate(600,550)"/>
<path d="M0 0 C0.33 0 0.66 0 1 0 C1.76173392 4.3164922 2.16063604 7.74433453 1 12 C0.34 12 -0.32 12 -1 12 C-1 14.31 -1 16.62 -1 19 C-1.33 19 -1.66 19 -2 19 C-2.24794402 12.4294834 -1.32388229 6.43028541 0 0 Z " fill="#486355" transform="translate(3,468)"/>
<path d="M0 0 C-1.5552912 0.70365602 -3.11964827 1.38729378 -4.6875 2.0625 C-5.55761719 2.44535156 -6.42773438 2.82820313 -7.32421875 3.22265625 C-10.32213864 4.0935848 -12.03280153 3.85006226 -15 3 C-10.19452297 0.30893287 -5.40072745 -1.66996178 0 0 Z " fill="#3B5549" transform="translate(193,298)"/>
<path d="M0 0 C0.33 0 0.66 0 1 0 C1.91397824 5.68697571 1.91397824 10.31302429 1 16 C0.34 15.67 -0.32 15.34 -1 15 C-1.10251672 9.87416389 -1.03590199 5.05002222 0 0 Z " fill="#375548" transform="translate(46,226)"/>
<path d="M0 0 C1 2 1 2 0.22265625 4.8203125 C-0.16019531 5.91085938 -0.54304688 7.00140625 -0.9375 8.125 C-1.31777344 9.22070312 -1.69804688 10.31640625 -2.08984375 11.4453125 C-2.39019531 12.28835937 -2.69054687 13.13140625 -3 14 C-3.33 14 -3.66 14 -4 14 C-4.19188324 9.20291909 -3.9022844 5.43866361 -2 1 C-1.34 0.67 -0.68 0.34 0 0 Z " fill="#4D6559" transform="translate(93,200)"/>
<path d="M0 0 C2.31 0 4.62 0 7 0 C4.20083611 1.86610926 2.18061731 2.68785383 -1 3.625 C-2.299375 4.01558594 -2.299375 4.01558594 -3.625 4.4140625 C-6 5 -6 5 -9 5 C-9 4.34 -9 3.68 -9 3 C-3.375 0.875 -3.375 0.875 0 2 C0 1.34 0 0.68 0 0 Z " fill="#486054" transform="translate(247,81)"/>
<path d="M0 0 C0.66 0.33 1.32 0.66 2 1 C-1.07074703 4.55560182 -4.64410445 5.54803482 -9 7 C-9.66 6.34 -10.32 5.68 -11 5 C-9.21289414 4.13633178 -7.4201535 3.28431406 -5.625 2.4375 C-4.62726563 1.96183594 -3.62953125 1.48617188 -2.6015625 0.99609375 C-1.74304688 0.66738281 -0.88453125 0.33867188 0 0 Z " fill="#405B4F" transform="translate(356,3)"/>
<path d="M0 0 C0.66 0.99 1.32 1.98 2 3 C2.8353125 4.2065625 2.8353125 4.2065625 3.6875 5.4375 C5.19202887 8.37491351 4.95017022 8.99644179 4 12 C3.13058506 10.76055724 2.27994543 9.50792941 1.4375 8.25 C0.96183594 7.55390625 0.48617187 6.8578125 -0.00390625 6.140625 C-1 4 -1 4 -0.65234375 1.734375 C-0.43707031 1.16203125 -0.22179687 0.5896875 0 0 Z " fill="#335043" transform="translate(127,591)"/>
<path d="M0 0 C1.65 0 3.3 0 5 0 C5 2.97 5 5.94 5 9 C4.01 9.33 3.02 9.66 2 10 C2.33 7.36 2.66 4.72 3 2 C2.01 2 1.02 2 0 2 C0 1.34 0 0.68 0 0 Z " fill="#2B473A" transform="translate(265,126)"/>
<path d="M0 0 C0.66 0.33 1.32 0.66 2 1 C-1.49087093 5.0042343 -3.64951939 6.62671065 -9 7 C-6.3765992 4.08511023 -3.28183606 2.11496102 0 0 Z " fill="#375448" transform="translate(628,518)"/>
<path d="M0 0 C0.66 0 1.32 0 2 0 C0.54955729 4.10958767 -1.51110752 7.43258745 -4 11 C-4.64453125 9.234375 -4.64453125 9.234375 -5 7 C-4.07421875 5.078125 -4.07421875 5.078125 -2.6875 3.25 C-2.23761719 2.63640625 -1.78773438 2.0228125 -1.32421875 1.390625 C-0.88722656 0.93171875 -0.45023437 0.4728125 0 0 Z " fill="#395448" transform="translate(339,231)"/>
<path d="M0 0 C0.66 0 1.32 0 2 0 C1.42365861 4.75481646 -0.55068521 7.97048212 -3 12 C-3.66 11.01 -4.32 10.02 -5 9 C-4.01 8.67 -3.02 8.34 -2 8 C-1.7834375 6.576875 -1.7834375 6.576875 -1.5625 5.125 C-1 2 -1 2 0 0 Z " fill="#415B4F" transform="translate(348,214)"/>
<path d="M0 0 C0.66 0.33 1.32 0.66 2 1 C2 1.66 2 2.32 2 3 C-1.21314332 6.08461758 -4.75047266 6.93761816 -9 8 C-6.14723863 5.06799526 -3.34920216 2.35684596 0 0 Z " fill="#455F53" transform="translate(202,162)"/>
<path d="M0 0 C0.33 0 0.66 0 1 0 C0.67 5.94 0.34 11.88 0 18 C-0.33 18 -0.66 18 -1 18 C-1.22119939 15.37549914 -1.42746669 12.75129514 -1.625 10.125 C-1.68945312 9.37863281 -1.75390625 8.63226563 -1.8203125 7.86328125 C-1.96087365 5.9129953 -1.98759849 3.95530533 -2 2 C-1.34 1.34 -0.68 0.68 0 0 Z " fill="#64796E" transform="translate(380,95)"/>
<path d="M0 0 C0.99 0.33 1.98 0.66 3 1 C1.71283353 2.00578589 0.42011342 3.00446798 -0.875 4 C-1.95394531 4.8353125 -1.95394531 4.8353125 -3.0546875 5.6875 C-5 7 -5 7 -7 7 C-5.65117186 2.95351557 -3.65173931 2.04497401 0 0 Z " fill="#3B564A" transform="translate(649,465)"/>
<path d="M0 0 C2.31 0.33 4.62 0.66 7 1 C7 1.33 7 1.66 7 2 C5.25215171 2.36463732 3.50159498 2.7163078 1.75 3.0625 C0.28820312 3.35833984 0.28820312 3.35833984 -1.203125 3.66015625 C-3.868119 3.98397535 -5.48871723 3.85503199 -8 3 C-7.67 2.34 -7.34 1.68 -7 1 C-4.69 1.33 -2.38 1.66 0 2 C0 1.34 0 0.68 0 0 Z " fill="#536D62" transform="translate(152,343)"/>
<path d="M0 0 C0.75 1.5625 0.75 1.5625 1 4 C-0.13084437 6.50286409 -1.52139516 8.67007722 -3 11 C-3.66 10.67 -4.32 10.34 -5 10 C-3.66511872 6.40608886 -2.03977277 3.24509304 0 0 Z " fill="#385649" transform="translate(92,278)"/>
<path d="M0 0 C0.99 0.33 1.98 0.66 3 1 C-0.96 4.465 -0.96 4.465 -5 8 C-5.33 7.01 -5.66 6.02 -6 5 C-4.68 4.34 -3.36 3.68 -2 3 C-2 2.34 -2 1.68 -2 1 C-1.34 0.67 -0.68 0.34 0 0 Z " fill="#455F53" transform="translate(294,284)"/>
<path d="M0 0 C0.61617187 0.18949219 1.23234375 0.37898438 1.8671875 0.57421875 C0.58002103 1.58000464 -0.71269908 2.57868673 -2.0078125 3.57421875 C-3.08675781 4.40953125 -3.08675781 4.40953125 -4.1875 5.26171875 C-6.1328125 6.57421875 -6.1328125 6.57421875 -8.1328125 6.57421875 C-6.59355861 2.85435517 -4.48364726 -0.89508709 0 0 Z " fill="#3E584B" transform="translate(158.1328125,122.42578125)"/>
<path d="M0 0 C0.66 0 1.32 0 2 0 C0.79157144 4.43090471 -0.51668565 6.98112756 -4 10 C-3.43697042 6.05879291 -2.3208055 3.2491277 0 0 Z " fill="#465F54" transform="translate(658,453)"/>
<path d="M0 0 C0.66 0 1.32 0 2 0 C5.22265625 5.17578125 5.22265625 5.17578125 6 7 C5.67 7.99 5.34 8.98 5 10 C4.15801693 8.90241493 3.32669329 7.79664683 2.5 6.6875 C2.0359375 6.07261719 1.571875 5.45773437 1.09375 4.82421875 C0 3 0 3 0 0 Z " fill="#3F5B4E" transform="translate(499,419)"/>
<path d="M0 0 C0.33 0 0.66 0 1 0 C0.85892253 1.45880109 0.71197585 2.91703551 0.5625 4.375 C0.48128906 5.18710938 0.40007812 5.99921875 0.31640625 6.8359375 C0 9 0 9 -1 11 C-1.66 11 -2.32 11 -3 11 C-2.67 8.36 -2.34 5.72 -2 3 C-1.34 3 -0.68 3 0 3 C0 2.01 0 1.02 0 0 Z " fill="#2D4B3F" transform="translate(334,151)"/>
<path d="M0 0 C-2.64738916 1.4606285 -3.89448334 2 -7 2 C-7.66 3.32 -8.32 4.64 -9 6 C-9.33 5.34 -9.66 4.68 -10 4 C-12.02463255 3.34786708 -12.02463255 3.34786708 -14 3 C-12.04486839 2.303447 -10.08577524 1.61800435 -8.125 0.9375 C-7.03445312 0.55464844 -5.94390625 0.17179687 -4.8203125 -0.22265625 C-2 -1 -2 -1 0 0 Z " fill="#536B60" transform="translate(221,53)"/>
<path d="M0 0 C-0.66 0.66 -1.32 1.32 -2 2 C-2.66 1.67 -3.32 1.34 -4 1 C-4 1.66 -4 2.32 -4 3 C-6.95664519 4.4783226 -9.74229737 4.06032783 -13 4 C-10.56272708 2.37515139 -8.62713877 1.34310925 -5.9375 0.3125 C-5.24527344 0.04050781 -4.55304688 -0.23148438 -3.83984375 -0.51171875 C-2 -1 -2 -1 0 0 Z " fill="#4D675A" transform="translate(323,19)"/>
<path d="M0 0 C-3.58752742 1.86551426 -7.27812193 3.42535928 -11 5 C-10.8125 3.125 -10.8125 3.125 -10 1 C-6.36806148 -1.11863081 -3.99237419 -1.14067834 0 0 Z " fill="#4C675C" transform="translate(267,527)"/>
<path d="M0 0 C0.66 0.33 1.32 0.66 2 1 C0.7508258 4.45925163 -0.67527795 7.14693203 -3 10 C-4 7 -4 7 -3.22265625 5.17578125 C-2.1484375 3.45052083 -1.07421875 1.72526042 0 0 Z " fill="#2E4E40" transform="translate(81,367)"/>
<path d="M0 0 C0.66 0.66 1.32 1.32 2 2 C-0.31 4.31 -2.62 6.62 -5 9 C-5.33 8.01 -5.66 7.02 -6 6 C-4.02 4.02 -2.04 2.04 0 0 Z " fill="#3A5549" transform="translate(308,271)"/>
<path d="M0 0 C0.66 0.33 1.32 0.66 2 1 C-1.17320782 4.53586014 -3.16743695 6.58578031 -8 7 C-5.4837822 4.39391727 -2.94865641 2.10618315 0 0 Z " fill="#496357" transform="translate(263,262)"/>
<path d="M0 0 C0.33 0.66 0.66 1.32 1 2 C0.22265625 4.1640625 0.22265625 4.1640625 -0.9375 6.625 C-1.31777344 7.44226563 -1.69804688 8.25953125 -2.08984375 9.1015625 C-2.39019531 9.72804687 -2.69054687 10.35453125 -3 11 C-4.078125 9.19921875 -4.078125 9.19921875 -5 7 C-2.80487805 1.40243902 -2.80487805 1.40243902 0 0 Z " fill="#435F52" transform="translate(98,189)"/>
<path d="M0 0 C0.59296875 0.34804687 1.1859375 0.69609375 1.796875 1.0546875 C0.363435 1.58659291 -1.07507867 2.10484008 -2.515625 2.6171875 C-3.71638672 3.05224609 -3.71638672 3.05224609 -4.94140625 3.49609375 C-7.203125 4.0546875 -7.203125 4.0546875 -10.203125 3.0546875 C-9.543125 3.0546875 -8.883125 3.0546875 -8.203125 3.0546875 C-8.203125 2.3946875 -8.203125 1.7346875 -8.203125 1.0546875 C-2.74543269 -1.17800481 -2.74543269 -1.17800481 0 0 Z " fill="#4B6458" transform="translate(300.203125,65.9453125)"/>
<path d="M0 0 C4.455 1.98 4.455 1.98 9 4 C7.02 4.99 7.02 4.99 5 6 C1.75 4.625 1.75 4.625 -1 3 C-0.67 2.01 -0.34 1.02 0 0 Z " fill="#425D52" transform="translate(255,588)"/>
<path d="M0 0 C3.3 1.65 6.6 3.3 10 5 C8.02 5.99 8.02 5.99 6 7 C3 5.1875 3 5.1875 0 3 C0 2.01 0 1.02 0 0 Z " fill="#3C584C" transform="translate(605,450)"/>
<path d="M0 0 C0.33 0.66 0.66 1.32 1 2 C-0.65 3.65 -2.3 5.3 -4 7 C-4.99 6.67 -5.98 6.34 -7 6 C-6.34 6 -5.68 6 -5 6 C-4.731875 5.38125 -4.46375 4.7625 -4.1875 4.125 C-3 2 -3 2 0 0 Z " fill="#2D4D3F" transform="translate(177,409)"/>
<path d="M0 0 C1.35158203 0.15275391 1.35158203 0.15275391 2.73046875 0.30859375 C3.41753906 0.39238281 4.10460937 0.47617187 4.8125 0.5625 C4.8125 0.8925 4.8125 1.2225 4.8125 1.5625 C3.21023045 1.78495393 1.60553233 1.98996669 0 2.1875 C-0.89332031 2.30351562 -1.78664062 2.41953125 -2.70703125 2.5390625 C-5.1875 2.5625 -5.1875 2.5625 -8.1875 0.5625 C-4.98734144 -0.50421952 -3.30205706 -0.38595472 0 0 Z " fill="#3F5B4F" transform="translate(136.1875,346.4375)"/>
<path d="M0 0 C0.33 0.66 0.66 1.32 1 2 C-2.3 2.33 -5.6 2.66 -9 3 C-9.33 2.34 -9.66 1.68 -10 1 C-6.59437148 0.22157062 -3.49234244 -0.09978121 0 0 Z " fill="#3C584A" transform="translate(170,303)"/>
<path d="M0 0 C-4.455 2.97 -4.455 2.97 -9 6 C-8 2 -8 2 -5.625 0.1875 C-3 -1 -3 -1 0 0 Z " fill="#3D584B" transform="translate(286,294)"/>
<path d="M0 0 C0.66 0.33 1.32 0.66 2 1 C0.32482761 4.53647504 -0.49280817 5.7911563 -4.1875 7.3125 C-5.5796875 7.6528125 -5.5796875 7.6528125 -7 8 C-6.02133662 6.85373678 -5.04205413 5.70800212 -4.0625 4.5625 C-3.51722656 3.92441406 -2.97195312 3.28632813 -2.41015625 2.62890625 C-1.63204305 1.73008851 -0.84063472 0.84063472 0 0 Z " fill="#536B5F" transform="translate(165,191)"/>
<path d="M0 0 C0.66 0.33 1.32 0.66 2 1 C1.7452486 2.31571603 1.47065859 3.62760376 1.1875 4.9375 C1.03667969 5.66839844 0.88585938 6.39929688 0.73046875 7.15234375 C0.48941406 7.76207031 0.24835937 8.37179688 0 9 C-0.99 9.33 -1.98 9.66 -3 10 C-2.01 6.7 -1.02 3.4 0 0 Z " fill="#456155" transform="translate(57,185)"/>
<path d="M0 0 C0.66 0.33 1.32 0.66 2 1 C-2.75 5.875 -2.75 5.875 -5 7 C-5.66 6.34 -6.32 5.68 -7 5 C-4.69 3.35 -2.38 1.7 0 0 Z " fill="#3C584C" transform="translate(211,156)"/>
<path d="M0 0 C-1.28813342 0.83878455 -2.58063256 1.67086783 -3.875 2.5 C-4.59429687 2.9640625 -5.31359375 3.428125 -6.0546875 3.90625 C-8 5 -8 5 -10 5 C-10 4.34 -10 3.68 -10 3 C-9.01 3 -8.02 3 -7 3 C-6.67 2.01 -6.34 1.02 -6 0 C-3.50907189 -1.24546405 -2.58919267 -0.7767578 0 0 Z " fill="#445D50" transform="translate(170,117)"/>
<path d="M0 0 C0.53625 0.2475 1.0725 0.495 1.625 0.75 C-3.79038462 4.81153846 -3.79038462 4.81153846 -6.75 4.5 C-7.28625 4.2525 -7.8225 4.005 -8.375 3.75 C-2.95961538 -0.31153846 -2.95961538 -0.31153846 0 0 Z " fill="#325043" transform="translate(147.375,86.25)"/>
<path d="M0 0 C0.99 0.33 1.98 0.66 3 1 C4.1875 4.5625 4.1875 4.5625 5 8 C4.34 8.66 3.68 9.32 3 10 C2.01 6.7 1.02 3.4 0 0 Z " fill="#3C584B" transform="translate(551,589)"/>
<path d="M0 0 C2.09782787 2.09782787 2.6509396 3.3799207 3.625 6.125 C3.88539063 6.84945312 4.14578125 7.57390625 4.4140625 8.3203125 C4.70410156 9.15175781 4.70410156 9.15175781 5 10 C4.01 10 3.02 10 2 10 C1.87625 8.865625 1.7525 7.73125 1.625 6.5625 C1.41875 5.386875 1.2125 4.21125 1 3 C0.34 2.67 -0.32 2.34 -1 2 C-0.67 1.34 -0.34 0.68 0 0 Z " fill="#3C5A4D" transform="translate(146,581)"/>
<path d="M0 0 C1.875 0.125 1.875 0.125 4 1 C5.25 4.0625 5.25 4.0625 6 7 C5.01 7 4.02 7 3 7 C2.01 4.69 1.02 2.38 0 0 Z " fill="#435F53" transform="translate(194,383)"/>
<path d="M0 0 C0 3 0 3 -1.875 5.1875 C-4 7 -4 7 -6 7 C-4.52307692 2.32307692 -4.52307692 2.32307692 -1.875 0.6875 C-1.25625 0.460625 -0.6375 0.23375 0 0 Z " fill="#153B2F" transform="translate(171,188)"/>
<path d="M0 0 C0.33 0 0.66 0 1 0 C1.59222907 3.01264352 2.05823431 5.92416977 2 9 C0.0625 11.5625 0.0625 11.5625 -2 13 C-2 10.0845524 -1.59136731 7.65845519 -1 4.8125 C-0.814375 3.91144531 -0.62875 3.01039063 -0.4375 2.08203125 C-0.293125 1.39496094 -0.14875 0.70789063 0 0 Z " fill="#637A6E" transform="translate(183,578)"/>
<path d="M0 0 C1.94268841 2.91403262 3.46395304 5.85808576 5 9 C3.125 8.8125 3.125 8.8125 1 8 C-0.3125 5.625 -0.3125 5.625 -1 3 C-0.67 2.01 -0.34 1.02 0 0 Z " fill="#3C5A4F" transform="translate(246,575)"/>
<path d="M0 0 C0.66 0 1.32 0 2 0 C2.33 2.97 2.66 5.94 3 9 C2.34 9 1.68 9 1 9 C0.67 6.03 0.34 3.06 0 0 Z " fill="#3A5548" transform="translate(243,566)"/>
<path d="M0 0 C1.69141656 0.08963062 3.37959602 0.24577676 5.0625 0.4375 C6.44115234 0.59025391 6.44115234 0.59025391 7.84765625 0.74609375 C8.55792969 0.82988281 9.26820313 0.91367187 10 1 C10 1.33 10 1.66 10 2 C2.375 3.25 2.375 3.25 -1 1 C-0.67 0.67 -0.34 0.34 0 0 Z " fill="#3A564A" transform="translate(161,549)"/>
<path d="M0 0 C0.6875 1.6875 0.6875 1.6875 1 4 C-0.3125 6.75 -0.3125 6.75 -2 9 C-2.66 9 -3.32 9 -4 9 C-2.94124926 5.59687262 -1.99097846 2.98646769 0 0 Z " fill="#4F665B" transform="translate(50,347)"/>
<path d="M0 0 C0.66 0.33 1.32 0.66 2 1 C1.01 2.32 0.02 3.64 -1 5 C-2.32 4.67 -3.64 4.34 -5 4 C-5 3.34 -5 2.68 -5 2 C-2.625 0.9375 -2.625 0.9375 0 0 Z " fill="#3B5D4F" transform="translate(216,288)"/>
<path d="M0 0 C0 0.99 0 1.98 0 3 C-3.33333333 6 -3.33333333 6 -6 6 C-4.95125002 3.37812506 -4.35068687 2.20628639 -1.875 0.75 C-1.25625 0.5025 -0.6375 0.255 0 0 Z " fill="#2E5043" transform="translate(95,129)"/>
<path d="M0 0 C0.99 0 1.98 0 3 0 C3.99 1.98 4.98 3.96 6 6 C5.34 6.66 4.68 7.32 4 8 C2.68 5.36 1.36 2.72 0 0 Z " fill="#455F53" transform="translate(291,535)"/>
<path d="M0 0 C1.98362069 2.91708924 1.9876191 4.12380904 1.625 7.75 C1.41875 8.8225 1.2125 9.895 1 11 C-1.78637633 6.8204355 -0.79562512 4.85331323 0 0 Z " fill="#2E4C3F" transform="translate(574,404)"/>
<path d="M0 0 C0.33 0 0.66 0 1 0 C1.36923077 5.53846154 1.36923077 5.53846154 -0.5 7.875 C-1.2425 8.431875 -1.2425 8.431875 -2 9 C-3 6 -3 6 -1.5625 2.8125 C-1.046875 1.884375 -0.53125 0.95625 0 0 Z " fill="#425D50" transform="translate(313,202)"/>
<path d="M0 0 C1.61949011 2.57213134 2.04408751 3.67669159 1.625 6.75 C1.41875 7.4925 1.2125 8.235 1 9 C0.01 9.33 -0.98 9.66 -2 10 C-1.54177532 6.53058454 -1.10868317 3.32604951 0 0 Z " fill="#4F6A5E" transform="translate(53,196)"/>
<path d="M0 0 C2 4 2 4 1.3125 6.1875 C0 8 0 8 -3 9 C-2.01 6.03 -1.02 3.06 0 0 Z " fill="#4B655A" transform="translate(323,181)"/>
<path d="M0 0 C0.66 0.33 1.32 0.66 2 1 C0.68 2.65 -0.64 4.3 -2 6 C-3.32 5.67 -4.64 5.34 -6 5 C-4.02 3.35 -2.04 1.7 0 0 Z " fill="#455F53" transform="translate(191,170)"/>
<path d="M0 0 C-0.33 0.99 -0.66 1.98 -1 3 C-2.32 3 -3.64 3 -5 3 C-5 2.34 -5 1.68 -5 1 C-5.66 0.67 -6.32 0.34 -7 0 C-3.86650268 -1.04449911 -3.01031744 -0.93423645 0 0 Z " fill="#3D5C4F" transform="translate(368,1)"/>
<path d="M0 0 C0.763125 0.20625 1.52625 0.4125 2.3125 0.625 C2.6425 1.615 2.9725 2.605 3.3125 3.625 C-1.1425 2.635 -1.1425 2.635 -5.6875 1.625 C-2.6875 -0.375 -2.6875 -0.375 0 0 Z " fill="#4B675D" transform="translate(281.6875,526.375)"/>
<path d="M0 0 C2.25 0.25 2.25 0.25 4 1 C2.02 2.32 0.04 3.64 -2 5 C-2.66 4.67 -3.32 4.34 -4 4 C-2.25 1.9375 -2.25 1.9375 0 0 Z " fill="#496559" transform="translate(192,467)"/>
<path d="M0 0 C3.82097239 0.53069061 6.06171403 1.49701566 9 4 C2.25 3.125 2.25 3.125 0 2 C0 1.34 0 0.68 0 0 Z " fill="#395447" transform="translate(638,373)"/>
<path d="M0 0 C-2.91708924 1.98362069 -4.12380904 1.9876191 -7.75 1.625 C-8.8225 1.41875 -9.895 1.2125 -11 1 C-11 0.67 -11 0.34 -11 0 C-6.98195309 -0.84098656 -3.98196457 -1.05404945 0 0 Z " fill="#3F5A4E" transform="translate(173,341)"/>
<path d="M0 0 C0.66 0.66 1.32 1.32 2 2 C0.02 4.97 0.02 4.97 -2 8 C-2.6875 6.25 -2.6875 6.25 -3 4 C-1.5625 1.75 -1.5625 1.75 0 0 Z " fill="#3C574B" transform="translate(139,266)"/>
<path d="M0 0 C1 2 1 2 0.44140625 3.9453125 C0.15136719 4.66460937 -0.13867188 5.38390625 -0.4375 6.125 C-0.72496094 6.84945312 -1.01242187 7.57390625 -1.30859375 8.3203125 C-1.53675781 8.87460938 -1.76492188 9.42890625 -2 10 C-3.0625 8.125 -3.0625 8.125 -4 6 C-3.67 5.34 -3.34 4.68 -3 4 C-2.34 4 -1.68 4 -1 4 C-1.33 3.01 -1.66 2.02 -2 1 C-1.34 0.67 -0.68 0.34 0 0 Z " fill="#4B6357" transform="translate(359,193)"/>
<path d="M0 0 C0.66 0.33 1.32 0.66 2 1 C-0.22189824 3.22189824 -2.08482708 3.92598892 -5 5 C-5.66 4.34 -6.32 3.68 -7 3 C-4.69631264 1.93347808 -2.35981813 0.93578995 0 0 Z " fill="#456054" transform="translate(190,63)"/>
</svg>
