<?xml version="1.0" encoding="UTF-8"?>
<svg version="1.1" xmlns="http://www.w3.org/2000/svg" width="491" height="422">
<path d="M0 0 C7.57227163 -0.26484559 14.72482985 0.50211739 22.1875 1.75 C23.28956787 1.93264404 24.39163574 2.11528809 25.52709961 2.3034668 C53.86953651 7.14272403 81.36824264 19.22439317 99 43 C102.28518909 47.83746663 105.1962642 52.87177758 108 58 C108.33451172 58.60618164 108.66902344 59.21236328 109.01367188 59.83691406 C121.8606749 83.60516211 122.21264003 112.55970793 115.875 138.38671875 C114.88232028 141.86633455 114.88232028 141.86633455 115 145 C115.64582031 144.40574219 116.29164063 143.81148437 116.95703125 143.19921875 C140.38759619 122.58929637 169.99362717 111.01785043 201.265625 112.76806641 C217.18359936 114.11825173 234.4683552 118.32831214 248 127 C248.8971875 127.55171875 249.794375 128.1034375 250.71875 128.671875 C262.03748295 135.88012072 272.59614772 144.49518465 281 155 C281.72703125 155.85207031 282.4540625 156.70414063 283.203125 157.58203125 C288.13114336 163.41569536 292.26074425 169.34906896 296 176 C286.84627243 175.32802173 277.70553803 174.54975505 268.56713867 173.69775391 C266.40895444 173.49734932 264.25038971 173.30141715 262.09179688 173.10546875 C260.70570379 172.9768357 259.31963509 172.84793942 257.93359375 172.71875 C256.0781897 172.54762695 256.0781897 172.54762695 254.18530273 172.37304688 C247.51918628 171.59234434 247.51918628 171.59234434 244.421875 168.05859375 C243.52078778 166.85935267 242.63045726 165.65196793 241.75 164.4375 C241.29109375 163.82197266 240.8321875 163.20644531 240.359375 162.57226562 C239.23028585 161.05505208 238.11388857 159.52840817 237 158 C237.66 161.96 238.32 165.92 239 170 C234.70175405 167.85087703 232.45642846 165.31657636 229.5 161.6875 C229.02691406 161.11837891 228.55382812 160.54925781 228.06640625 159.96289062 C225.33908961 156.67273441 222.66048944 153.34443601 220 150 C220.47680139 152.43798448 220.95634129 154.87537516 221.4375 157.3125 C221.57220703 158.00279297 221.70691406 158.69308594 221.84570312 159.40429688 C222.42774332 162.34289007 223.05152228 165.15456685 224 168 C221.68733596 167.85679155 219.37487565 167.71029195 217.0625 167.5625 C215.13083984 167.44068359 215.13083984 167.44068359 213.16015625 167.31640625 C210.30823655 167.12062307 207.48540416 166.82596428 204.6484375 166.4765625 C201.37886262 166.09675454 198.17016426 165.93004065 194.87890625 165.89453125 C184.59194924 165.76658877 177.39896384 165.45040423 169 159 C166.70066397 157.85872372 164.39244379 156.93617366 162 156 C165.96 160.455 165.96 160.455 170 165 C169.67 165.99 169.34 166.98 169 168 C166.36 168 163.72 168 161 168 C161 168.33 161 168.66 161 169 C161.85980469 169.17015625 162.71960938 169.3403125 163.60546875 169.515625 C184.91809026 173.88506103 203.42904294 181.69413779 220 196 C220.72058594 196.6084375 221.44117188 197.216875 222.18359375 197.84375 C243.75147524 217.63238975 252.76704678 248.69201286 254.1484375 277.046875 C254.24966708 284.05196199 253.62075823 291.02755487 253 298 C249.88840849 296.6094672 247.69566991 294.97662583 245.2421875 292.62109375 C244.53868164 291.95126465 243.83517578 291.28143555 243.11035156 290.59130859 C242.00385254 289.52517334 242.00385254 289.52517334 240.875 288.4375 C239.34724107 286.97953882 237.81859949 285.52250197 236.2890625 284.06640625 C235.55204102 283.36402832 234.81501953 282.66165039 234.05566406 281.93798828 C231.49936908 279.52802753 228.88646578 277.19684222 226.25 274.875 C225.49460937 274.1840625 224.73921875 273.493125 223.9609375 272.78125 C222.77126509 271.7005914 221.55304621 270.6489678 220.2890625 269.65625 C217.48611704 267.11656461 216.99803026 264.97510255 216.70703125 261.296875 C216.64001623 257.51990851 216.78412929 253.77054168 217 250 C215.515 254.95 215.515 254.95 214 260 C213.01 260 212.02 260 211 260 C208.88313921 257.88313921 209.62506386 253.31631668 209.5 250.375 C209.43013736 248.77850926 209.35725999 247.18214737 209.28125 245.5859375 C209.25095703 244.8748584 209.22066406 244.1637793 209.18945312 243.43115234 C208.9432774 240.2721087 208.44811068 237.13677479 208 234 C206.02 238.95 204.04 243.9 202 249 C198.40076127 249 198.00381073 248.42522032 195.4375 246.0625 C194.73238281 245.423125 194.02726562 244.78375 193.30078125 244.125 C192.54152344 243.42375 191.78226562 242.7225 191 242 C186.00883841 237.4403744 181.02393576 232.96746633 175.6875 228.8125 C167.96977423 222.65999162 164.1583127 215.83105583 160 207 C160 210.63 160 214.26 160 218 C156.34535977 216.53814391 153.61776568 215.26663483 150.375 213.20703125 C149.07598755 212.38948364 149.07598755 212.38948364 147.75073242 211.55541992 C146.84299072 210.98025635 145.93524902 210.40509277 145 209.8125 C137.14624076 204.8861314 129.2591182 200.21383582 121 196 C121.29777344 197.60488281 121.29777344 197.60488281 121.6015625 199.2421875 C122.26051946 205.45705611 119.47710009 209.05866845 115.8125 213.875 C112.02434779 216.73715945 108.7424073 217.82235282 104 218 C97.66702037 216.97274411 92.96394907 213.90778969 88 210 C84.16899434 218.22333082 81.02321601 226.55139551 78.25 235.1875 C77.80998657 236.53932373 77.80998657 236.53932373 77.36108398 237.91845703 C72.65139604 252.88664228 70.93502984 267.41717697 78 282 C85.89995475 296.35479582 98.82379083 306.34984401 111.484375 316.24609375 C120.56436934 323.35057581 129.2286018 330.76791488 137.60498047 338.68408203 C138.76172599 339.7752368 139.92843401 340.85581906 141.09765625 341.93359375 C154.54025952 354.70253581 154.54025952 354.70253581 155.16113281 361.85668945 C155.47930274 378.95462353 154.56148534 394.57564078 143.03515625 408.34765625 C135.10514494 416.01185713 123.61233271 422.05912702 112.57250977 422.20874023 C111.92500763 422.21852402 111.27750549 422.2283078 110.61038208 422.23838806 C108.47074425 422.26826857 106.33116832 422.28970234 104.19140625 422.30859375 C103.09424947 422.31845149 103.09424947 422.31845149 101.9749279 422.32850838 C98.1059449 422.36106392 94.23698909 422.38552837 90.36791992 422.4050293 C87.16569127 422.42286833 83.964339 422.45773258 80.76245117 422.50756836 C76.89447355 422.567697 73.02731058 422.59849316 69.15888786 422.60820198 C67.68561248 422.61676716 66.21235951 422.63561203 64.73935127 422.6649456 C62.67755949 422.70380602 60.6189549 422.7049059 58.55688477 422.69702148 C57.38456802 422.70732895 56.21225128 422.71763641 55.00440979 422.72825623 C52 422 52 422 49.65002441 419.09313965 C48.34100053 416.63924039 47.23586176 414.4242592 46.40234375 411.78515625 C46.15967773 411.02444824 45.91701172 410.26374023 45.66699219 409.47998047 C45.42625977 408.68221191 45.18552734 407.88444336 44.9375 407.0625 C44.68000977 406.22348145 44.42251953 405.38446289 44.15722656 404.52001953 C38.65047038 386.14671706 36.67730801 367.11095612 36 348 C35.95697754 346.86618896 35.95697754 346.86618896 35.91308594 345.70947266 C35.43882057 331.28640242 37.01237957 317.27280631 39 303 C40.08474609 304.09248047 40.08474609 304.09248047 41.19140625 305.20703125 C55.09047418 319.11188187 55.09047418 319.11188187 71.8203125 329.19140625 C74.87297054 331.72434653 74.82566389 333.92626338 75.25048828 337.76367188 C75.33282715 338.66666016 75.41516602 339.56964844 75.5 340.5 C77.82709499 360.01411451 83.26834202 378.91667121 93.27734375 395.984375 C95 399 95 399 95 401 C101.30997369 400.67439638 106.48428776 400.36323917 112 397 C113.11375 396.566875 113.11375 396.566875 114.25 396.125 C116.80387969 394.4832202 117.07831716 392.88793957 118 390 C118.25910156 389.39414062 118.51820313 388.78828125 118.78515625 388.1640625 C122.64186631 378.51331826 122.24627568 367.99591233 118.26171875 358.4609375 C116.26390218 354.56426742 113.89149436 351.278434 111 348 C110.28263672 347.16082031 110.28263672 347.16082031 109.55078125 346.3046875 C102.75863296 338.94795258 93.8830619 333.52289936 85.546875 328.078125 C66.86980009 315.87764954 47.56261801 302.11813515 41.296875 279.45703125 C38.65196788 257.56694472 47.03924506 239.39865559 57.71118164 220.9387207 C58.12360107 220.22159912 58.53602051 219.50447754 58.9609375 218.765625 C59.33009277 218.13430664 59.69924805 217.50298828 60.07958984 216.85253906 C61.0600507 214.87913402 61.65178325 213.17642317 62 211 C61.03720358 208.13186576 61.03720358 208.13186576 59.5625 205.25 C59.08941406 204.26515625 58.61632812 203.2803125 58.12890625 202.265625 C57.75636719 201.51796875 57.38382813 200.7703125 57 200 C45.34597167 207.62606498 33.75169949 215.26898845 23.5234375 224.78515625 C22 226 22 226 20 226 C19.67 221.71 19.34 217.42 19 213 C18.54173828 214.63195312 18.54173828 214.63195312 18.07421875 216.296875 C14.73235757 227.33144114 10.34215873 234.15605353 2 242 C0.39206917 243.60039365 -1.21239278 245.20428413 -2.8125 246.8125 C-3.89337891 247.87791016 -3.89337891 247.87791016 -4.99609375 248.96484375 C-7.36661156 251.3723287 -9.55999367 253.88841339 -11.7109375 256.4921875 C-13.07828581 258.09157068 -14.42941156 259.59738893 -16 261 C-16.66 261 -17.32 261 -18 261 C-20.64 255.72 -23.28 250.44 -26 245 C-26.020625 246.381875 -26.04125 247.76375 -26.0625 249.1875 C-26.07410156 249.96480469 -26.08570312 250.74210938 -26.09765625 251.54296875 C-26.0674236 254.00410613 -26.0674236 254.00410613 -25.50390625 256.3828125 C-24.89875024 259.52587085 -24.86770431 262.48833893 -24.875 265.6875 C-24.87113281 267.39486328 -24.87113281 267.39486328 -24.8671875 269.13671875 C-25 272 -25 272 -26 274 C-26.66 274 -27.32 274 -28 274 C-29.65 270.7 -31.3 267.4 -33 264 C-32.67 265.65 -32.34 267.3 -32 269 C-31.1031295 274.443614 -30.65735506 279.00878928 -33.84375 283.734375 C-36.01536399 286.05717731 -38.25310257 288.28323945 -40.53710938 290.49462891 C-43.12255066 293.1551481 -45.31832609 296.11421702 -47.5625 299.0625 C-52.10394704 304.94714659 -56.76061886 310.71188043 -62 316 C-62.33 316 -62.66 316 -63 316 C-69.44076647 281.68758341 -66.8809707 247.96879423 -48.05859375 217.8984375 C-30.73824844 193.05511393 -5.47199181 180.95622527 23 174 C19.04 174 15.08 174 11 174 C11.49371094 173.22914063 11.98742187 172.45828125 12.49609375 171.6640625 C13.45708984 170.15972656 13.45708984 170.15972656 14.4375 168.625 C15.07558594 167.62726563 15.71367188 166.62953125 16.37109375 165.6015625 C17.96899211 163.14169479 17.96899211 163.14169479 19 161 C18.01 161.77085937 17.02 162.54171875 16 163.3359375 C14.66717902 164.34963233 13.33381657 165.36261551 12 166.375 C11.35160156 166.88289062 10.70320313 167.39078125 10.03515625 167.9140625 C9.05869141 168.64882813 9.05869141 168.64882813 8.0625 169.3984375 C7.47597656 169.84880371 6.88945313 170.29916992 6.28515625 170.76318359 C0.57210766 173.8553101 -6.29173592 174.4442345 -12.65625 175.2890625 C-13.44398804 175.39721283 -14.23172607 175.50536316 -15.04333496 175.61679077 C-17.52834582 175.95700574 -20.01413275 176.29110634 -22.5 176.625 C-24.19797203 176.85636489 -25.8958893 177.08813201 -27.59375 177.3203125 C-31.728467 177.88560584 -35.86418095 178.44260052 -40 179 C-39.34 173.06 -38.68 167.12 -38 161 C-42.83530253 167.37380788 -47.5786985 173.65637024 -51.80859375 180.453125 C-52.20175781 180.96359375 -52.59492187 181.4740625 -53 182 C-53.66 182 -54.32 182 -55 182 C-54.67 178.37 -54.34 174.74 -54 171 C-54.9075 172.381875 -55.815 173.76375 -56.75 175.1875 C-57.81256558 176.80549759 -58.89725577 178.40911441 -60 180 C-60.4952417 180.825 -60.9904834 181.65 -61.50073242 182.5 C-65.11790763 186.11823523 -68.76825244 186.53212425 -73.69140625 187.45703125 C-74.63306137 187.64972092 -75.57471649 187.84241058 -76.54490662 188.04093933 C-79.54734537 188.65026213 -82.55450647 189.23129284 -85.5625 189.8125 C-87.59085252 190.22153733 -89.61885286 190.63232529 -91.64648438 191.04492188 C-95.35422402 191.79129665 -99.06239208 192.53462755 -102.77563477 193.25317383 C-103.52079849 193.39797684 -104.26596222 193.54277985 -105.03370667 193.69197083 C-107 194 -107 194 -110 194 C-109.46673715 188.98732918 -107.09758956 185.45830392 -104.4375 181.3125 C-103.9842334 180.59989014 -103.5309668 179.88728027 -103.06396484 179.15307617 C-85.50038028 151.91191327 -60.90499283 130.38824152 -28.84643555 123.15307617 C-7.59214508 118.63534342 13.91698621 120.62880247 34 129 C34.99 129.33 35.98 129.66 37 130 C35.68 129.01 34.36 128.02 33 127 C33.60328125 126.73445313 34.2065625 126.46890625 34.828125 126.1953125 C35.62734375 125.84210938 36.4265625 125.48890625 37.25 125.125 C38.03890625 124.77695313 38.8278125 124.42890625 39.640625 124.0703125 C41.78868608 123.09586095 43.89829202 122.07013571 46 121 C44.23462891 121.20882812 44.23462891 121.20882812 42.43359375 121.421875 C27.81386622 122.58400596 18.12381624 118.02348244 5.74169922 110.62011719 C1.23048905 107.95436557 -3.38668696 105.48353454 -8 103 C-8 98.84439769 -5.7179548 97.15900671 -3 94.3125 C-2.52304688 93.80138672 -2.04609375 93.29027344 -1.5546875 92.76367188 C-0.37640085 91.50290516 0.81095253 90.25062314 2 89 C-4.88801767 90.56223081 -11.38135691 92.35470383 -17.84375 95.23046875 C-20 96 -20 96 -24 96 C-24 95.01 -24 94.02 -24 93 C-22.25 91.39453125 -22.25 91.39453125 -20 89.8125 C-18.88625 89.01779297 -18.88625 89.01779297 -17.75 88.20703125 C-17.1725 87.80871094 -16.595 87.41039063 -16 87 C-20.03633576 87 -23.96920693 89.44313059 -27.640625 91.00390625 C-35.04946118 93.20071233 -41.29961736 89.31914482 -48 86.3125 C-50.0532638 85.40467279 -52.10664906 84.49712027 -54.16015625 83.58984375 C-55.65313232 82.92637939 -55.65313232 82.92637939 -57.17626953 82.24951172 C-60.91714632 80.59415918 -64.67414737 78.97844984 -68.4375 77.375 C-69.52933594 76.90835938 -70.62117188 76.44171875 -71.74609375 75.9609375 C-72.86177734 75.48527344 -72.86177734 75.48527344 -74 75 C-74 74.01 -74 73.02 -74 72 C-60.91513648 65.99090264 -48.09426854 61.02835403 -34 58 C-32.89914063 57.75507812 -31.79828125 57.51015625 -30.6640625 57.2578125 C-3.43624344 52.14822178 24.1086256 57.91356947 47.1171875 73.05078125 C52.70417377 77.03595843 57.94311549 81.36331506 63 86 C58.04729997 76.75648152 52.68445219 67.81217084 46.06640625 59.65625 C45 58 45 58 45 55 C49.25493617 53.13846542 53.49929709 52.08887974 58 51 C58.99 50.67 59.98 50.34 61 50 C55.7241466 48.82123015 50.58785284 47.91469692 45.1875 47.5625 C41.10607233 47.23876069 38.20596209 46.76376042 35 44 C35 43.34 35 42.68 35 42 C36.32 42 37.64 42 39 42 C39.33 41.01 39.66 40.02 40 39 C40.33 39 40.66 39 41 39 C40.21496094 38.9484375 39.42992187 38.896875 38.62109375 38.84375 C28.96943052 37.80160722 28.96943052 37.80160722 25.375 33.6875 C24.22378898 32.14420987 23.10165855 30.57904392 22 29 C20.84085934 27.49793018 19.68127781 25.99617783 18.51391602 24.50048828 C17.23353328 22.85382259 15.96904039 21.19593438 14.70703125 19.53515625 C11.35890216 15.1431332 7.9283568 10.81619399 4.49121094 6.49365234 C1.10786634 2.21573268 1.10786634 2.21573268 0 0 Z M68 91 C69.52360906 94.10021321 71.19821362 97.05162229 73 100 C74.98 99.67 76.96 99.34 79 99 C79.33 99.66 79.66 100.32 80 101 C82.32156597 101.40729228 84.6568787 101.74438677 87 102 C84.9086545 99.72753662 82.97741243 98.30897727 80.20703125 96.95703125 C79.1387207 96.43012695 79.1387207 96.43012695 78.04882812 95.89257812 C77.31083984 95.53615234 76.57285156 95.17972656 75.8125 94.8125 C75.06291016 94.44447266 74.31332031 94.07644531 73.54101562 93.69726562 C71.69667788 92.79271782 69.84868755 91.89562424 68 91 Z " fill="#64B04F" transform="translate(110,0)"/>
<path d="M0 0 C7.57227163 -0.26484559 14.72482985 0.50211739 22.1875 1.75 C23.28956787 1.93264404 24.39163574 2.11528809 25.52709961 2.3034668 C53.86953651 7.14272403 81.36824264 19.22439317 99 43 C102.28518909 47.83746663 105.1962642 52.87177758 108 58 C108.33451172 58.60618164 108.66902344 59.21236328 109.01367188 59.83691406 C121.8606749 83.60516211 122.21264003 112.55970793 115.875 138.38671875 C114.88232028 141.86633455 114.88232028 141.86633455 115 145 C115.64582031 144.40574219 116.29164063 143.81148437 116.95703125 143.19921875 C140.38759619 122.58929637 169.99362717 111.01785043 201.265625 112.76806641 C217.18359936 114.11825173 234.4683552 118.32831214 248 127 C248.8971875 127.55171875 249.794375 128.1034375 250.71875 128.671875 C262.03748295 135.88012072 272.59614772 144.49518465 281 155 C281.72703125 155.85207031 282.4540625 156.70414063 283.203125 157.58203125 C288.13114336 163.41569536 292.26074425 169.34906896 296 176 C286.84627243 175.32802173 277.70553803 174.54975505 268.56713867 173.69775391 C266.40895444 173.49734932 264.25038971 173.30141715 262.09179688 173.10546875 C260.70570379 172.9768357 259.31963509 172.84793942 257.93359375 172.71875 C256.0781897 172.54762695 256.0781897 172.54762695 254.18530273 172.37304688 C247.51918628 171.59234434 247.51918628 171.59234434 244.421875 168.05859375 C243.52078778 166.85935267 242.63045726 165.65196793 241.75 164.4375 C241.29109375 163.82197266 240.8321875 163.20644531 240.359375 162.57226562 C239.23028585 161.05505208 238.11388857 159.52840817 237 158 C237.66 161.96 238.32 165.92 239 170 C234.70175405 167.85087703 232.45642846 165.31657636 229.5 161.6875 C229.02691406 161.11837891 228.55382812 160.54925781 228.06640625 159.96289062 C225.33908961 156.67273441 222.66048944 153.34443601 220 150 C220.47680139 152.43798448 220.95634129 154.87537516 221.4375 157.3125 C221.57220703 158.00279297 221.70691406 158.69308594 221.84570312 159.40429688 C222.42774332 162.34289007 223.05152228 165.15456685 224 168 C221.68733596 167.85679155 219.37487565 167.71029195 217.0625 167.5625 C215.13083984 167.44068359 215.13083984 167.44068359 213.16015625 167.31640625 C210.30823655 167.12062307 207.48540416 166.82596428 204.6484375 166.4765625 C201.37886262 166.09675454 198.17016426 165.93004065 194.87890625 165.89453125 C184.59194924 165.76658877 177.39896384 165.45040423 169 159 C166.70066397 157.85872372 164.39244379 156.93617366 162 156 C164.64 158.97 167.28 161.94 170 165 C169.67 165.99 169.34 166.98 169 168 C166.36 168 163.72 168 161 168 C161 168.66 161 169.32 161 170 C160.44465576 169.97905273 159.88931152 169.95810547 159.31713867 169.93652344 C141.55714045 169.36542753 123.72106405 170.61872857 106.46484375 175.1328125 C103 176 103 176 99 176 C98.8040625 175.34257812 98.608125 174.68515625 98.40625 174.0078125 C90.9460076 150.27652419 78.81469913 127.4624481 60.36328125 110.453125 C59 109 59 109 59 107 C58.41734375 106.74089844 57.8346875 106.48179688 57.234375 106.21484375 C54.8319521 104.9086313 53.21833992 103.456043 51.25 101.5625 C37.71551497 89.30106059 21.98855607 80.68507727 4.85595703 74.6640625 C3.27655587 74.09895185 1.71246488 73.49134415 0.15234375 72.875 C-16.54292935 66.58046404 -40.29323283 62.34134622 -58 66 C-48.69703178 56.69703178 -23.10438692 55.72664828 -10.5 55.625 C18.18041063 55.83120244 42.02450558 66.76745497 63 86 C58.04729997 76.75648152 52.68445219 67.81217084 46.06640625 59.65625 C45 58 45 58 45 55 C49.25493617 53.13846542 53.49929709 52.08887974 58 51 C58.99 50.67 59.98 50.34 61 50 C55.7241466 48.82123015 50.58785284 47.91469692 45.1875 47.5625 C41.10607233 47.23876069 38.20596209 46.76376042 35 44 C35 43.34 35 42.68 35 42 C36.32 42 37.64 42 39 42 C39.33 41.01 39.66 40.02 40 39 C40.33 39 40.66 39 41 39 C40.21496094 38.9484375 39.42992187 38.896875 38.62109375 38.84375 C28.96943052 37.80160722 28.96943052 37.80160722 25.375 33.6875 C24.22378898 32.14420987 23.10165855 30.57904392 22 29 C20.84085934 27.49793018 19.68127781 25.99617783 18.51391602 24.50048828 C17.23353328 22.85382259 15.96904039 21.19593438 14.70703125 19.53515625 C11.35890216 15.1431332 7.9283568 10.81619399 4.49121094 6.49365234 C1.10786634 2.21573268 1.10786634 2.21573268 0 0 Z M68 91 C69.52360906 94.10021321 71.19821362 97.05162229 73 100 C74.98 99.67 76.96 99.34 79 99 C79.33 99.66 79.66 100.32 80 101 C82.32156597 101.40729228 84.6568787 101.74438677 87 102 C84.9086545 99.72753662 82.97741243 98.30897727 80.20703125 96.95703125 C79.1387207 96.43012695 79.1387207 96.43012695 78.04882812 95.89257812 C77.31083984 95.53615234 76.57285156 95.17972656 75.8125 94.8125 C75.06291016 94.44447266 74.31332031 94.07644531 73.54101562 93.69726562 C71.69667788 92.79271782 69.84868755 91.89562424 68 91 Z " fill="#96C550" transform="translate(110,0)"/>
<path d="M0 0 C3.73576992 0.64409826 3.73576992 0.64409826 5.1484375 2.546875 C8.44475234 5.13385627 12.92322146 4.06461275 16.93164062 3.79492188 C22.21713108 3.59220428 24.90437297 4.72226846 29 8 C29.598125 8.45375 30.19625 8.9075 30.8125 9.375 C32.55054016 11.75337074 32.68005856 14.12052705 33 17 C34.485 17.495 34.485 17.495 36 18 C35.34 18 34.68 18 34 18 C34.2475 18.99 34.495 19.98 34.75 21 C35.43051518 25.80249283 33.59197421 29.05821175 31 33 C27.70149807 37.33517397 24.65234077 38.99377777 19.3984375 39.91015625 C12.12170809 40.18273732 6.50113932 36.33068414 1 32 C-2.83100566 40.22333082 -5.97678399 48.55139551 -8.75 57.1875 C-9.04334229 58.08871582 -9.33668457 58.98993164 -9.63891602 59.91845703 C-14.34860396 74.88664228 -16.06497016 89.41717697 -9 104 C-1.10004525 118.35479582 11.82379083 128.34984401 24.484375 138.24609375 C33.56436934 145.35057581 42.2286018 152.76791488 50.60498047 160.68408203 C51.76172599 161.7752368 52.92843401 162.85581906 54.09765625 163.93359375 C67.54025952 176.70253581 67.54025952 176.70253581 68.16113281 183.85668945 C68.47930274 200.95462353 67.56148534 216.57564078 56.03515625 230.34765625 C48.10514494 238.01185713 36.61233271 244.05912702 25.57250977 244.20874023 C24.92500763 244.21852402 24.27750549 244.2283078 23.61038208 244.23838806 C21.47074425 244.26826857 19.33116832 244.28970234 17.19140625 244.30859375 C16.09424947 244.31845149 16.09424947 244.31845149 14.9749279 244.32850838 C11.1059449 244.36106392 7.23698909 244.38552837 3.36791992 244.4050293 C0.16569127 244.42286833 -3.035661 244.45773258 -6.23754883 244.50756836 C-10.10552645 244.567697 -13.97268942 244.59849316 -17.84111214 244.60820198 C-19.31438752 244.61676716 -20.78764049 244.63561203 -22.26064873 244.6649456 C-24.32244051 244.70380602 -26.3810451 244.7049059 -28.44311523 244.69702148 C-30.20159035 244.71248268 -30.20159035 244.71248268 -31.99559021 244.72825623 C-35 244 -35 244 -37.34997559 241.09313965 C-38.65899947 238.63924039 -39.76413824 236.4242592 -40.59765625 233.78515625 C-40.84032227 233.02444824 -41.08298828 232.26374023 -41.33300781 231.47998047 C-41.57374023 230.68221191 -41.81447266 229.88444336 -42.0625 229.0625 C-42.31999023 228.22348145 -42.57748047 227.38446289 -42.84277344 226.52001953 C-48.34952962 208.14671706 -50.32269199 189.11095612 -51 170 C-51.02868164 169.24412598 -51.05736328 168.48825195 -51.08691406 167.70947266 C-51.56117943 153.28640242 -49.98762043 139.27280631 -48 125 C-46.91525391 126.09248047 -46.91525391 126.09248047 -45.80859375 127.20703125 C-31.90952582 141.11188187 -31.90952582 141.11188187 -15.1796875 151.19140625 C-12.12702946 153.72434653 -12.17433611 155.92626338 -11.74951172 159.76367188 C-11.66717285 160.66666016 -11.58483398 161.56964844 -11.5 162.5 C-9.17290501 182.01411451 -3.73165798 200.91667121 6.27734375 217.984375 C8 221 8 221 8 223 C14.30997369 222.67439638 19.48428776 222.36323917 25 219 C25.7425 218.71125 26.485 218.4225 27.25 218.125 C29.80387969 216.4832202 30.07831716 214.88793957 31 212 C31.25910156 211.39414062 31.51820313 210.78828125 31.78515625 210.1640625 C35.64186631 200.51331826 35.24627568 189.99591233 31.26171875 180.4609375 C29.26390218 176.56426742 26.89149436 173.278434 24 170 C23.28263672 169.16082031 23.28263672 169.16082031 22.55078125 168.3046875 C15.75863296 160.94795258 6.8830619 155.52289936 -1.453125 150.078125 C-20.13019991 137.87764954 -39.43738199 124.11813515 -45.703125 101.45703125 C-48.34803212 79.56694472 -39.96075494 61.39865559 -29.28881836 42.9387207 C-28.87639893 42.22159912 -28.46397949 41.50447754 -28.0390625 40.765625 C-27.66990723 40.13430664 -27.30075195 39.50298828 -26.92041016 38.85253906 C-25.94559886 36.89050508 -25.3658124 35.15934786 -25 33 C-25.79333524 30.77655235 -25.79333524 30.77655235 -27 28.5 C-29.52058339 22.53344422 -29.69546658 17.25477826 -28 11 C-25.94906387 7.52827044 -23.62980038 4.81490019 -20 3 C-17.87681936 2.9027114 -15.75040309 2.87022381 -13.625 2.875 C-12.48289063 2.87242187 -11.34078125 2.86984375 -10.1640625 2.8671875 C-7.56763848 2.9761732 -5.46375117 3.23538757 -3 4 C-2.01 2.68 -1.02 1.36 0 0 Z " fill="#A2724D" transform="translate(197,178)"/>
<path d="M0 0 C1.34384766 0.55300781 1.34384766 0.55300781 2.71484375 1.1171875 C9.61332814 4.07782736 15.78431492 7.81077365 22 12 C23.19882812 12.78310547 23.19882812 12.78310547 24.421875 13.58203125 C34.78673437 20.54274563 43.99308586 29.09036359 53.1875 37.5 C53.99828003 38.23802856 53.99828003 38.23802856 54.82543945 38.9909668 C57.52284758 41.48608007 59.91818334 43.96670012 62 47 C61.0409375 46.7215625 61.0409375 46.7215625 60.0625 46.4375 C59.381875 46.293125 58.70125 46.14875 58 46 C57.67 46.33 57.34 46.66 57 47 C47.75298822 47.58358662 38.50167607 46.66238776 29.3046875 45.77319336 C27.10730135 45.56078921 24.90925401 45.3568247 22.7109375 45.15429688 C12.05905668 44.15809451 12.05905668 44.15809451 7.19262695 43.43164062 C4.0532677 43.00720175 2.10111479 43.18400233 -0.9375 43.9375 C-8.26214568 45.46176286 -15.55922711 45.16804757 -23 45 C-22.50628906 44.22914063 -22.01257813 43.45828125 -21.50390625 42.6640625 C-20.86324219 41.66117188 -20.22257812 40.65828125 -19.5625 39.625 C-18.92441406 38.62726563 -18.28632812 37.62953125 -17.62890625 36.6015625 C-16.03100789 34.14169479 -16.03100789 34.14169479 -15 32 C-15.99 32.77085937 -16.98 33.54171875 -18 34.3359375 C-19.33282098 35.34963233 -20.66618343 36.36261551 -22 37.375 C-22.64839844 37.88289063 -23.29679687 38.39078125 -23.96484375 38.9140625 C-24.61582031 39.40390625 -25.26679687 39.89375 -25.9375 40.3984375 C-26.52402344 40.84880371 -27.11054687 41.29916992 -27.71484375 41.76318359 C-33.42789234 44.8553101 -40.29173592 45.4442345 -46.65625 46.2890625 C-47.44398804 46.39721283 -48.23172607 46.50536316 -49.04333496 46.61679077 C-51.52834582 46.95700574 -54.01413275 47.29110634 -56.5 47.625 C-58.19797203 47.85636489 -59.8958893 48.08813201 -61.59375 48.3203125 C-65.728467 48.88560584 -69.86418095 49.44260052 -74 50 C-73.34 44.06 -72.68 38.12 -72 32 C-76.83530253 38.37380788 -81.5786985 44.65637024 -85.80859375 51.453125 C-86.20175781 51.96359375 -86.59492187 52.4740625 -87 53 C-87.66 53 -88.32 53 -89 53 C-88.67 49.37 -88.34 45.74 -88 42 C-88.9075 43.381875 -89.815 44.76375 -90.75 46.1875 C-91.81256558 47.80549759 -92.89725577 49.40911441 -94 51 C-94.4952417 51.825 -94.9904834 52.65 -95.50073242 53.5 C-99.11790763 57.11823523 -102.76825244 57.53212425 -107.69140625 58.45703125 C-108.63306137 58.64972092 -109.57471649 58.84241058 -110.54490662 59.04093933 C-113.54734537 59.65026213 -116.55450647 60.23129284 -119.5625 60.8125 C-121.59085252 61.22153733 -123.61885286 61.63232529 -125.64648438 62.04492188 C-129.35422402 62.79129665 -133.06239208 63.53462755 -136.77563477 64.25317383 C-137.52079849 64.39797684 -138.26596222 64.54277985 -139.03370667 64.69197083 C-141 65 -141 65 -144 65 C-143.46673715 59.98732918 -141.09758956 56.45830392 -138.4375 52.3125 C-137.9842334 51.59989014 -137.5309668 50.88728027 -137.06396484 50.15307617 C-119.50038028 22.91191327 -94.90499283 1.38824152 -62.84643555 -5.84692383 C-41.7971429 -10.321083 -19.83695412 -8.59707482 0 0 Z " fill="#8AC24D" transform="translate(144,129)"/>
<path d="M0 0 C7.59988555 -0.19612608 14.69664842 0.49740499 22.1875 1.75 C23.28956787 1.93264404 24.39163574 2.11528809 25.52709961 2.3034668 C53.86953651 7.14272403 81.36824264 19.22439317 99 43 C102.28518909 47.83746663 105.1962642 52.87177758 108 58 C108.33451172 58.60618164 108.66902344 59.21236328 109.01367188 59.83691406 C121.8606749 83.60516211 122.21264003 112.55970793 115.875 138.38671875 C114.88232028 141.86633455 114.88232028 141.86633455 115 145 C115.64582031 144.40574219 116.29164063 143.81148437 116.95703125 143.19921875 C140.38759619 122.58929637 169.99362717 111.01785043 201.265625 112.76806641 C217.18359936 114.11825173 234.4683552 118.32831214 248 127 C249.34578125 127.82757813 249.34578125 127.82757813 250.71875 128.671875 C262.41229934 136.11881958 277.00698024 146.10935373 283 159 C282.01 159 281.02 159 280 159 C280 158.34 280 157.68 280 157 C279.34644531 156.76667969 278.69289063 156.53335938 278.01953125 156.29296875 C275.60476832 155.25896289 273.46562211 154.16717091 271.19921875 152.86328125 C259.51384814 146.19830181 247.87795213 141.97938792 234.84277344 138.71533203 C232.3020044 138.07599389 229.78194239 137.38486054 227.2578125 136.68359375 C216.31562714 133.87132796 205.4199755 133.6119095 194.1875 133.5625 C193.07778336 133.55296799 193.07778336 133.55296799 191.94564819 133.54324341 C178.62654725 133.47207363 166.02835453 135.22873428 153.375 139.625 C152.64265137 139.87443359 151.91030273 140.12386719 151.15576172 140.38085938 C128.94366106 147.96467611 128.94366106 147.96467611 108.81640625 159.6640625 C107 161 107 161 105 161 C105.10828125 159.65035156 105.10828125 159.65035156 105.21875 158.2734375 C108.25582612 116.17618799 100.76929137 76.09004976 73 43 C71.33473096 41.33193688 69.66788544 39.66544701 68 38 C66.89667215 36.70161712 65.79806246 35.39921634 64.703125 34.09375 C61.1138384 29.95733972 57.14965496 26.73537858 52.75 23.5 C52.00419678 22.94248047 51.25839355 22.38496094 50.48999023 21.81054688 C49.00716225 20.70439405 47.52148725 19.60204542 46.03271484 18.50390625 C44.27678379 17.20477879 42.53557619 15.88960407 40.80078125 14.5625 C29.59939472 6.12550701 21.10613164 3 7 3 C6.34 4.32 5.68 5.64 5 7 C3.35 4.69 1.7 2.38 0 0 Z " fill="#B8D455" transform="translate(110,0)"/>
<path d="M0 0 C-0.7578125 3.8359375 -0.7578125 3.8359375 -2.9375 5.3125 C-3.618125 5.539375 -4.29875 5.76625 -5 6 C-5.99 5.505 -5.99 5.505 -7 5 C-14.76736766 4.15991602 -14.76736766 4.15991602 -22.15625 6.046875 C-24.25277334 7.79397778 -25.77774794 9.55549588 -27 12 C-27.04618221 13.42032407 -27.08269356 14.84097329 -27.11328125 16.26171875 C-27.39775055 19.01012133 -27.62939159 20.54570161 -29.38818359 22.70166016 C-31.25410407 24.21436112 -33.15911892 25.52625645 -35.1875 26.8125 C-35.84814453 27.26302734 -36.50878906 27.71355469 -37.18945312 28.17773438 C-39.10943368 29.47983373 -41.04974296 30.74384176 -43 32 C-49.67442796 36.39278045 -55.94206201 41.15402027 -61.9375 46.4375 C-65 49 -65 49 -67 49 C-67.33 44.71 -67.66 40.42 -68 36 C-68.30550781 37.08796875 -68.61101562 38.1759375 -68.92578125 39.296875 C-72.26764243 50.33144114 -76.65784127 57.15605353 -85 65 C-86.60793083 66.60039365 -88.21239278 68.20428413 -89.8125 69.8125 C-90.53308594 70.52277344 -91.25367188 71.23304688 -91.99609375 71.96484375 C-94.36661156 74.3723287 -96.55999367 76.88841339 -98.7109375 79.4921875 C-100.07828581 81.09157068 -101.42941156 82.59738893 -103 84 C-103.66 84 -104.32 84 -105 84 C-107.64 78.72 -110.28 73.44 -113 68 C-113.020625 69.381875 -113.04125 70.76375 -113.0625 72.1875 C-113.07410156 72.96480469 -113.08570313 73.74210937 -113.09765625 74.54296875 C-113.0674236 77.00410613 -113.0674236 77.00410613 -112.50390625 79.3828125 C-111.89875024 82.52587085 -111.86770431 85.48833893 -111.875 88.6875 C-111.87113281 90.39486328 -111.87113281 90.39486328 -111.8671875 92.13671875 C-112 95 -112 95 -113 97 C-113.66 97 -114.32 97 -115 97 C-116.65 93.7 -118.3 90.4 -120 87 C-119.67 88.65 -119.34 90.3 -119 92 C-118.1031295 97.443614 -117.65735506 102.00878928 -120.84375 106.734375 C-123.01536399 109.05717731 -125.25310257 111.28323945 -127.53710938 113.49462891 C-130.12255066 116.1551481 -132.31832609 119.11421702 -134.5625 122.0625 C-139.10394704 127.94714659 -143.76061886 133.71188043 -149 139 C-149.33 139 -149.66 139 -150 139 C-152.92627496 126.90298832 -154.52218451 113.07775614 -148 102 C-147.32165413 100.33805262 -146.64800425 98.67401097 -146 97 C-145.34 97 -144.68 97 -144 97 C-143.6596875 95.14375 -143.6596875 95.14375 -143.3125 93.25 C-140.76766577 81.82531866 -135.2462334 72.75258013 -128.125 63.625 C-125.31968397 60.0153161 -122.54850244 56.3966174 -119.875 52.6875 C-113.26766088 43.92042122 -104.77266428 37.44661741 -96 31 C-94.95585938 30.22269531 -93.91171875 29.44539063 -92.8359375 28.64453125 C-80.86449398 20.01499194 -67.89248676 13.92104436 -54 9 C-53.26007813 8.72671875 -52.52015625 8.4534375 -51.7578125 8.171875 C-34.9451553 2.20813999 -17.79359047 -0.44857791 0 0 Z " fill="#309043" transform="translate(197,177)"/>
<path d="M0 0 C3.71683956 1.52552935 7.52994552 2.55269395 11.39453125 3.63671875 C17.43238829 5.37344771 23.17390723 7.23451077 28.76953125 10.13671875 C29.62546875 10.57757813 30.48140625 11.0184375 31.36328125 11.47265625 C44.10428482 18.23684073 55.50217638 26.18585204 66.20703125 35.82421875 C66.72773193 36.28795898 67.24843262 36.75169922 67.78491211 37.22949219 C70.48747338 39.70524328 72.18354023 41.86883957 73.76953125 45.13671875 C74.75953125 45.46671875 75.74953125 45.79671875 76.76953125 46.13671875 C87.00476657 55.55747911 94.59599165 68.85566671 100.76953125 81.13671875 C101.16914063 81.91015625 101.56875 82.68359375 101.98046875 83.48046875 C102.93979629 85.35584589 103.87912525 87.22762792 104.76953125 89.13671875 C105.30707031 90.14089844 105.84460938 91.14507812 106.3984375 92.1796875 C108.47546038 97.05933077 107.85714957 101.89392582 107.45703125 107.07421875 C107.39580078 108.04423828 107.33457031 109.01425781 107.27148438 110.01367188 C107.11933986 112.38946693 106.95167812 114.76306746 106.76953125 117.13671875 C103.65793974 115.74618595 101.46520116 114.11334458 99.01171875 111.7578125 C98.30821289 111.0879834 97.60470703 110.4181543 96.87988281 109.72802734 C95.77338379 108.66189209 95.77338379 108.66189209 94.64453125 107.57421875 C93.11677232 106.11625757 91.58813074 104.65922072 90.05859375 103.203125 C89.32157227 102.50074707 88.58455078 101.79836914 87.82519531 101.07470703 C85.26890033 98.66474628 82.65599703 96.33356097 80.01953125 94.01171875 C79.26414062 93.32078125 78.50875 92.62984375 77.73046875 91.91796875 C76.54079634 90.83731015 75.32257746 89.78568655 74.05859375 88.79296875 C71.25564829 86.25328336 70.76756151 84.1118213 70.4765625 80.43359375 C70.40954748 76.65662726 70.55366054 72.90726043 70.76953125 69.13671875 C69.77953125 72.43671875 68.78953125 75.73671875 67.76953125 79.13671875 C66.77953125 79.13671875 65.78953125 79.13671875 64.76953125 79.13671875 C62.65267046 77.01985796 63.39459511 72.45303543 63.26953125 69.51171875 C63.19966861 67.91522801 63.12679124 66.31886612 63.05078125 64.72265625 C63.02048828 64.01157715 62.99019531 63.30049805 62.95898438 62.56787109 C62.71280865 59.40882745 62.21764193 56.27349354 61.76953125 53.13671875 C59.78953125 58.08671875 57.80953125 63.03671875 55.76953125 68.13671875 C52.17029252 68.13671875 51.77334198 67.56193907 49.20703125 65.19921875 C48.50191406 64.55984375 47.79679687 63.92046875 47.0703125 63.26171875 C46.31105469 62.56046875 45.55179687 61.85921875 44.76953125 61.13671875 C39.77836966 56.57709315 34.79346701 52.10418508 29.45703125 47.94921875 C21.73930548 41.79671037 17.92784395 34.96777458 13.76953125 26.13671875 C13.76953125 29.76671875 13.76953125 33.39671875 13.76953125 37.13671875 C10.0976294 35.66795801 7.33952899 34.37534779 4.07421875 32.30859375 C2.75973755 31.48331177 2.75973755 31.48331177 1.41870117 30.64135742 C0.5032251 30.06232666 -0.41225098 29.4832959 -1.35546875 28.88671875 C-8.5313008 24.39062211 -15.69135191 20.00338523 -23.23046875 16.13671875 C-23.23046875 15.47671875 -23.23046875 14.81671875 -23.23046875 14.13671875 C-24.22046875 14.13671875 -25.21046875 14.13671875 -26.23046875 14.13671875 C-26.62234375 13.06421875 -27.01421875 11.99171875 -27.41796875 10.88671875 C-29.25950102 6.5547333 -32.03164356 4.23613134 -36.23046875 2.13671875 C-38.94806983 2.06490054 -41.63906263 2.04372369 -44.35546875 2.07421875 C-45.48662109 2.08098633 -45.48662109 2.08098633 -46.640625 2.08789062 C-48.50394002 2.09968376 -50.3672143 2.11761933 -52.23046875 2.13671875 C-52.61265642 0.48057218 -52.94441977 -1.18785149 -53.23046875 -2.86328125 C-44.98615311 -11.10759689 -9.54225764 -4.14679694 0 0 Z " fill="#308D44" transform="translate(256.23046875,180.86328125)"/>
<path d="M0 0 C0.87454834 0.00523682 1.74909668 0.01047363 2.65014648 0.01586914 C3.50036377 0.0183667 4.35058105 0.02086426 5.2265625 0.0234375 C6.85742798 0.03709351 6.85742798 0.03709351 8.52124023 0.05102539 C11.96561523 0.07165039 15.40999023 0.09227539 18.95874023 0.11352539 C19.28874023 10.01352539 19.61874023 19.91352539 19.95874023 30.11352539 C22.59874023 28.46352539 25.23874023 26.81352539 27.95874023 25.11352539 C35.65985178 22.54648821 44.3800645 23.39718215 51.67749023 26.79711914 C60.45935733 31.86473765 64.78968558 38.60636144 67.95874023 48.11352539 C68.80214568 60.17007539 68.22178446 70.39173365 60.14624023 80.05102539 C54.76020458 85.65771799 49.39362268 88.80185738 41.56811523 89.35180664 C33.28864389 89.51102724 26.60465287 89.57829006 20.25561523 83.47680664 C19.82764648 83.02692383 19.39967773 82.57704102 18.95874023 82.11352539 C18.62874023 84.09352539 18.29874023 86.07352539 17.95874023 88.11352539 C11.35874023 88.11352539 4.75874023 88.11352539 -2.04125977 88.11352539 C-2.17268852 78.83731179 -2.30326812 69.56108725 -2.43241119 60.28484154 C-2.49242982 55.9761011 -2.55279998 51.66736622 -2.61401367 47.35864258 C-2.67323115 43.18947123 -2.73147281 39.02028722 -2.78907776 34.85109329 C-2.81106322 33.27174023 -2.83338233 31.69239177 -2.85606384 30.11304855 C-2.91799738 25.79234707 -2.97470496 21.47166026 -3.01992798 17.15074921 C-3.03433677 15.77468423 -3.0498887 14.39863082 -3.0664978 13.02259064 C-3.08885518 11.04595705 -3.10332588 9.06923899 -3.11743164 7.0925293 C-3.12705933 5.96118561 -3.13668701 4.82984192 -3.14660645 3.66421509 C-3.0021657 0.16696652 -3.0021657 0.16696652 0 0 Z M21.95874023 46.11352539 C18.63224672 50.88149943 18.10155376 55.47514326 18.95874023 61.11352539 C20.27776923 65.19826035 21.97217424 68.21152219 25.14624023 71.11352539 C29.17431089 72.54572829 32.73530973 72.77646245 36.95874023 72.11352539 C40.5663293 70.37653806 42.44372169 68.80021678 44.83374023 65.61352539 C46.72434182 59.73165379 47.41346149 52.99036911 44.56420898 47.35571289 C42.52598809 44.50914648 41.22891301 43.43551013 37.95874023 42.11352539 C31.57956017 41.23878833 26.86127111 41.56971628 21.95874023 46.11352539 Z " fill="#71BC34" transform="translate(423.041259765625,327.886474609375)"/>
<path d="M0 0 C6.38977533 6.49900226 8.22819442 13.28818486 8.22659302 22.19664001 C8.21627045 23.07920975 8.20594788 23.96177948 8.1953125 24.87109375 C8.1924826 25.793423 8.18965271 26.71575226 8.18673706 27.66603088 C8.17560974 30.58999013 8.15051912 33.51363451 8.125 36.4375 C8.11496057 38.42903201 8.1058364 40.42056886 8.09765625 42.41210938 C8.07740283 47.27495626 8.03824014 52.13712881 8 57 C1.4 57 -5.2 57 -12 57 C-12.495 54.03 -12.495 54.03 -13 51 C-13.70125 51.78375 -14.4025 52.5675 -15.125 53.375 C-20.8371589 58.59044943 -27.17208833 58.44126263 -34.5859375 58.30859375 C-41.21948873 57.70899358 -45.07401144 55.29290828 -49.4375 50.375 C-53.81278587 44.91483398 -53.61523756 39.86429335 -53 33 C-51.72888386 28.67361074 -49.47281124 26.34301992 -45.8125 23.6875 C-38.68342136 20.13331724 -30.76883753 19.66662467 -22.9375 19.375 C-22.07189453 19.33632813 -21.20628906 19.29765625 -20.31445312 19.2578125 C-18.20993641 19.16479519 -16.1049991 19.08137331 -14 19 C-15.36928582 15.21673647 -15.36928582 15.21673647 -17.9375 12.1875 C-25.84356667 9.12188231 -33.20291643 10.99202286 -40.78515625 14.125 C-43 15 -43 15 -45 15 C-45.89395329 13.09209968 -46.76459334 11.17326194 -47.625 9.25 C-48.11226563 8.18265625 -48.59953125 7.1153125 -49.1015625 6.015625 C-50 3 -50 3 -49.39453125 0.7421875 C-39.12440141 -12.08828283 -11.64256852 -8.66627281 0 0 Z M-30.98828125 33.32421875 C-32.58108407 35.9624906 -32.37539322 37.99685427 -32 41 C-30.43278446 43.07009155 -29.49809036 43.88615078 -26.94921875 44.46875 C-22.8921326 44.52480646 -19.84646727 44.39265638 -16.5 41.9375 C-13.56214626 38.48552186 -13.45766364 36.41541402 -13 32 C-15.60478883 31.9190687 -18.20706653 31.85954566 -20.8125 31.8125 C-21.55048828 31.78736328 -22.28847656 31.76222656 -23.04882812 31.73632812 C-27.24976121 31.64060637 -27.24976121 31.64060637 -30.98828125 33.32421875 Z " fill="#72BB35" transform="translate(398,359)"/>
<path d="M0 0 C1.34384766 0.55300781 1.34384766 0.55300781 2.71484375 1.1171875 C9.61332814 4.07782736 15.78431492 7.81077365 22 12 C23.19882812 12.78310547 23.19882812 12.78310547 24.421875 13.58203125 C34.78673437 20.54274563 43.99308586 29.09036359 53.1875 37.5 C53.99828003 38.23802856 53.99828003 38.23802856 54.82543945 38.9909668 C57.52284758 41.48608007 59.91818334 43.96670012 62 47 C58.95279558 45.63378087 56.84012319 44.05402742 54.4375 41.75 C49.71999288 37.55185146 44.61302507 34.83409497 39 32 C37.73111668 31.33066573 36.46292422 30.66002063 35.1953125 29.98828125 C26.97252651 25.68604308 18.97247093 22.47439571 10 20 C6.88264099 18.9846961 3.76739245 17.96388595 0.65625 16.9296875 C-11.6237968 13.80719697 -23.84611056 13.55693757 -36.4375 13.5625 C-37.37064026 13.56209717 -38.30378052 13.56169434 -39.26519775 13.5612793 C-53.37067798 13.59638638 -66.58435682 14.25510468 -80 19 C-80.845625 19.29471191 -81.69125 19.58942383 -82.5625 19.89306641 C-88.49009924 22.01337395 -94.26475758 24.40707374 -100 27 C-100.72977051 27.3290332 -101.45954102 27.65806641 -102.21142578 27.99707031 C-114.47804865 33.62149214 -127.86710337 40.04669834 -135 52 C-135.66 51.67 -136.32 51.34 -137 51 C-131.64094367 41.75374084 -125.14976657 33.89697578 -118 26 C-117.2471875 25.16210938 -116.494375 24.32421875 -115.71875 23.4609375 C-86.54599261 -7.34462348 -38.81620268 -16.82243134 0 0 Z " fill="#AED050" transform="translate(144,129)"/>
<path d="M0 0 C0 0.99 0 1.98 0 3 C-1.83111328 3.25523437 -1.83111328 3.25523437 -3.69921875 3.515625 C-13.45879142 4.93058902 -22.6535832 6.76517675 -32 10 C-32.94488281 10.29648438 -33.88976562 10.59296875 -34.86328125 10.8984375 C-63.35141668 19.91903789 -91.36601175 36.35860307 -108.91796875 61.12109375 C-110.83949254 63.77806004 -112.89407197 66.17025526 -115.0625 68.625 C-121.99758878 77.17225371 -126.22599482 88.422354 -129 99 C-129.66 99 -130.32 99 -131 99 C-131.0825 99.639375 -131.165 100.27875 -131.25 100.9375 C-131.92326257 103.68665547 -132.78952343 105.77751647 -134 108.3125 C-135.99091822 112.6117292 -136.65745736 116.29003868 -137 121 C-137.33 121 -137.66 121 -138 121 C-138.77827028 88.41242634 -134.22201259 57.62123443 -111.6953125 32.421875 C-97.18052185 17.30423362 -79.72094046 7.06160792 -59.57324219 1.69384766 C-57.83065065 1.2239762 -56.09423459 0.73068665 -54.36425781 0.21630859 C-35.68738241 -5.30569706 -18.95074548 -3.18278271 0 0 Z " fill="#4EA647" transform="translate(182,175)"/>
<path d="M0 0 C7.59 0 15.18 0 23 0 C23 21.78 23 43.56 23 66 C36.2 66 49.4 66 63 66 C63 71.94 63 77.88 63 84 C42.21 84 21.42 84 0 84 C0 56.28 0 28.56 0 0 Z " fill="#71BB36" transform="translate(278,332)"/>
<path d="M0 0 C1.7325 0.02900391 1.7325 0.02900391 3.5 0.05859375 C26.84173598 0.93390885 48.43475162 12.22604492 66 27 C66.78632813 27.65355469 67.57265625 28.30710938 68.3828125 28.98046875 C89.30783033 48.16879482 97.65655331 77.68310652 100 105 C99.01 105.495 99.01 105.495 98 106 C97.56300781 104.87464844 97.56300781 104.87464844 97.1171875 103.7265625 C94.30207844 96.6976424 91.08330103 90.36406377 87 84 C86.27556059 82.84926105 85.55163451 81.69819883 84.828125 80.546875 C79.25519551 71.72474017 74.14225885 63.64674192 66 57 C64.89616558 55.76806628 63.81432567 54.51622351 62.75 53.25 C53.03007151 41.96302422 41.09341494 34.07046098 28.04296875 27.10546875 C26.69156852 26.37421394 25.35949526 25.60594198 24.05078125 24.80078125 C0.90913634 10.82763566 -27.60893416 7.691533 -54 8 C-40.66949274 -0.88700484 -15.61306892 -0.64503145 0 0 Z " fill="#54A74B" transform="translate(264,169)"/>
<path d="M0 0 C3.73576992 0.64409826 3.73576992 0.64409826 5.1484375 2.546875 C8.44475234 5.13385627 12.92322146 4.06461275 16.93164062 3.79492188 C22.21713108 3.59220428 24.90437297 4.72226846 29 8 C29.598125 8.45375 30.19625 8.9075 30.8125 9.375 C32.55054016 11.75337074 32.68005856 14.12052705 33 17 C33.99 17.33 34.98 17.66 36 18 C35.34 18 34.68 18 34 18 C34.2475 18.99 34.495 19.98 34.75 21 C35.43051518 25.80249283 33.59197421 29.05821175 31 33 C27.70149807 37.33517397 24.65234077 38.99377777 19.3984375 39.91015625 C12.12170809 40.18273732 6.50113932 36.33068414 1 32 C0.67 32.66 0.34 33.32 0 34 C-4.76042975 36.74601632 -9.45078724 38.8264785 -15 38 C-17.74130062 37.12617922 -20.33578817 36.10243248 -23 35 C-23 34.34 -23 33.68 -23 33 C-23.66 33 -24.32 33 -25 33 C-28.79559586 25.63686983 -30.20572124 19.13716853 -28 11 C-25.94906387 7.52827044 -23.62980038 4.81490019 -20 3 C-17.87681936 2.9027114 -15.75040309 2.87022381 -13.625 2.875 C-12.48289063 2.87242187 -11.34078125 2.86984375 -10.1640625 2.8671875 C-7.56763848 2.9761732 -5.46375117 3.23538757 -3 4 C-2.01 2.68 -1.02 1.36 0 0 Z " fill="#916340" transform="translate(197,178)"/>
<path d="M0 0 C14.86750691 -0.59382054 27.68142989 1.43500218 39.51171875 11.0390625 C49.47612378 20.36113398 52.31400331 30.8958306 54 44 C54.04259124 45.99954645 54.05898055 48.00086987 54 50 C50.70265354 51.09911549 48.27041255 51.1139456 44.80078125 51.09765625 C43.59228516 51.09443359 42.38378906 51.09121094 41.13867188 51.08789062 C39.2447168 51.07532227 39.2447168 51.07532227 37.3125 51.0625 C35.40114258 51.05573242 35.40114258 51.05573242 33.45117188 51.04882812 C30.30073436 51.03702873 27.15039051 51.02056597 24 51 C21.50917495 46.31559048 20.84074453 41.50093049 19.87890625 36.3125 C19.0251938 33.09495265 18.08630273 31.51053699 16 29 C16 28.34 16 27.68 16 27 C8.75826425 23.07739314 2.14810271 21.48421102 -6 21 C-5.38120598 18.24846929 -4.75523814 15.49891102 -4.125 12.75 C-3.95097656 11.97269531 -3.77695313 11.19539062 -3.59765625 10.39453125 C-3.42363281 9.64042969 -3.24960938 8.88632813 -3.0703125 8.109375 C-2.91320801 7.41811523 -2.75610352 6.72685547 -2.59423828 6.01464844 C-1.95653155 3.85262875 -1.06200166 1.98395915 0 0 Z " fill="#AF8259" transform="translate(206,227)"/>
<path d="M0 0 C1.66666667 1.66666667 3.33333333 3.33333333 5 5 C5.91394531 5.68449219 6.82789063 6.36898438 7.76953125 7.07421875 C11.25840873 11.65069727 10.69608011 16.2092784 10.6875 21.8125 C10.73278069 24.16544913 10.78235564 26.51831902 10.8359375 28.87109375 C10.85881836 30.06202637 10.88169922 31.25295898 10.90527344 32.47998047 C11.33972372 48.62406353 13.41512479 64.26831461 17 80 C21.62 80 26.24 80 31 80 C31 80.66 31 81.32 31 82 C31.99 82.33 32.98 82.66 34 83 C30.30741653 84.51490604 27.22908507 85.12024234 23.27734375 85.0625 C22.07259399 85.04896484 22.07259399 85.04896484 20.84350586 85.03515625 C20.23514893 85.02355469 19.62679199 85.01195312 19 85 C22.03333743 94.38145597 25.0867456 103.66561851 29.01953125 112.71484375 C30 115 30 115 31 118 C26.99105136 118.89087748 22.96860331 119.23231939 18.875 119.4375 C17.86179688 119.49808594 16.84859375 119.55867188 15.8046875 119.62109375 C13 119 13 119 10.82421875 116.53125 C8.71815772 112.45442095 7.26019045 108.44579346 5.9375 104.0625 C5.68000977 103.22348145 5.42251953 102.38446289 5.15722656 101.52001953 C-0.34952962 83.14671706 -2.32269199 64.11095612 -3 45 C-3.02868164 44.24412598 -3.05736328 43.48825195 -3.08691406 42.70947266 C-3.56117943 28.28640242 -1.98762043 14.27280631 0 0 Z " fill="#976644" transform="translate(149,303)"/>
<path d="M0 0 C5.24910919 3.89831342 10.37496739 7.89805951 15.41015625 12.0703125 C17.77143413 13.98018624 17.77143413 13.98018624 19.80957031 14.7956543 C24.59115344 16.93481597 24.59115344 16.93481597 25.7590332 19.97753906 C26.19751568 22.50958375 26.43789535 24.99962821 26.625 27.5625 C26.8295195 29.45932784 27.04327283 31.3551798 27.265625 33.25 C27.37712891 34.2090625 27.48863281 35.168125 27.60351562 36.15625 C29.12761911 47.08775083 32.51319538 57.82433326 37.08203125 67.84765625 C38 70 38 70 38 72 C27.77 71.34 17.54 70.68 7 70 C4.1235307 59.45294591 1.75277745 49.87700657 0.875 39.0625 C0.74762451 37.53302734 0.74762451 37.53302734 0.61767578 35.97265625 C-0.28567747 23.9909568 -0.18998214 12.00687117 0 0 Z " fill="#B4845B" transform="translate(159,313)"/>
<path d="M0 0 C-0.41121094 1.22976562 -0.82242188 2.45953125 -1.24609375 3.7265625 C-3.20316135 9.60351125 -5.14536983 15.48489322 -7.0625 21.375 C-7.5894043 22.96441406 -7.5894043 22.96441406 -8.12695312 24.5859375 C-11.14300323 33.89065164 -13.31939405 42.87060024 -13.125 52.6875 C-13.09792969 54.48767578 -13.09792969 54.48767578 -13.0703125 56.32421875 C-13.04710937 57.20722656 -13.02390625 58.09023438 -13 59 C-17.26506039 60.4216868 -20.20037743 58.65386682 -24.1875 57.0625 C-24.93708984 56.77181641 -25.68667969 56.48113281 -26.45898438 56.18164062 C-28.30924477 55.46274964 -30.15506648 54.73245347 -32 54 C-32.27151738 48.40820959 -31.36933655 43.9403677 -29.6875 38.625 C-29.45603271 37.86968994 -29.22456543 37.11437988 -28.98608398 36.33618164 C-28.33422183 34.22076908 -27.66935688 32.1099293 -27 30 C-26.73960937 29.16082031 -26.47921875 28.32164062 -26.2109375 27.45703125 C-20.79560811 10.59121622 -20.79560811 10.59121622 -17 3 C-16.41992188 3.03480469 -15.83984375 3.06960937 -15.2421875 3.10546875 C-9.47612103 3.30528293 -5.13433247 0 0 0 Z " fill="#BA8B5F" transform="translate(196,212)"/>
<path d="M0 0 C3.73576992 0.64409826 3.73576992 0.64409826 5.1484375 2.546875 C8.44475234 5.13385627 12.92322146 4.06461275 16.93164062 3.79492188 C22.21713108 3.59220428 24.90437297 4.72226846 29 8 C29.598125 8.45375 30.19625 8.9075 30.8125 9.375 C32.55054016 11.75337074 32.68005856 14.12052705 33 17 C33.99 17.33 34.98 17.66 36 18 C35.34 18 34.68 18 34 18 C34.20625 19.093125 34.4125 20.18625 34.625 21.3125 C35 25 35 25 33 28 C32.505 24.535 32.505 24.535 32 21 C31.195625 21.804375 30.39125 22.60875 29.5625 23.4375 C26 27 26 27 23.3125 27.3125 C18.16015769 26.82642997 14.30903164 23.89134726 11 20 C10.26953125 17.84375 10.26953125 17.84375 9.8125 15.5 C9.65394531 14.7265625 9.49539062 13.953125 9.33203125 13.15625 C9 11 9 11 9 8 C7.824375 8.7425 7.824375 8.7425 6.625 9.5 C4 11 4 11 2 11 C1.47007308 9.54494642 0.9513211 8.08581873 0.4375 6.625 C0.14746094 5.81289062 -0.14257812 5.00078125 -0.44140625 4.1640625 C-1 2 -1 2 0 0 Z " fill="#A6774F" transform="translate(197,178)"/>
<path d="M0 0 C-0.66 1.98 -1.32 3.96 -2 6 C-8.435 6.495 -8.435 6.495 -15 7 C-15.33 5.35 -15.66 3.7 -16 2 C-14.38334816 0.38334816 -12.47793462 0.64513296 -10.25 0.4375 C-8.95835937 0.31181641 -8.95835937 0.31181641 -7.640625 0.18359375 C-5.08353681 0.00580803 -2.56226184 -0.03225869 0 0 Z " fill="#458F3A" transform="translate(219,176)"/>
<path d="M0 0 C7.93712781 -0.23737205 15.31076842 0.65522526 23.125 2 C24.27226562 2.19078125 25.41953125 2.3815625 26.6015625 2.578125 C29.40232829 3.0449193 32.20164474 3.51900271 35 4 C34.01 4.33 33.02 4.66 32 5 C32 5.66 32 6.32 32 7 C28.26512223 6.5020163 26.18762365 6.12508244 23 4 C19.90384587 3.53849914 19.90384587 3.53849914 16.5 3.375 C15.3553125 3.30023438 14.210625 3.22546875 13.03125 3.1484375 C11.02263141 3.05007731 9.01102545 3 7 3 C6.34 4.32 5.68 5.64 5 7 C3.35 4.69 1.7 2.38 0 0 Z " fill="#CBDD8D" transform="translate(110,0)"/>
<path d="M0 0 C1.35439668 2.70879335 1.06501451 5.00933268 1 8 C-1.64802056 7.55219494 -4.2929242 7.09235069 -6.9375 6.625 C-7.69224609 6.49867188 -8.44699219 6.37234375 -9.22460938 6.2421875 C-11.16283135 5.89452437 -13.08379205 5.45356496 -15 5 C-15.33 4.34 -15.66 3.68 -16 3 C-13.70887834 2.49750857 -11.41708499 1.99807883 -9.125 1.5 C-7.84882813 1.2215625 -6.57265625 0.943125 -5.2578125 0.65625 C-2 0 -2 0 0 0 Z " fill="#986741" transform="translate(185,346)"/>
<path d="M0 0 C0.33 0 0.66 0 1 0 C1.93339313 3.94840111 2.13424241 7.63470289 2.125 11.6875 C2.12757812 12.82574219 2.13015625 13.96398437 2.1328125 15.13671875 C2 18 2 18 1 20 C0.34 20 -0.32 20 -1 20 C-1.69710731 18.71349294 -2.38242876 17.42059335 -3.0625 16.125 C-3.44535156 15.40570313 -3.82820313 14.68640625 -4.22265625 13.9453125 C-4.60744141 12.98238281 -4.60744141 12.98238281 -5 12 C-4 10 -4 10 -1 8 C-0.42251197 6.03638136 -0.42251197 6.03638136 -0.3125 3.875 C-0.209375 2.59625 -0.10625 1.3175 0 0 Z " fill="#78B482" transform="translate(83,254)"/>
<path d="M0 0 C1.68662458 1.64646685 3.35511706 3.31183067 5 5 C3.8125 6.5 3.8125 6.5 2 8 C-0.5 8.125 -0.5 8.125 -3 8 C-3.99 8.33 -4.98 8.66 -6 9 C-6.825 9.12375 -7.65 9.2475 -8.5 9.375 C-11.24286174 10.06071544 -12.22799151 10.85493709 -14 13 C-14.33 11.68 -14.66 10.36 -15 9 C-10.74506383 7.13846542 -6.50070291 6.08887974 -2 5 C-1.01 4.67 -0.02 4.34 1 4 C-2.3 3.34 -5.6 2.68 -9 2 C-9 1.67 -9 1.34 -9 1 C-2.25 -1.125 -2.25 -1.125 0 0 Z " fill="#BCD97A" transform="translate(170,46)"/>
<path d="M0 0 C2.31998359 0.39999717 3.86323424 0.90567879 5.8125 2.25 C7 4 7 4 6.9375 6.5625 C6 9 6 9 3.94140625 10.15234375 C3.30074219 10.43207031 2.66007813 10.71179688 2 11 C1.47007308 9.54494642 0.9513211 8.08581873 0.4375 6.625 C0.14746094 5.81289062 -0.14257812 5.00078125 -0.44140625 4.1640625 C-1 2 -1 2 0 0 Z " fill="#BBA285" transform="translate(197,178)"/>
<path d="M0 0 C3.63 0 7.26 0 11 0 C11 1.65 11 3.3 11 5 C6.12335991 5.34833144 3.22949995 4.41685712 -1 2 C-0.67 1.34 -0.34 0.68 0 0 Z " fill="#AB7349" transform="translate(174,239)"/>
<path d="M0 0 C-0.33 1.32 -0.66 2.64 -1 4 C-2.19496094 3.98259766 -2.19496094 3.98259766 -3.4140625 3.96484375 C-11.25478989 3.88148443 -11.25478989 3.88148443 -19 5 C-16.4156782 2.4156782 -14.10624423 1.89598837 -10.625 0.8125 C-9.48289062 0.44769531 -8.34078125 0.08289062 -7.1640625 -0.29296875 C-4.18525347 -0.95860385 -2.79128097 -1.07938697 0 0 Z " fill="#9BCA6D" transform="translate(71,61)"/>
<path d="M0 0 C0.33 0.99 0.66 1.98 1 3 C-0.14453125 5.26171875 -0.14453125 5.26171875 -1.8125 7.6875 C-2.35519531 8.49574219 -2.89789063 9.30398437 -3.45703125 10.13671875 C-3.96621094 10.75160156 -4.47539063 11.36648437 -5 12 C-5.66 12 -6.32 12 -7 12 C-6.67 8.7 -6.34 5.4 -6 2 C-5.01 2 -4.02 2 -3 2 C-2.01 1.34 -1.02 0.68 0 0 Z " fill="#93C762" transform="translate(62,170)"/>
<path d="M0 0 C1.3303125 0.37125 1.3303125 0.37125 2.6875 0.75 C-5.05547753 7.02808989 -5.05547753 7.02808989 -11.3125 6.75 C-10.33846117 5.72469597 -9.3298873 4.73230498 -8.3125 3.75 C-7.549375 3.0075 -6.78625 2.265 -6 1.5 C-3.3125 -0.25 -3.3125 -0.25 0 0 Z " fill="#9DCD69" transform="translate(117.3125,166.25)"/>
<path d="M0 0 C2.66876904 2.66876904 2.62013792 4.25259655 3 8 C2.97283532 10.96861197 2.78073969 13.91496747 2.5625 16.875 C2.51029297 17.65875 2.45808594 18.4425 2.40429688 19.25 C2.27571149 21.1670912 2.13871383 23.08361503 2 25 C1.67 25 1.34 25 1 25 C-0.19190363 16.65667456 -0.09283549 8.40676978 0 0 Z " fill="#A58671" transform="translate(147,349)"/>
<path d="M0 0 C0.88623047 0.09345703 1.77246094 0.18691406 2.68554688 0.28320312 C3.59755859 0.38697266 4.50957031 0.49074219 5.44921875 0.59765625 C6.84624023 0.74750977 6.84624023 0.74750977 8.27148438 0.90039062 C10.56071613 1.14692328 12.84895859 1.40037862 15.13671875 1.66015625 C15.13671875 1.99015625 15.13671875 2.32015625 15.13671875 2.66015625 C5.89671875 2.66015625 -3.34328125 2.66015625 -12.86328125 2.66015625 C-8.5519963 -0.21403371 -5.07652498 -0.55678016 0 0 Z " fill="#6AB347" transform="translate(152.86328125,171.33984375)"/>
<path d="M0 0 C4.95 0 9.9 0 15 0 C14 4 14 4 11.9375 5.25 C10.9784375 5.62125 10.9784375 5.62125 10 6 C9.34 5.34 8.68 4.68 8 4 C8.33 3.67 8.66 3.34 9 3 C4.545 2.01 4.545 2.01 0 1 C0 0.67 0 0.34 0 0 Z " fill="#3C9545" transform="translate(182,177)"/>
<path d="M0 0 C0.66 3.3 1.32 6.6 2 10 C-3.125 7.4375 -3.125 7.4375 -5 5 C-5 3.68 -5 2.36 -5 1 C-2 0 -2 0 0 0 Z " fill="#9EC563" transform="translate(347,160)"/>
<path d="M0 0 C0 3 0 3 -1.5390625 4.75390625 C-5.52232409 8.20755815 -8.72504167 10.81313438 -14 12 C-4.57142857 2.28571429 -4.57142857 2.28571429 0 0 Z " fill="#6AB364" transform="translate(89,192)"/>
<path d="M0 0 C3.3 0 6.6 0 10 0 C9.67 0.99 9.34 1.98 9 3 C8.34 3 7.68 3 7 3 C6.34 4.32 5.68 5.64 5 7 C3.35 4.69 1.7 2.38 0 0 Z " fill="#C1DA7B" transform="translate(110,0)"/>
<path d="M0 0 C-0.66 2.31 -1.32 4.62 -2 7 C-4.31 6.01 -6.62 5.02 -9 4 C-8 2 -8 2 -5.625 0.875 C-3 0 -3 0 0 0 Z " fill="#7AB864" transform="translate(152,124)"/>
<path d="M0 0 C0 3.69349436 -0.88153908 5.00493457 -3 8 C-4.62332967 9.38576923 -6.28724465 10.72641268 -8 12 C-8.66 12.66 -9.32 13.32 -10 14 C-10 9.84439769 -7.7179548 8.15900671 -5 5.3125 C-4.52304688 4.80138672 -4.04609375 4.29027344 -3.5546875 3.76367188 C-2.37640085 2.50290516 -1.18904747 1.25062314 0 0 Z " fill="#86BF6F" transform="translate(112,89)"/>
<path d="M0 0 C-0.66 1.32 -1.32 2.64 -2 4 C-5.3 4 -8.6 4 -12 4 C-4 -2 -4 -2 0 0 Z " fill="#3B8039" transform="translate(219,178)"/>
<path d="M0 0 C0.66 0.33 1.32 0.66 2 1 C1.07038578 2.15224028 0.1309875 3.29659176 -0.8125 4.4375 C-1.59560547 5.39462891 -1.59560547 5.39462891 -2.39453125 6.37109375 C-4 8 -4 8 -7 9 C-5.64978174 4.58110387 -3.73884332 2.65654657 0 0 Z " fill="#8AC659" transform="translate(353,382)"/>
<path d="M0 0 C0.66 0 1.32 0 2 0 C2.33 5.94 2.66 11.88 3 18 C2.34 18 1.68 18 1 18 C0.90912109 16.62714844 0.90912109 16.62714844 0.81640625 15.2265625 C0.69072266 13.44378906 0.69072266 13.44378906 0.5625 11.625 C0.48128906 10.44164062 0.40007812 9.25828125 0.31640625 8.0390625 C0.18915064 5.08481099 0.18915064 5.08481099 -1 3 C-0.67 2.01 -0.34 1.02 0 0 Z " fill="#9BB398" transform="translate(129,208)"/>
<path d="M0 0 C3 2 3 2 3.6875 4.625 C3.790625 5.40875 3.89375 6.1925 4 7 C3.34 7 2.68 7 2 7 C1.67 7.99 1.34 8.98 1 10 C0.87625 9.195625 0.7525 8.39125 0.625 7.5625 C0.315625 6.2940625 0.315625 6.2940625 0 5 C-0.66 4.67 -1.32 4.34 -2 4 C-1.34 2.68 -0.68 1.36 0 0 Z " fill="#9C8755" transform="translate(195,181)"/>
<path d="M0 0 C0.33 0 0.66 0 1 0 C1.33 2.31 1.66 4.62 2 7 C2.66 7 3.32 7 4 7 C4 8.65 4 10.3 4 12 C3.01 12 2.02 12 1 12 C0 11 0 11 -0.09765625 8.49609375 C-0.08605469 7.48675781 -0.07445312 6.47742188 -0.0625 5.4375 C-0.05347656 4.42558594 -0.04445313 3.41367188 -0.03515625 2.37109375 C-0.02355469 1.58863281 -0.01195312 0.80617187 0 0 Z " fill="#5C9A73" transform="translate(320,248)"/>
<path d="M0 0 C3.79450934 0.39253545 5.51015791 2.24338912 8 5 C6 6 6 6 3.5 5.25 C1 4 1 4 -1 1 C-0.67 0.67 -0.34 0.34 0 0 Z " fill="#B3D68C" transform="translate(175,87)"/>
<path d="M0 0 C2.97 0.33 5.94 0.66 9 1 C4.78370866 3.10814567 2.60209225 3.17700355 -2 3 C-1.34 2.01 -0.68 1.02 0 0 Z " fill="#925D39" transform="translate(174,384)"/>
<path d="M0 0 C1.32 1.32 2.64 2.64 4 4 C3.01 4.33 2.02 4.66 1 5 C0.67 7.64 0.34 10.28 0 13 C-0.33 13 -0.66 13 -1 13 C-1.07654536 8.48382401 -1.10228696 4.40914783 0 0 Z " fill="#B79A7E" transform="translate(149,303)"/>
<path d="M0 0 C2.11126943 4.22253885 2.2171997 6.14001523 2.125 10.75 C2.10695313 11.92046875 2.08890625 13.0909375 2.0703125 14.296875 C2.03550781 15.63492188 2.03550781 15.63492188 2 17 C0.68 16.34 -0.64 15.68 -2 15 C-1.34 15 -0.68 15 0 15 C0 10.05 0 5.1 0 0 Z " fill="#A2BEAC" transform="translate(268,201)"/>
<path d="M0 0 C0.66 0 1.32 0 2 0 C4.4294516 3.6441774 4.16179575 5.71241272 4 10 C1.16625119 6.79663178 0.4794463 4.21912747 0 0 Z " fill="#A38164" transform="translate(169,201)"/>
<path d="M0 0 C0.66 0.33 1.32 0.66 2 1 C0.62845496 3.95409701 -0.98863724 6.44008376 -3 9 C-3.66 8.67 -4.32 8.34 -5 8 C-3.35 5.36 -1.7 2.72 0 0 Z " fill="#A6CC69" transform="translate(12,172)"/>
<path d="M0 0 C1 3 1 3 0.3125 5.5625 C-1.16086774 8.29875437 -2.13522966 8.94958421 -5 10 C-3.84414715 6.08788267 -2.64465038 3.1254959 0 0 Z " fill="#9CC26E" transform="translate(6,181)"/>
<path d="M0 0 C3.875 4.75 3.875 4.75 5 7 C2.69 7 0.38 7 -2 7 C-1.34 6.67 -0.68 6.34 0 6 C0 4.02 0 2.04 0 0 Z " fill="#B0CA7B" transform="translate(401,169)"/>
<path d="M0 0 C0.99 0.66 1.98 1.32 3 2 C3 2.99 3 3.98 3 5 C2.319375 4.690625 1.63875 4.38125 0.9375 4.0625 C-2.36965912 2.86629351 -5.51545878 2.40994603 -9 2 C-9 1.67 -9 1.34 -9 1 C-2.25 -1.125 -2.25 -1.125 0 0 Z " fill="#C6DB86" transform="translate(170,46)"/>
<path d="M0 0 C0 0.66 0 1.32 0 2 C0.99 2.33 1.98 2.66 3 3 C-1.95 2.67 -6.9 2.34 -12 2 C-12 1.67 -12 1.34 -12 1 C-10.56274129 0.83126522 -9.12518162 0.66509263 -7.6875 0.5 C-6.88699219 0.4071875 -6.08648437 0.314375 -5.26171875 0.21875 C-3 0 -3 0 0 0 Z " fill="#B2CD8F" transform="translate(395,172)"/>
<path d="M0 0 C0.33 1.32 0.66 2.64 1 4 C-0.98 4.33 -2.96 4.66 -5 5 C-5 4.01 -5 3.02 -5 2 C-2 0 -2 0 0 0 Z " fill="#79B46F" transform="translate(91,91)"/>
<path d="M0 0 C3.3 0 6.6 0 10 0 C9.01 0.33 8.02 0.66 7 1 C7 1.66 7 2.32 7 3 C4.0625 2.625 4.0625 2.625 1 2 C0.67 1.34 0.34 0.68 0 0 Z " fill="#C8DD70" transform="translate(135,4)"/>
<path d="M0 0 C0.33 1.32 0.66 2.64 1 4 C3.31 4.33 5.62 4.66 8 5 C8 5.33 8 5.66 8 6 C5.03 6 2.06 6 -1 6 C-0.67 4.02 -0.34 2.04 0 0 Z " fill="#C5AA8D" transform="translate(201,242)"/>
<path d="M0 0 C0.66 0.99 1.32 1.98 2 3 C-0.64738916 4.4606285 -1.89448334 5 -5 5 C-5 4.01 -5 3.02 -5 2 C-3.35 1.34 -1.7 0.68 0 0 Z " fill="#8CB45E" transform="translate(5,189)"/>
<path d="M0 0 C2.05078125 0.03255208 4.1015625 0.06510417 6.15234375 0.09765625 C6.15234375 0.42765625 6.15234375 0.75765625 6.15234375 1.09765625 C4.17234375 1.09765625 2.19234375 1.09765625 0.15234375 1.09765625 C-0.17765625 2.41765625 -0.50765625 3.73765625 -0.84765625 5.09765625 C0.14234375 5.42765625 1.13234375 5.75765625 2.15234375 6.09765625 C0.83234375 6.09765625 -0.48765625 6.09765625 -1.84765625 6.09765625 C-2.22984392 4.44150968 -2.56160727 2.77308601 -2.84765625 1.09765625 C-1.84765625 0.09765625 -1.84765625 0.09765625 0 0 Z " fill="#51963B" transform="translate(205.84765625,176.90234375)"/>
<path d="M0 0 C0.66 0 1.32 0 2 0 C4.56687367 3.8503105 3.83288724 5.58569763 3 10 C0.70366176 6.55549263 0.45983515 4.06187717 0 0 Z " fill="#68AA79" transform="translate(318,231)"/>
<path d="M0 0 C-0.33 0.66 -0.66 1.32 -1 2 C-4.3 2 -7.6 2 -11 2 C-4.2 -1.4 -4.2 -1.4 0 0 Z " fill="#429F43" transform="translate(237,175)"/>
<path d="M0 0 C2.31 0 4.62 0 7 0 C7 0.99 7 1.98 7 3 C4.69 3 2.38 3 0 3 C0 2.01 0 1.02 0 0 Z " fill="#A8D191" transform="translate(264,167)"/>
<path d="M0 0 C1.32 0.33 2.64 0.66 4 1 C3.34 2.98 2.68 4.96 2 7 C0 5 0 5 -0.125 2.375 C-0.08375 1.59125 -0.0425 0.8075 0 0 Z " fill="#CBAA88" transform="translate(187,226)"/>
<path d="M0 0 C-1 3 -1 3 -4.0625 4.6875 C-5.031875 5.120625 -6.00125 5.55375 -7 6 C-7.33 5.34 -7.66 4.68 -8 4 C-2.25 0 -2.25 0 0 0 Z " fill="#46A05A" transform="translate(165,199)"/>
<path d="M0 0 C2 3.875 2 3.875 2 5 C-0.97 5 -3.94 5 -7 5 C-6.67 4.01 -6.34 3.02 -6 2 C-4.02 2.66 -2.04 3.32 0 4 C0 2.68 0 1.36 0 0 Z " fill="#75B647" transform="translate(208,172)"/>
<path d="" fill="#DEE0D7" transform="translate(0,0)"/>
</svg>
